<svg width="24" height="24" viewBox="0 0 24 24" fill="none" xmlns="http://www.w3.org/2000/svg">
<path fill-rule="evenodd" clip-rule="evenodd" d="M14.9641 0.457737C14.7279 0.709464 14.0849 1.39826 13.5353 1.9883C12.9856 2.57834 11.7174 3.93771 10.7171 5.00911C9.71682 6.0805 8.48093 7.40433 7.97071 7.95096C7.46058 8.49759 6.3585 9.67831 5.52174 10.5748C4.11084 12.0863 4.00032 12.2263 4 12.5011C3.99952 12.8488 4.13572 12.9619 4.89655 13.2453C5.16855 13.3466 6.16028 13.7195 7.10048 14.074C8.04068 14.4285 9.12304 14.8321 9.50564 14.9709C9.88825 15.1097 10.2014 15.2632 10.2014 15.312C10.2014 15.3609 9.87934 17.0119 9.48577 18.9809C9.09219 20.9499 8.77018 22.685 8.77018 22.8368C8.77018 23.1848 8.97269 23.3758 9.34154 23.3758C9.6106 23.3758 9.85286 23.1285 15.2985 17.2929C20.5504 11.6649 20.9767 11.1875 20.9986 10.9082C21.0225 10.6035 20.7357 10.4199 20.4533 10.303C19.9132 10.0792 18.9226 9.6752 17.8343 9.26756C16.2381 8.66973 14.9021 8.15077 14.8655 8.11435C14.8287 8.07786 15.1239 6.4204 15.5214 4.43099C15.9189 2.44166 16.2441 0.690064 16.2441 0.538598C16.2441 0.1913 16.0414 0 15.6734 0C15.4356 0 15.3294 0.0685373 14.9641 0.457737ZM14.6539 2.64942C14.6539 2.66349 14.4034 3.92984 14.0973 5.46366C13.7912 6.99748 13.5408 8.37578 13.5408 8.52669C13.5408 8.88345 13.6715 8.98872 14.4949 9.29539C15.3197 9.60261 17.8922 10.5656 18.7089 10.873C19.0369 10.9964 19.3052 11.1355 19.3052 11.1821C19.3052 11.2286 18.8555 11.7461 18.3058 12.332C17.7562 12.9179 16.4893 14.274 15.4905 15.3454C14.4917 16.4167 13.4387 17.5444 13.1504 17.8513C12.8622 18.1581 12.3775 18.6769 12.0734 19.0042C10.973 20.1882 10.4179 20.7565 10.3896 20.7282C10.3737 20.7123 10.6111 19.4447 10.9171 17.9114C11.2231 16.378 11.4735 15 11.4735 14.8491C11.4735 14.6877 11.4735 14.5469 11.3344 14.4524C11.2199 14.3746 9.97873 13.8751 8.4919 13.3195C7.00507 12.7638 5.7574 12.2795 5.7194 12.2434C5.65547 12.1827 14.4605 2.64536 14.5943 2.6305C14.627 2.62684 14.6539 2.63535 14.6539 2.64942Z" fill="white"/>
</svg>
