<svg width="260" height="76" viewBox="0 0 260 76" fill="none" xmlns="http://www.w3.org/2000/svg">
<path d="M250.37 76H9.62963C4.33574 76 0 71.7226 0 66.5V9.50001C0 4.27739 4.33574 1.34649e-05 9.62963 1.34649e-05H250.37C255.664 1.34649e-05 260 4.27739 260 9.50001V66.5C260 71.7226 255.664 76 250.37 76Z" fill="black"/>
<path d="M250.37 1.52239C254.829 1.52239 258.457 5.10151 258.457 9.50001V66.5C258.457 70.8985 254.829 74.4776 250.37 74.4776H9.62963C5.17111 74.4776 1.54315 70.8985 1.54315 66.5V9.50001C1.54315 5.10151 5.17111 1.52239 9.62963 1.52239H250.37ZM250.37 1.34649e-05H9.62963C4.33574 1.34649e-05 0 4.27739 0 9.50001V66.5C0 71.7226 4.33574 76 9.62963 76H250.37C255.664 76 260 71.7226 260 66.5V9.50001C260 4.27739 255.664 1.34649e-05 250.37 1.34649e-05Z" fill="white"/>
<path d="M91.3233 19.4625C91.3233 21.049 90.8418 22.3196 89.8933 23.2672C88.8028 24.3906 87.3824 24.9558 85.6418 24.9558C83.9783 24.9558 82.5579 24.3811 81.3928 23.2482C80.2252 22.0987 79.6426 20.688 79.6426 18.9993C79.6426 17.3107 80.2252 15.9 81.3928 14.76C82.5579 13.6176 83.9783 13.0428 85.6418 13.0428C86.47 13.0428 87.2596 13.2115 88.0131 13.525C88.7642 13.8408 89.3757 14.2683 89.8187 14.7956L88.8124 15.7978C88.0396 14.8977 86.9876 14.4536 85.6418 14.4536C84.4285 14.4536 83.3765 14.8716 82.4833 15.7147C81.5998 16.5602 81.1568 17.6551 81.1568 18.9993C81.1568 20.3436 81.5998 21.448 82.4833 22.2935C83.3765 23.1271 84.4285 23.5546 85.6418 23.5546C86.9298 23.5546 88.0131 23.1271 88.8678 22.284C89.4311 21.7258 89.7513 20.9563 89.8355 19.9731H85.6418V18.6003H91.2366C91.3041 18.8972 91.3233 19.1846 91.3233 19.4625Z" fill="white" stroke="white" stroke-width="0.16" stroke-miterlimit="10"/>
<path d="M100.199 14.7038H94.9438V18.3138H99.6816V19.6866H94.9438V23.2966H100.199V24.6954H93.4561V13.3049H100.199V14.7038Z" fill="white" stroke="white" stroke-width="0.16" stroke-miterlimit="10"/>
<path d="M106.46 24.6954H104.973V14.7038H101.749V13.3049H109.686V14.7038H106.46V24.6954Z" fill="white" stroke="white" stroke-width="0.16" stroke-miterlimit="10"/>
<path d="M115.432 24.6954V13.3049H116.917V24.6954H115.432Z" fill="white" stroke="white" stroke-width="0.16" stroke-miterlimit="10"/>
<path d="M123.499 24.6954H122.024V14.7038H118.788V13.3049H126.735V14.7038H123.499V24.6954Z" fill="white" stroke="white" stroke-width="0.16" stroke-miterlimit="10"/>
<path d="M141.762 23.2292C140.623 24.3811 139.213 24.9558 137.53 24.9558C135.837 24.9558 134.427 24.3811 133.288 23.2292C132.152 22.0797 131.586 20.669 131.586 18.9993C131.586 17.3297 132.152 15.919 133.288 14.7695C134.427 13.6176 135.837 13.0428 137.53 13.0428C139.203 13.0428 140.614 13.6176 141.752 14.779C142.898 15.938 143.464 17.3392 143.464 18.9993C143.464 20.669 142.898 22.0797 141.762 23.2292ZM134.388 22.2745C135.245 23.1271 136.288 23.5546 137.53 23.5546C138.762 23.5546 139.814 23.1271 140.662 22.2745C141.516 21.4218 141.95 20.327 141.95 18.9993C141.95 17.6717 141.516 16.5768 140.662 15.7242C139.814 14.8716 138.762 14.4441 137.53 14.4441C136.288 14.4441 135.245 14.8716 134.388 15.7242C133.534 16.5768 133.1 17.6717 133.1 18.9993C133.1 20.327 133.534 21.4218 134.388 22.2745Z" fill="white" stroke="white" stroke-width="0.16" stroke-miterlimit="10"/>
<path d="M145.556 24.6954V13.3049H147.361L152.975 22.1637H153.04L152.975 19.9739V13.3049H154.461V24.6954H152.91L147.031 15.3997H146.966L147.031 17.5989V24.6954H145.556Z" fill="white" stroke="white" stroke-width="0.16" stroke-miterlimit="10"/>
<path d="M131.221 41.3292C126.698 41.3292 123.002 44.7255 123.002 49.4113C123.002 54.0592 126.698 57.4911 131.221 57.4911C135.754 57.4911 139.45 54.0592 139.45 49.4113C139.45 44.7255 135.754 41.3292 131.221 41.3292ZM131.221 54.3086C128.739 54.3086 126.604 52.2875 126.604 49.4113C126.604 46.4972 128.739 44.5117 131.221 44.5117C133.703 44.5117 135.848 46.4972 135.848 49.4113C135.848 52.2875 133.703 54.3086 131.221 54.3086ZM113.288 41.3292C108.755 41.3292 105.069 44.7255 105.069 49.4113C105.069 54.0592 108.755 57.4911 113.288 57.4911C117.819 57.4911 121.507 54.0592 121.507 49.4113C121.507 44.7255 117.819 41.3292 113.288 41.3292ZM113.288 54.3086C110.804 54.3086 108.661 52.2875 108.661 49.4113C108.661 46.4972 110.804 44.5117 113.288 44.5117C115.77 44.5117 117.906 46.4972 117.906 49.4113C117.906 52.2875 115.77 54.3086 113.288 54.3086ZM91.949 43.8063V47.2406H100.262C100.019 49.1596 99.3686 50.5703 98.372 51.5536C97.1586 52.7411 95.2688 54.0592 91.949 54.0592C86.8333 54.0592 82.8273 49.9861 82.8273 44.9392C82.8273 39.8923 86.8333 35.8192 91.949 35.8192C94.7151 35.8192 96.7277 36.8856 98.2131 38.2678L100.666 35.8477C98.5886 33.8907 95.8249 32.3873 91.949 32.3873C84.9338 32.3873 79.0381 38.0185 79.0381 44.9392C79.0381 51.86 84.9338 57.4911 91.949 57.4911C95.7407 57.4911 98.5886 56.2656 100.828 53.9666C103.122 51.7032 103.837 48.5207 103.837 45.951C103.837 45.153 103.769 44.4191 103.649 43.8063H91.949ZM179.208 46.4687C178.531 44.6613 176.444 41.3292 172.193 41.3292C167.98 41.3292 164.472 44.6043 164.472 49.4113C164.472 53.9381 167.944 57.4911 172.597 57.4911C176.36 57.4911 178.531 55.2277 179.425 53.9096L176.632 52.0737C175.7 53.418 174.432 54.3086 172.597 54.3086C170.775 54.3086 169.467 53.4845 168.63 51.86L179.586 47.3878L179.208 46.4687ZM168.038 49.1596C167.944 46.0436 170.491 44.4476 172.315 44.4476C173.745 44.4476 174.959 45.153 175.363 46.1623L168.038 49.1596ZM159.132 56.9995H162.734V33.2495H159.132V56.9995ZM153.234 43.1295H153.114C152.305 42.1842 150.762 41.3292 148.807 41.3292C144.705 41.3292 140.954 44.8822 140.954 49.4375C140.954 53.9666 144.705 57.4911 148.807 57.4911C150.762 57.4911 152.305 56.629 153.114 55.6552H153.234V56.8142C153.234 59.9041 151.561 61.5642 148.862 61.5642C146.662 61.5642 145.297 59.9967 144.734 58.6786L141.602 59.9682C142.505 62.1105 144.895 64.7467 148.862 64.7467C153.085 64.7467 156.648 62.2957 156.648 56.3321V41.8208H153.234V43.1295ZM149.115 54.3086C146.633 54.3086 144.556 52.259 144.556 49.4375C144.556 46.5898 146.633 44.5117 149.115 44.5117C151.561 44.5117 153.49 46.5898 153.49 49.4375C153.49 52.259 151.561 54.3086 149.115 54.3086ZM196.069 33.2495H187.456V56.9995H191.047V48.0006H196.069C200.058 48.0006 203.97 45.153 203.97 40.6238C203.97 36.0971 200.049 33.2495 196.069 33.2495ZM196.163 44.697H191.047V36.5531H196.163C198.845 36.5531 200.376 38.75 200.376 40.6238C200.376 42.4621 198.845 44.697 196.163 44.697ZM218.367 41.2841C215.772 41.2841 213.073 42.4146 211.963 44.9202L215.15 46.2383C215.837 44.9202 217.098 44.4927 218.432 44.4927C220.295 44.4927 222.185 45.5971 222.214 47.547V47.7963C221.564 47.4258 220.172 46.8772 218.461 46.8772C215.028 46.8772 211.53 48.7416 211.53 52.221C211.53 55.4035 214.342 57.4531 217.502 57.4531C219.92 57.4531 221.253 56.3772 222.091 55.1256H222.214V56.9615H225.683V47.851C225.683 43.6401 222.495 41.2841 218.367 41.2841ZM217.933 54.2991C216.759 54.2991 215.122 53.7243 215.122 52.2875C215.122 50.4492 217.163 49.7438 218.93 49.7438C220.512 49.7438 221.253 50.0882 222.214 50.5418C221.932 52.7411 220.013 54.2991 217.933 54.2991ZM238.322 41.8042L234.193 52.0998H234.07L229.802 41.8042H225.928L232.342 56.192L228.682 64.1981H232.436L242.318 41.8042H238.322ZM205.945 56.9995H209.546V33.2495H205.945V56.9995Z" fill="white"/>
<path d="M20.0953 14.3233C19.5296 14.9076 19.2021 15.8172 19.2021 16.9952V59.0137C19.2021 60.1917 19.5296 61.1013 20.0953 61.6856L20.2349 61.8138L44.102 38.2776V37.7218L20.2349 14.1856L20.0953 14.3233Z" fill="url(#paint0_linear_3_2822)"/>
<path d="M52.0523 46.1265L44.1055 38.2771V37.7213L52.062 29.872L52.2401 29.9741L61.6627 35.2632C64.3518 36.7642 64.3518 39.2342 61.6627 40.7447L52.2401 46.0243L52.0523 46.1265Z" fill="url(#paint1_linear_3_2822)"/>
<path d="M52.2409 46.025L44.1063 37.9998L20.0996 61.6857C20.9928 62.612 22.4492 62.7236 24.1055 61.7973L52.2409 46.025Z" fill="url(#paint2_linear_3_2822)"/>
<path d="M52.2409 29.974L24.1055 14.2016C22.4492 13.2849 20.9928 13.3965 20.0996 14.3228L44.1063 37.9991L52.2409 29.974Z" fill="url(#paint3_linear_3_2822)"/>
<defs>
<linearGradient id="paint0_linear_3_2822" x1="41.9829" y1="59.4513" x2="10.0992" y2="27.1326" gradientUnits="userSpaceOnUse">
<stop stop-color="#00A0FF"/>
<stop offset="0.0066" stop-color="#00A1FF"/>
<stop offset="0.2601" stop-color="#00BEFF"/>
<stop offset="0.5122" stop-color="#00D2FF"/>
<stop offset="0.7604" stop-color="#00DFFF"/>
<stop offset="1" stop-color="#00E3FF"/>
</linearGradient>
<linearGradient id="paint1_linear_3_2822" x1="65.1643" y1="37.9966" x2="18.5629" y2="37.9966" gradientUnits="userSpaceOnUse">
<stop stop-color="#FFE000"/>
<stop offset="0.4087" stop-color="#FFBD00"/>
<stop offset="0.7754" stop-color="#FFA500"/>
<stop offset="1" stop-color="#FF9C00"/>
</linearGradient>
<linearGradient id="paint2_linear_3_2822" x1="47.8175" y1="33.6372" x2="4.58073" y2="-10.1895" gradientUnits="userSpaceOnUse">
<stop stop-color="#FF3A44"/>
<stop offset="1" stop-color="#C31162"/>
</linearGradient>
<linearGradient id="paint3_linear_3_2822" x1="14.0566" y1="75.6644" x2="33.3638" y2="56.0939" gradientUnits="userSpaceOnUse">
<stop stop-color="#32A071"/>
<stop offset="0.0685" stop-color="#2DA771"/>
<stop offset="0.4762" stop-color="#15CF74"/>
<stop offset="0.8009" stop-color="#06E775"/>
<stop offset="1" stop-color="#00F076"/>
</linearGradient>
</defs>
</svg>
