<svg width="24" height="24" viewBox="0 0 24 24" fill="none" xmlns="http://www.w3.org/2000/svg">
<path fill-rule="evenodd" clip-rule="evenodd" d="M12.4505 1.00387C12.3101 0.998712 12.1694 0.998712 12.029 1.00387C11.1016 1.03789 10.2665 1.35323 9.3509 1.87818C8.45863 2.38974 7.43139 3.13608 6.12801 4.08305L6.05716 4.13453C4.75376 5.08149 3.7265 5.82783 2.96425 6.51835C2.18206 7.22693 1.6241 7.92368 1.30517 8.79515C1.25685 8.92717 1.2134 9.06091 1.17489 9.19611C0.920669 10.0886 0.962532 10.9803 1.17884 12.0133C1.38964 13.02 1.78202 14.2275 2.27987 15.7598L4.01444 21.0982C4.3883 22.2488 5.46055 23.0279 6.6704 23.0279C8.21273 23.0279 9.46304 21.7776 9.46304 20.2352V17.4863C9.46304 16.842 9.98536 16.3197 10.6297 16.3197H13.8498C14.4941 16.3197 15.0165 16.842 15.0165 17.4863V20.2352C15.0165 21.7776 16.2668 23.0279 17.8091 23.0279C19.019 23.0279 20.0912 22.2488 20.4651 21.0982L22.1996 15.7597C22.6975 14.2275 23.0899 13.0199 23.3007 12.0133C23.517 10.9803 23.5588 10.0886 23.3046 9.19611C23.2661 9.06091 23.2227 8.92717 23.1743 8.79515C22.8554 7.92368 22.2974 7.22693 21.5153 6.51835C20.753 5.82782 19.7257 5.08149 18.4223 4.13452L18.3515 4.08303C17.0481 3.13607 16.0209 2.38973 15.1286 1.87818C14.213 1.35323 13.3779 1.03789 12.4505 1.00387ZM12.0839 2.50286C12.1878 2.49905 12.2917 2.49905 12.3956 2.50286C12.991 2.5247 13.584 2.72167 14.3825 3.17948C15.1963 3.64603 16.1587 4.34396 17.5053 5.32232C18.8518 6.30068 19.813 7.00026 20.5082 7.63002C21.1903 8.24798 21.5609 8.75112 21.7657 9.31067C21.8014 9.40824 21.8335 9.50709 21.862 9.60703C22.0252 10.1801 22.0211 10.805 21.8325 11.7058C21.6403 12.624 21.2739 13.7549 20.7595 15.3379L19.0385 20.6347C18.8654 21.1673 18.3691 21.5279 17.8091 21.5279C17.0952 21.5279 16.5165 20.9491 16.5165 20.2352V17.4863C16.5165 16.0136 15.3226 14.8197 13.8498 14.8197H10.6297C9.15693 14.8197 7.96304 16.0136 7.96304 17.4863V20.2352C7.96304 20.9491 7.38431 21.5279 6.6704 21.5279C6.11039 21.5279 5.61407 21.1673 5.44102 20.6347L3.71999 15.3379C3.20564 13.7549 2.83925 12.624 2.647 11.7058C2.45835 10.805 2.45428 10.1801 2.61751 9.60703C2.64597 9.5071 2.67809 9.40824 2.7138 9.31067C2.91857 8.75112 3.28917 8.24798 3.97131 7.63002C4.6665 7.00026 5.62766 6.30068 6.97425 5.32232C8.32085 4.34396 9.2832 3.64603 10.097 3.17948C10.8955 2.72167 11.4885 2.5247 12.0839 2.50286Z" fill="url(#paint0_linear_156_3715)"/>
<defs>
<linearGradient id="paint0_linear_156_3715" x1="23.4795" y1="12.2142" x2="1" y2="12.2142" gradientUnits="userSpaceOnUse">
<stop stop-color="#D32A1E"/>
<stop offset="1" stop-color="#EB5E54"/>
</linearGradient>
</defs>
</svg>
