<svg width="24" height="24" viewBox="0 0 24 24" fill="none" xmlns="http://www.w3.org/2000/svg">
<path d="M12.5 10.75C12.5 10.3358 12.1642 10 11.75 10C11.3358 10 11 10.3358 11 10.75V16.75C11 17.1642 11.3358 17.5 11.75 17.5C12.1642 17.5 12.5 17.1642 12.5 16.75V10.75Z" fill="url(#paint0_linear_3_2725)"/>
<path fill-rule="evenodd" clip-rule="evenodd" d="M11.75 1C5.81294 1 1 5.81294 1 11.75C1 17.6871 5.81294 22.5 11.75 22.5C17.6871 22.5 22.5 17.6871 22.5 11.75C22.5 5.81294 17.6871 1 11.75 1ZM2.5 11.75C2.5 6.64137 6.64137 2.5 11.75 2.5C16.8586 2.5 21 6.64137 21 11.75C21 16.8586 16.8586 21 11.75 21C6.64137 21 2.5 16.8586 2.5 11.75Z" fill="url(#paint1_linear_3_2725)"/>
<path d="M12.75 7.75C12.75 8.30228 12.3023 8.75 11.75 8.75C11.1977 8.75 10.75 8.30228 10.75 7.75C10.75 7.19772 11.1977 6.75 11.75 6.75C12.3023 6.75 12.75 7.19772 12.75 7.75Z" fill="url(#paint2_linear_3_2725)"/>
<defs>
<linearGradient id="paint0_linear_3_2725" x1="22.5" y1="11.9455" x2="1" y2="11.9455" gradientUnits="userSpaceOnUse">
<stop stop-color="#D32A1E"/>
<stop offset="1" stop-color="#EB5E54"/>
</linearGradient>
<linearGradient id="paint1_linear_3_2725" x1="22.5" y1="11.9455" x2="1" y2="11.9455" gradientUnits="userSpaceOnUse">
<stop stop-color="#D32A1E"/>
<stop offset="1" stop-color="#EB5E54"/>
</linearGradient>
<linearGradient id="paint2_linear_3_2725" x1="22.5" y1="11.9455" x2="1" y2="11.9455" gradientUnits="userSpaceOnUse">
<stop stop-color="#D32A1E"/>
<stop offset="1" stop-color="#EB5E54"/>
</linearGradient>
</defs>
</svg>
