<svg width="24" height="24" viewBox="0 0 24 24" fill="none" xmlns="http://www.w3.org/2000/svg">
<path fill-rule="evenodd" clip-rule="evenodd" d="M11.75 12C10.2312 12 9.00003 13.2312 9.00003 14.75C9.00003 16.2688 10.2312 17.5 11.75 17.5C13.2688 17.5 14.5 16.2688 14.5 14.75C14.5 13.2312 13.2688 12 11.75 12ZM10.5 14.75C10.5 14.0596 11.0597 13.5 11.75 13.5C12.4404 13.5 13 14.0596 13 14.75C13 15.4404 12.4404 16 11.75 16C11.0597 16 10.5 15.4404 10.5 14.75Z" fill="url(#paint0_linear_3_2909)"/>
<path fill-rule="evenodd" clip-rule="evenodd" d="M11.75 1C8.5744 1 6.00003 3.57436 6.00003 6.75V7.27281L5.97319 7.28142C4.22267 7.8502 2.85024 9.22263 2.28146 10.9732C1.99958 11.8407 1.99975 12.8819 2.00002 14.5882V14.9118C1.99975 16.6181 1.99958 17.6593 2.28146 18.5268C2.85024 20.2774 4.22267 21.6498 5.97319 22.2186C6.8407 22.5005 7.88191 22.5003 9.58817 22.5H13.9119C15.6182 22.5003 16.6594 22.5005 17.5269 22.2186C19.2774 21.6498 20.6498 20.2774 21.2186 18.5268C21.5005 17.6593 21.5003 16.6181 21.5 14.9119V14.5881C21.5003 12.8819 21.5005 11.8407 21.2186 10.9732C20.6498 9.22263 19.2774 7.8502 17.5269 7.28142L17.5 7.27281V6.75C17.5 3.57436 14.9257 1 11.75 1ZM9.66606 7C8.78686 6.99997 8.08514 6.99994 7.50003 7.03306V6.75C7.50003 4.40279 9.40282 2.5 11.75 2.5C14.0972 2.5 16 4.40279 16 6.75V7.03306C15.4149 6.99994 14.7132 6.99997 13.834 7H9.66606ZM6.87463 8.60329C7.47223 8.50262 8.27818 8.5 9.75003 8.5H13.75C15.2219 8.5 16.0278 8.50262 16.6254 8.60329C16.7907 8.63113 16.9332 8.66571 17.0634 8.70801C18.3572 9.12841 19.3716 10.1428 19.792 11.4367C19.9908 12.0484 20 12.8303 20 14.75C20 16.6697 19.9908 17.4516 19.792 18.0633C19.3716 19.3572 18.3572 20.3716 17.0634 20.792C16.4516 20.9907 15.6697 21 13.75 21H9.75003C7.83038 21 7.04842 20.9907 6.43671 20.792C5.14285 20.3716 4.12844 19.3572 3.70804 18.0633C3.50929 17.4516 3.50003 16.6697 3.50003 14.75C3.50003 12.8303 3.50929 12.0484 3.70804 11.4367C4.12844 10.1428 5.14285 9.12841 6.43671 8.70801C6.56688 8.66571 6.70938 8.63113 6.87463 8.60329Z" fill="url(#paint1_linear_3_2909)"/>
<defs>
<linearGradient id="paint0_linear_3_2909" x1="21.5001" y1="11.9455" x2="2" y2="11.9455" gradientUnits="userSpaceOnUse">
<stop stop-color="#D32A1E"/>
<stop offset="1" stop-color="#EB5E54"/>
</linearGradient>
<linearGradient id="paint1_linear_3_2909" x1="21.5001" y1="11.9455" x2="2" y2="11.9455" gradientUnits="userSpaceOnUse">
<stop stop-color="#D32A1E"/>
<stop offset="1" stop-color="#EB5E54"/>
</linearGradient>
</defs>
</svg>
