<svg width="24" height="24" viewBox="0 0 24 24" fill="none" xmlns="http://www.w3.org/2000/svg">
<path d="M20.3262 7.23016C20.5914 6.91195 20.5484 6.43903 20.2302 6.17385C19.9119 5.90868 19.439 5.95167 19.1739 6.26988L13.7832 12.7387C12.7003 14.0381 11.9386 14.9494 11.2779 15.546C10.6326 16.1287 10.1873 16.3139 9.75002 16.3139C9.31276 16.3139 8.86742 16.1287 8.22213 15.546C7.56143 14.9494 6.79969 14.0381 5.71686 12.7387L4.32618 11.0699C4.06101 10.7517 3.58809 10.7087 3.26988 10.9739C2.95167 11.239 2.90868 11.7119 3.17385 12.0302L4.60312 13.7453C5.63839 14.9876 6.46748 15.9826 7.21684 16.6592C7.99089 17.3582 8.78216 17.8139 9.75002 17.8139C10.7179 17.8139 11.5091 17.3582 12.2832 16.6592C13.0326 15.9826 13.8616 14.9877 14.8969 13.7453L20.3262 7.23016Z" fill="url(#paint0_linear_3_2923)"/>
<defs>
<linearGradient id="paint0_linear_3_2923" x1="20.5" y1="12.0143" x2="3" y2="12.0143" gradientUnits="userSpaceOnUse">
<stop stop-color="#D32A1E"/>
<stop offset="1" stop-color="#EB5E54"/>
</linearGradient>
</defs>
</svg>
