<svg width="30" height="31" viewBox="0 0 30 31" fill="none" xmlns="http://www.w3.org/2000/svg">
<path fill-rule="evenodd" clip-rule="evenodd" d="M9.02789 2.05196C7.40755 0.563083 4.91695 0.563083 3.29661 2.05196C3.23025 2.11294 3.15941 2.18379 3.06742 2.2758L1.68518 3.65805C0.294286 5.04894 -0.2896 7.05404 0.137108 8.97423C2.55812 19.8688 11.0665 28.3772 21.9611 30.7982C23.8813 31.2249 25.8864 30.641 27.2773 29.2501L28.6594 27.868C28.7514 27.776 28.8223 27.7051 28.8833 27.6387C30.3722 26.0184 30.3722 23.5278 28.8833 21.9074C28.8223 21.841 28.7515 21.7702 28.6594 21.6781L26.3965 19.4153C24.8255 17.8442 22.4529 17.3949 20.4161 18.2827C19.2501 18.791 17.8918 18.5337 16.9924 17.6343L13.301 13.9429C12.4016 13.0435 12.1444 11.6852 12.6526 10.5192C13.5404 8.48242 13.0911 6.10984 11.52 4.53876L9.2571 2.27583C9.1651 2.18381 9.09425 2.11294 9.02789 2.05196ZM4.85969 3.75304C5.5962 3.07628 6.72829 3.07628 7.46481 3.75304C7.49023 3.77641 7.52356 3.80936 7.64071 3.92651L9.8865 6.1723C10.7859 7.07173 11.0432 8.43003 10.5349 9.59606C9.64709 11.6328 10.0964 14.0054 11.6675 15.5765L15.3588 19.2678C16.9299 20.8389 19.3025 21.2882 21.3392 20.4004C22.5053 19.8921 23.8636 20.1494 24.763 21.0488L27.0088 23.2946C27.1259 23.4117 27.1589 23.4451 27.1823 23.4705C27.859 24.207 27.859 25.3391 27.1823 26.0756C27.1589 26.101 27.1259 26.1344 27.0088 26.2515L25.6437 27.6166C24.8113 28.449 23.6114 28.7984 22.4622 28.543C12.4433 26.3166 4.6187 18.492 2.39227 8.47308C2.1369 7.32394 2.48633 6.12397 3.31872 5.29158L4.68379 3.92651C4.80094 3.80936 4.83426 3.77641 4.85969 3.75304Z" fill="url(#paint0_linear_3_2814)"/>
<path d="M18.5633 5.53298C18.6644 5.533 18.7114 5.53309 18.7506 5.53365C22.2922 5.58437 25.151 8.44312 25.2017 11.9847C25.2023 12.0295 25.2023 12.0845 25.2023 12.2189V13.0901C25.2023 13.728 25.7195 14.2452 26.3574 14.2452C26.9954 14.2452 27.5125 13.728 27.5125 13.0901V12.2077C27.5125 12.088 27.5125 12.0152 27.5116 11.9516C27.443 7.16006 23.5753 3.29234 18.7837 3.22372C18.7201 3.22281 18.6473 3.22281 18.5276 3.22281H17.6452C17.0073 3.22281 16.4902 3.73996 16.4902 4.37789C16.4902 5.01583 17.0073 5.53298 17.6452 5.53298H18.5165C18.5333 5.53298 18.5488 5.53298 18.5633 5.53298Z" fill="url(#paint1_linear_3_2814)"/>
<defs>
<linearGradient id="paint0_linear_3_2814" x1="30" y1="16.208" x2="-2.73525e-08" y2="16.208" gradientUnits="userSpaceOnUse">
<stop stop-color="#D32A1E"/>
<stop offset="1" stop-color="#EB5E54"/>
</linearGradient>
<linearGradient id="paint1_linear_3_2814" x1="30" y1="16.208" x2="-2.73525e-08" y2="16.208" gradientUnits="userSpaceOnUse">
<stop stop-color="#D32A1E"/>
<stop offset="1" stop-color="#EB5E54"/>
</linearGradient>
</defs>
</svg>
