<svg width="24" height="24" viewBox="0 0 24 24" fill="none" xmlns="http://www.w3.org/2000/svg">
<path fill-rule="evenodd" clip-rule="evenodd" d="M11.75 8.39668C9.12665 8.39668 7 10.5233 7 13.1467C7 15.77 9.12665 17.8967 11.75 17.8967C14.3734 17.8967 16.5 15.77 16.5 13.1467C16.5 10.5233 14.3734 8.39668 11.75 8.39668ZM8.5 13.1467C8.5 11.3518 9.95507 9.89668 11.75 9.89668C13.5449 9.89668 15 11.3518 15 13.1467C15 14.9416 13.5449 16.3967 11.75 16.3967C9.95507 16.3967 8.5 14.9416 8.5 13.1467Z" fill="white"/>
<path fill-rule="evenodd" clip-rule="evenodd" d="M15.4001 2.38778C13.3185 0.537406 10.1815 0.537406 8.09986 2.38778L7.8841 2.57956C7.29195 3.10593 6.52721 3.39668 5.73493 3.39668C3.1199 3.39668 1 5.51658 1 8.13161V13.1919C0.999992 15.0285 0.999985 16.4681 1.12373 17.6102C1.25001 18.7757 1.51232 19.7201 2.09815 20.5264C2.45281 21.0146 2.88209 21.4439 3.37024 21.7985C4.17656 22.3844 5.12094 22.6467 6.28648 22.7729C7.42859 22.8967 8.86817 22.8967 10.7047 22.8967H12.7953C14.6318 22.8967 16.0714 22.8967 17.2135 22.7729C18.3791 22.6467 19.3234 22.3844 20.1298 21.7985C20.6179 21.4439 21.0472 21.0146 21.4018 20.5264C21.9877 19.7201 22.25 18.7757 22.3763 17.6102C22.5 16.4681 22.5 15.0285 22.5 13.192V8.13161C22.5 5.51658 20.3801 3.39668 17.7651 3.39668C16.9728 3.39668 16.2081 3.10593 15.6159 2.57956L15.4001 2.38778ZM9.0964 3.5089C10.6097 2.1637 12.8903 2.1637 14.4036 3.5089L14.6194 3.70068C15.4861 4.47111 16.6054 4.89668 17.7651 4.89668C19.5517 4.89668 21 6.34501 21 8.13161V13.1467C21 15.0382 20.999 16.3967 20.885 17.4486C20.7725 18.4865 20.5574 19.1368 20.1883 19.6448C19.9262 20.0056 19.6089 20.3229 19.2481 20.585C18.7401 20.9541 18.0899 21.1692 17.052 21.2817C16 21.3956 14.6416 21.3967 12.75 21.3967H10.75C8.85843 21.3967 7.49999 21.3956 6.44804 21.2817C5.41013 21.1692 4.75992 20.9541 4.25191 20.585C3.89111 20.3229 3.57382 20.0056 3.31168 19.6448C2.94259 19.1368 2.72745 18.4865 2.615 17.4486C2.50103 16.3967 2.5 15.0382 2.5 13.1467V8.13161C2.5 6.34501 3.94833 4.89668 5.73493 4.89668C6.89458 4.89668 8.01392 4.47111 8.88065 3.70068L9.0964 3.5089Z" fill="white"/>
<path d="M16.75 8.14673C16.75 8.69901 17.1977 9.14673 17.75 9.14673C18.3023 9.14673 18.75 8.69901 18.75 8.14673C18.75 7.59444 18.3023 7.14673 17.75 7.14673C17.1977 7.14673 16.75 7.59444 16.75 8.14673Z" fill="white"/>
</svg>
