<svg width="40" height="40" viewBox="0 0 40 40" fill="none" xmlns="http://www.w3.org/2000/svg">
<path d="M26.6667 18.6667H21.3333V13.3333C21.3333 12.9797 21.1929 12.6406 20.9428 12.3905C20.6928 12.1405 20.3536 12 20 12C19.6464 12 19.3072 12.1405 19.0572 12.3905C18.8071 12.6406 18.6667 12.9797 18.6667 13.3333V18.6667H13.3333C12.9797 18.6667 12.6406 18.8071 12.3905 19.0572C12.1405 19.3072 12 19.6464 12 20C12 20.3536 12.1405 20.6928 12.3905 20.9428C12.6406 21.1929 12.9797 21.3333 13.3333 21.3333H18.6667V26.6667C18.6667 27.0203 18.8071 27.3594 19.0572 27.6095C19.3072 27.8595 19.6464 28 20 28C20.3536 28 20.6928 27.8595 20.9428 27.6095C21.1929 27.3594 21.3333 27.0203 21.3333 26.6667V21.3333H26.6667C27.0203 21.3333 27.3594 21.1929 27.6095 20.9428C27.8595 20.6928 28 20.3536 28 20C28 19.6464 27.8595 19.3072 27.6095 19.0572C27.3594 18.8071 27.0203 18.6667 26.6667 18.6667Z" fill="url(#paint0_linear_3_3122)"/>
<circle cx="20" cy="20" r="18.5" stroke="url(#paint1_linear_3_3122)" stroke-width="3"/>
<defs>
<linearGradient id="paint0_linear_3_3122" x1="28" y1="20.1455" x2="12" y2="20.1455" gradientUnits="userSpaceOnUse">
<stop stop-color="#D32A1E"/>
<stop offset="1" stop-color="#EB5E54"/>
</linearGradient>
<linearGradient id="paint1_linear_3_3122" x1="40" y1="20.3637" x2="-3.64701e-08" y2="20.3637" gradientUnits="userSpaceOnUse">
<stop stop-color="#D32A1E"/>
<stop offset="1" stop-color="#EB5E54"/>
</linearGradient>
</defs>
</svg>
