<svg width="37" height="43" viewBox="0 0 37 43" fill="none" xmlns="http://www.w3.org/2000/svg">
<path d="M36.9995 20.9501C31.2369 22.4839 26.2028 25.0282 21.8974 28.583C17.3712 32.2822 14.4457 36.4596 13.1209 41.1152L2.9535 42.3602C4.63151 37.9212 7.24789 33.8972 10.8026 30.2883C14.6223 26.4086 18.9719 23.5936 23.8514 21.8433C16.0354 17.0073 10.339 12.9742 6.76215 9.74421C3.93602 7.19989 1.9489 4.58339 0.800781 1.89471L9.87531 0C11.8845 3.80746 16.9958 8.42694 25.2093 13.8584C27.5276 15.3922 31.4577 17.7561 36.9995 20.9501Z" fill="url(#paint0_linear_3_3166)"/>
<defs>
<linearGradient id="paint0_linear_3_3166" x1="36.9995" y1="21.5652" x2="0.800781" y2="21.5652" gradientUnits="userSpaceOnUse">
<stop stop-color="#D32A1E"/>
<stop offset="1" stop-color="#EB5E54"/>
</linearGradient>
</defs>
</svg>
