<svg width="40" height="33" viewBox="0 0 40 33" fill="none" xmlns="http://www.w3.org/2000/svg">
<path fill-rule="evenodd" clip-rule="evenodd" d="M20.3751 0.556875C20.1251 0.549401 19.8749 0.549401 19.6249 0.556875C17.9747 0.606216 16.4888 1.06357 14.8596 1.82489C13.2719 2.56682 11.444 3.64924 9.12478 5.02264L8.9987 5.0973C6.67944 6.47069 4.85154 7.55311 3.49519 8.55457C2.10336 9.58223 1.11052 10.5927 0.543015 11.8566C0.457047 12.0481 0.379722 12.2421 0.311197 12.4382C-0.141162 13.7326 -0.0666713 15.0257 0.318231 16.5239C0.693322 17.9839 1.39152 19.7353 2.2774 21.9575L5.36388 29.6999C6.02913 31.3686 7.9371 32.4985 10.0899 32.4985C12.8343 32.4985 15.0591 30.6851 15.0591 28.4483V24.4615C15.0591 23.527 15.9885 22.7695 17.135 22.7695H22.865C24.0115 22.7695 24.9409 23.527 24.9409 24.4615V28.4483C24.9409 30.6851 27.1657 32.4985 29.9101 32.4985C32.0629 32.4985 33.9709 31.3686 34.6361 29.6998L37.7226 21.9574C38.6085 19.7353 39.3067 17.9839 39.6818 16.5239C40.0667 15.0257 40.1412 13.7326 39.6888 12.4382C39.6203 12.2421 39.543 12.0481 39.457 11.8566C38.8895 10.5927 37.8966 9.58223 36.5048 8.55457C35.1485 7.5531 33.3206 6.47068 31.0013 5.09729L30.8752 5.02262C28.556 3.64923 26.7281 2.56681 25.1404 1.82489C23.5112 1.06357 22.0253 0.606216 20.3751 0.556875ZM19.7228 2.73088C19.9075 2.72535 20.0925 2.72535 20.2772 2.73088C21.3368 2.76256 22.392 3.04823 23.8129 3.71218C25.2609 4.38883 26.9733 5.40105 29.3694 6.81997C31.7656 8.23889 33.4758 9.25349 34.7128 10.1668C35.9267 11.0631 36.5861 11.7928 36.9505 12.6043C37.014 12.7458 37.0712 12.8892 37.1218 13.0341C37.4123 13.8652 37.405 14.7715 37.0693 16.078C36.7272 17.4096 36.0753 19.0498 35.16 21.3456L32.0977 29.0276C31.7897 29.8 30.9066 30.323 29.9101 30.323C28.6398 30.323 27.61 29.4837 27.61 28.4483V24.4615C27.61 22.3255 25.4856 20.594 22.865 20.594H17.135C14.5144 20.594 12.39 22.3255 12.39 24.4615V28.4483C12.39 29.4837 11.3602 30.323 10.0899 30.323C9.09342 30.323 8.21027 29.8 7.90235 29.0276L4.83995 21.3456C3.92472 19.0498 3.27276 17.4096 2.93067 16.078C2.59499 14.7715 2.58775 13.8652 2.87819 13.0341C2.92884 12.8892 2.98599 12.7458 3.04953 12.6043C3.41391 11.7928 4.07334 11.0631 5.28715 10.1668C6.52417 9.25349 8.23445 8.23889 10.6306 6.81997C13.0267 5.40105 14.7391 4.38883 16.1871 3.71218C17.608 3.04823 18.6632 2.76256 19.7228 2.73088Z" fill="url(#paint0_linear_3_2794)"/>
<defs>
<linearGradient id="paint0_linear_3_2794" x1="40" y1="16.8153" x2="-3.64701e-08" y2="16.8153" gradientUnits="userSpaceOnUse">
<stop stop-color="#D32A1E"/>
<stop offset="1" stop-color="#EB5E54"/>
</linearGradient>
</defs>
</svg>
