<svg width="260" height="76" viewBox="0 0 260 76" fill="none" xmlns="http://www.w3.org/2000/svg">
<path d="M258.556 67.2351C258.556 71.2852 255.247 74.5659 251.153 74.5659H8.85882C4.76681 74.5659 1.44531 71.2852 1.44531 67.2351V8.77423C1.44531 4.72601 4.76681 1.43384 8.85882 1.43384H251.151C255.247 1.43384 258.555 4.72601 258.555 8.77423L258.556 67.2351Z" fill="black"/>
<path d="M250.37 1.52237C254.829 1.52237 258.457 5.1015 258.457 9.49999V66.5C258.457 70.8985 254.829 74.4776 250.37 74.4776H9.62963C5.17111 74.4776 1.54315 70.8985 1.54315 66.5V9.49999C1.54315 5.1015 5.17111 1.52237 9.62963 1.52237H250.37ZM250.37 -5.43178e-06H9.62963C4.33574 -5.43178e-06 0 4.27737 0 9.49999V66.5C0 71.7226 4.33574 76 9.62963 76H250.37C255.664 76 260 71.7226 260 66.5V9.49999C260 4.27737 255.664 -5.43178e-06 250.37 -5.43178e-06Z" fill="white"/>
<path d="M58.0218 37.5891C57.966 31.4654 63.1044 28.4862 63.3393 28.3475C60.4292 24.1618 55.9187 23.5899 54.3337 23.5443C50.5454 23.151 46.8707 25.7806 44.9409 25.7806C42.9726 25.7806 40.0009 23.5823 36.7981 23.6469C32.6766 23.7096 28.8209 26.0637 26.7063 29.7193C22.3421 37.173 25.5969 48.1265 29.7781 54.1514C31.8697 57.1021 34.3137 60.3967 37.5126 60.2808C40.6423 60.1535 41.8113 58.3124 45.5881 58.3124C49.3301 58.3124 50.4279 60.2808 53.6904 60.2067C57.0492 60.1535 59.1639 57.2427 61.1823 54.2654C63.5993 50.8834 64.57 47.5527 64.6085 47.3817C64.5295 47.3551 58.0854 44.9288 58.0218 37.5891Z" fill="white"/>
<path d="M51.8589 19.5809C53.5421 17.5042 54.6938 14.6789 54.3741 11.8118C51.9378 11.9182 48.891 13.4743 47.1365 15.5054C45.5842 17.2952 44.1975 20.2288 44.5558 22.9876C47.2925 23.189 50.1024 21.6253 51.8589 19.5809Z" fill="white"/>
<path d="M103.317 59.8565H98.9437L96.5478 52.4294H88.2201L85.9379 59.8565H81.6797L89.9304 34.5713H95.0264L103.317 59.8565ZM95.8256 49.3134L93.6589 42.7109C93.4298 42.0364 93.0003 40.448 92.3666 37.9476H92.2896C92.0373 39.023 91.6309 40.6114 91.0724 42.7109L88.9443 49.3134H95.8256Z" fill="white"/>
<path d="M124.535 50.5162C124.535 53.617 123.685 56.068 121.987 57.8673C120.465 59.469 118.576 60.2689 116.321 60.2689C113.886 60.2689 112.138 59.4063 111.073 57.6811H110.996V67.2856H106.889V47.6263C106.889 45.6769 106.837 43.6762 106.737 41.6242H110.348L110.578 44.5141H110.655C112.024 42.3367 114.102 41.2499 116.891 41.2499C119.071 41.2499 120.891 42.0992 122.347 43.7997C123.807 45.5021 124.535 47.7403 124.535 50.5162ZM120.352 50.6644C120.352 48.8898 119.947 47.4268 119.134 46.2754C118.247 45.0746 117.054 44.4742 115.56 44.4742C114.547 44.4742 113.626 44.8086 112.804 45.4679C111.98 46.1329 111.44 47.0012 111.188 48.0766C111.061 48.5782 110.997 48.9886 110.997 49.3116V52.3516C110.997 53.6778 111.41 54.7969 112.234 55.7108C113.058 56.6247 114.129 57.0807 115.446 57.0807C116.993 57.0807 118.197 56.4917 119.057 55.3175C119.92 54.1414 120.352 52.591 120.352 50.6644Z" fill="white"/>
<path d="M145.791 50.5162C145.791 53.617 144.941 56.068 143.241 57.8673C141.721 59.469 139.832 60.2689 137.577 60.2689C135.142 60.2689 133.393 59.4063 132.33 57.6811H132.253V67.2856H128.147V47.6263C128.147 45.6769 128.095 43.6762 127.995 41.6242H131.606L131.835 44.5141H131.912C133.28 42.3367 135.358 41.2499 138.149 41.2499C140.327 41.2499 142.147 42.0992 143.607 43.7997C145.061 45.5021 145.791 47.7403 145.791 50.5162ZM141.608 50.6644C141.608 48.8898 141.201 47.4268 140.388 46.2754C139.501 45.0746 138.312 44.4742 136.816 44.4742C135.801 44.4742 134.882 44.8086 134.058 45.4679C133.234 46.1329 132.696 47.0012 132.444 48.0766C132.319 48.5782 132.253 48.9886 132.253 49.3116V52.3516C132.253 53.6778 132.665 54.7969 133.486 55.7108C134.31 56.6228 135.381 57.0807 136.702 57.0807C138.249 57.0807 139.452 56.4917 140.313 55.3175C141.176 54.1414 141.608 52.591 141.608 50.6644Z" fill="white"/>
<path d="M169.557 52.7662C169.557 54.917 168.8 56.6669 167.28 58.0178C165.61 59.4941 163.286 60.2313 160.299 60.2313C157.541 60.2313 155.33 59.7069 153.656 58.6562L154.608 55.2799C156.41 56.3553 158.388 56.8949 160.543 56.8949C162.09 56.8949 163.294 56.5491 164.158 55.8613C165.019 55.1735 165.449 54.2501 165.449 53.0987C165.449 52.0727 165.094 51.2082 164.384 50.5071C163.677 49.806 162.496 49.1543 160.848 48.552C156.36 46.9009 154.118 44.4822 154.118 41.3016C154.118 39.223 154.904 37.5187 156.478 36.1925C158.045 34.8644 160.137 34.2013 162.752 34.2013C165.085 34.2013 167.022 34.6022 168.569 35.4021L167.542 38.7043C166.098 37.9291 164.465 37.5415 162.637 37.5415C161.192 37.5415 160.064 37.893 159.255 38.5922C158.571 39.2173 158.228 39.9792 158.228 40.8817C158.228 41.8811 158.619 42.7076 159.405 43.3574C160.089 43.9578 161.331 44.6076 163.134 45.3087C165.339 46.1846 166.959 47.2087 168.001 48.3829C169.039 49.5533 169.557 51.0182 169.557 52.7662Z" fill="white"/>
<path d="M183.134 44.664H178.608V53.5161C178.608 55.7676 179.405 56.8924 181.004 56.8924C181.738 56.8924 182.346 56.8297 182.828 56.7043L182.941 59.7804C182.133 60.0787 181.067 60.2288 179.748 60.2288C178.127 60.2288 176.859 59.7405 175.945 58.7658C175.034 57.7892 174.575 56.1514 174.575 53.8505V44.6602H171.879V41.6202H174.575V38.2819L178.608 37.0811V41.6202H183.134V44.664Z" fill="white"/>
<path d="M203.556 50.5906C203.556 53.3931 202.743 55.694 201.122 57.4933C199.421 59.3458 197.164 60.2692 194.35 60.2692C191.638 60.2692 189.479 59.3819 187.869 57.6073C186.259 55.8327 185.454 53.5926 185.454 50.8927C185.454 48.0674 186.282 45.7532 187.944 43.9539C189.603 42.1527 191.84 41.2521 194.654 41.2521C197.366 41.2521 199.548 42.1394 201.195 43.9159C202.77 45.6392 203.556 47.8641 203.556 50.5906ZM199.296 50.7217C199.296 49.0402 198.932 47.5981 198.194 46.3954C197.333 44.94 196.103 44.2142 194.508 44.2142C192.857 44.2142 191.604 44.9419 190.743 46.3954C190.005 47.6 189.641 49.0649 189.641 50.7977C189.641 52.4792 190.005 53.9213 190.743 55.1221C191.631 56.5775 192.871 57.3033 194.471 57.3033C196.039 57.3033 197.27 56.5623 198.158 55.0841C198.914 53.8586 199.296 52.4013 199.296 50.7217Z" fill="white"/>
<path d="M216.898 45.1867C216.492 45.1126 216.059 45.0746 215.604 45.0746C214.16 45.0746 213.043 45.6123 212.257 46.6896C211.573 47.6396 211.23 48.8404 211.23 50.2901V59.8566H207.126L207.165 47.366C207.165 45.2646 207.113 43.3513 207.011 41.6261H210.587L210.737 45.1145H210.851C211.284 43.9156 211.968 42.9504 212.904 42.2265C213.819 41.5748 214.807 41.2499 215.872 41.2499C216.251 41.2499 216.594 41.2765 216.898 41.324V45.1867Z" fill="white"/>
<path d="M235.264 49.878C235.264 50.6038 235.216 51.2156 235.114 51.7153H222.796C222.844 53.5165 223.439 54.894 224.583 55.844C225.621 56.6933 226.963 57.1189 228.612 57.1189C230.436 57.1189 232.1 56.832 233.596 56.2563L234.24 59.0683C232.491 59.8207 230.426 60.195 228.044 60.195C225.178 60.195 222.929 59.3628 221.292 57.7003C219.658 56.0378 218.84 53.8053 218.84 51.0047C218.84 48.2554 219.601 45.9659 221.124 44.14C222.719 42.1906 224.874 41.2159 227.585 41.2159C230.249 41.2159 232.265 42.1906 233.635 44.14C234.719 45.6885 235.264 47.6037 235.264 49.878ZM231.349 48.8273C231.376 47.6265 231.108 46.5891 230.551 45.7132C229.841 44.5865 228.749 44.0241 227.279 44.0241C225.937 44.0241 224.845 44.5732 224.011 45.6752C223.327 46.5511 222.921 47.6018 222.796 48.8254H231.349V48.8273Z" fill="white"/>
<path d="M94.4671 19.0152C94.4671 21.2515 93.7873 22.9349 92.4295 24.0654C91.1719 25.1085 89.3846 25.631 87.0696 25.631C85.9218 25.631 84.9396 25.5816 84.1172 25.4828V13.2639C85.1899 13.0929 86.3455 13.0055 87.5935 13.0055C89.7987 13.0055 91.4608 13.4786 92.5816 14.4248C93.8373 15.4945 94.4671 17.024 94.4671 19.0152ZM92.339 19.0703C92.339 17.6206 91.9499 16.5091 91.1719 15.7339C90.3938 14.9606 89.2575 14.573 87.761 14.573C87.1255 14.573 86.5843 14.6148 86.1356 14.7022V23.9913C86.384 24.0293 86.8385 24.0464 87.4991 24.0464C89.0437 24.0464 90.2359 23.6227 91.0756 22.7753C91.9153 21.9279 92.339 20.6929 92.339 19.0703Z" fill="white"/>
<path d="M105.753 20.9678C105.753 22.3453 105.355 23.4739 104.557 24.3593C103.721 25.2694 102.614 25.7235 101.231 25.7235C99.8985 25.7235 98.8373 25.2884 98.0458 24.4144C97.2561 23.5423 96.8613 22.4422 96.8613 21.116C96.8613 19.729 97.2677 18.5909 98.0843 17.7074C98.9009 16.8239 99.9987 16.3812 101.381 16.3812C102.714 16.3812 103.785 16.8163 104.596 17.6884C105.366 18.5358 105.753 19.6302 105.753 20.9678ZM103.66 21.0324C103.66 20.2059 103.479 19.4972 103.119 18.9063C102.695 18.1919 102.092 17.8347 101.308 17.8347C100.497 17.8347 99.8812 18.1919 99.4575 18.9063C99.0954 19.4972 98.9163 20.2173 98.9163 21.0685C98.9163 21.895 99.0973 22.6037 99.4575 23.1946C99.8947 23.909 100.503 24.2662 101.289 24.2662C102.059 24.2662 102.664 23.9033 103.099 23.1756C103.473 22.5733 103.66 21.8589 103.66 21.0324Z" fill="white"/>
<path d="M120.884 16.5645L118.043 25.5211H116.194L115.017 21.6318C114.719 20.6609 114.476 19.6957 114.287 18.7381H114.251C114.075 19.7223 113.833 20.6856 113.521 21.6318L112.271 25.5211H110.401L107.729 16.5645H109.804L110.83 20.8224C111.079 21.8294 111.283 22.7889 111.447 23.6971H111.483C111.633 22.9485 111.882 21.9947 112.232 20.8414L113.521 16.5664H115.165L116.4 20.7502C116.699 21.7705 116.941 22.7528 117.128 23.699H117.184C117.321 22.7775 117.527 21.7952 117.8 20.7502L118.902 16.5664H120.884V16.5645Z" fill="white"/>
<path d="M131.347 25.5207H129.328V20.3907C129.328 18.8099 128.72 18.0195 127.499 18.0195C126.9 18.0195 126.416 18.2361 126.041 18.6712C125.669 19.1063 125.48 19.6193 125.48 20.2064V25.5188H123.462V19.1234C123.462 18.3368 123.437 17.4837 123.389 16.5603H125.162L125.257 17.9606H125.313C125.548 17.5255 125.898 17.1664 126.358 16.8795C126.905 16.5451 127.518 16.376 128.188 16.376C129.035 16.376 129.74 16.6458 130.301 17.1873C130.998 17.8504 131.347 18.8403 131.347 20.1551V25.5207Z" fill="white"/>
<path d="M136.912 25.5206H134.896V12.4543H136.912V25.5206Z" fill="white"/>
<path d="M148.794 20.9678C148.794 22.3453 148.396 23.4739 147.598 24.3593C146.762 25.2694 145.653 25.7235 144.272 25.7235C142.938 25.7235 141.876 25.2884 141.087 24.4144C140.297 23.5423 139.902 22.4422 139.902 21.116C139.902 19.729 140.309 18.5909 141.125 17.7074C141.942 16.8239 143.04 16.3812 144.421 16.3812C145.755 16.3812 146.824 16.8163 147.637 17.6884C148.407 18.5358 148.794 19.6302 148.794 20.9678ZM146.699 21.0324C146.699 20.2059 146.518 19.4972 146.158 18.9063C145.736 18.1919 145.131 17.8347 144.349 17.8347C143.537 17.8347 142.92 18.1919 142.498 18.9063C142.136 19.4972 141.957 20.2173 141.957 21.0685C141.957 21.895 142.138 22.6037 142.498 23.1946C142.936 23.909 143.544 24.2662 144.33 24.2662C145.1 24.2662 145.703 23.9033 146.138 23.1756C146.514 22.5733 146.699 21.8589 146.699 21.0324Z" fill="white"/>
<path d="M158.565 25.5202H156.752L156.602 24.4885H156.546C155.926 25.3112 155.042 25.7235 153.894 25.7235C153.037 25.7235 152.344 25.4518 151.822 24.9122C151.348 24.422 151.111 23.8121 151.111 23.0882C151.111 21.9938 151.574 21.1597 152.504 20.5821C153.432 20.0045 154.738 19.7214 156.419 19.7347V19.5675C156.419 18.3876 155.791 17.7986 154.534 17.7986C153.638 17.7986 152.849 18.0209 152.167 18.4617L151.757 17.1545C152.6 16.6396 153.642 16.3812 154.871 16.3812C157.243 16.3812 158.434 17.6162 158.434 20.0862V23.3846C158.434 24.2795 158.478 24.992 158.565 25.5202ZM156.469 22.4422V21.0609C154.243 21.0229 153.13 21.6252 153.13 22.8659C153.13 23.3333 153.257 23.6829 153.517 23.9166C153.777 24.1503 154.108 24.2662 154.503 24.2662C154.946 24.2662 155.36 24.1275 155.737 23.852C156.117 23.5746 156.35 23.2231 156.437 22.7918C156.458 22.6949 156.469 22.5771 156.469 22.4422Z" fill="white"/>
<path d="M170.03 25.5206H168.239L168.144 24.0823H168.089C167.517 25.1767 166.542 25.7239 165.173 25.7239C164.079 25.7239 163.168 25.3002 162.446 24.4528C161.723 23.6054 161.363 22.5053 161.363 21.1544C161.363 19.7047 161.754 18.5305 162.54 17.6337C163.301 16.7977 164.233 16.3797 165.342 16.3797C166.561 16.3797 167.415 16.7844 167.9 17.5957H167.938V12.4543H169.959V23.1076C169.959 23.9797 169.982 24.7834 170.03 25.5206ZM167.938 21.7434V20.25C167.938 19.9916 167.919 19.7826 167.883 19.623C167.769 19.1442 167.524 18.7414 167.153 18.4165C166.777 18.0916 166.324 17.9282 165.803 17.9282C165.049 17.9282 164.46 18.2227 164.027 18.8136C163.597 19.4045 163.38 20.1588 163.38 21.0803C163.38 21.9657 163.586 22.6839 164 23.2368C164.437 23.8258 165.026 24.1203 165.764 24.1203C166.427 24.1203 166.956 23.8752 167.359 23.3831C167.748 22.929 167.938 22.3818 167.938 21.7434Z" fill="white"/>
<path d="M187.295 20.9678C187.295 22.3453 186.897 23.4739 186.099 24.3593C185.263 25.2694 184.158 25.7235 182.773 25.7235C181.442 25.7235 180.381 25.2884 179.588 24.4144C178.798 23.5423 178.403 22.4422 178.403 21.116C178.403 19.729 178.81 18.5909 179.626 17.7074C180.443 16.8239 181.541 16.3812 182.925 16.3812C184.256 16.3812 185.329 16.8163 186.138 17.6884C186.908 18.5358 187.295 19.6302 187.295 20.9678ZM185.204 21.0324C185.204 20.2059 185.023 19.4972 184.663 18.9063C184.237 18.1919 183.636 17.8347 182.85 17.8347C182.041 17.8347 181.425 18.1919 180.999 18.9063C180.637 19.4972 180.458 20.2173 180.458 21.0685C180.458 21.895 180.639 22.6037 180.999 23.1946C181.437 23.909 182.045 24.2662 182.831 24.2662C183.601 24.2662 184.208 23.9033 184.643 23.1756C185.015 22.5733 185.204 21.8589 185.204 21.0324Z" fill="white"/>
<path d="M198.148 25.5207H196.132V20.3907C196.132 18.8099 195.523 18.0195 194.3 18.0195C193.701 18.0195 193.218 18.2361 192.844 18.6712C192.471 19.1063 192.284 19.6193 192.284 20.2064V25.5188H190.264V19.1234C190.264 18.3368 190.241 17.4837 190.192 16.5603H191.964L192.059 17.9606H192.114C192.351 17.5255 192.702 17.1664 193.16 16.8795C193.709 16.5451 194.32 16.376 194.992 16.376C195.837 16.376 196.542 16.6458 197.103 17.1873C197.802 17.8504 198.148 18.8403 198.148 20.1551V25.5207Z" fill="white"/>
<path d="M211.728 18.0558H209.505V22.4068C209.505 23.5126 209.9 24.0655 210.682 24.0655C211.044 24.0655 211.344 24.0351 211.581 23.9724L211.633 25.4829C211.235 25.6311 210.711 25.7052 210.065 25.7052C209.268 25.7052 208.648 25.4658 208.199 24.987C207.749 24.5082 207.525 23.7026 207.525 22.5721V18.0558H206.198V16.5643H207.525V14.9227L209.503 14.3337V16.5624H211.726V18.0558H211.728Z" fill="white"/>
<path d="M222.412 25.5206H220.392V20.4286C220.392 18.8231 219.783 18.0194 218.564 18.0194C217.628 18.0194 216.989 18.4849 216.638 19.4159C216.578 19.6116 216.544 19.851 216.544 20.1322V25.5188H214.527V12.4543H216.544V17.8522H216.582C217.218 16.8699 218.129 16.3797 219.309 16.3797C220.145 16.3797 220.837 16.6495 221.386 17.191C222.069 17.8655 222.412 18.8687 222.412 20.1949V25.5206Z" fill="white"/>
<path d="M233.437 20.6181C233.437 20.9753 233.41 21.2755 233.362 21.5206H227.308C227.335 22.406 227.624 23.0805 228.185 23.5479C228.697 23.9659 229.358 24.1749 230.167 24.1749C231.062 24.1749 231.879 24.0343 232.614 23.7512L232.93 25.1344C232.069 25.503 231.056 25.6873 229.883 25.6873C228.478 25.6873 227.37 25.2788 226.569 24.4618C225.764 23.6448 225.365 22.5485 225.365 21.1729C225.365 19.822 225.737 18.6972 226.486 17.8004C227.268 16.8428 228.325 16.364 229.66 16.364C230.966 16.364 231.958 16.8428 232.628 17.8004C233.169 18.5604 233.437 19.5009 233.437 20.6181ZM231.511 20.1032C231.526 19.5123 231.393 19.0031 231.12 18.5737C230.769 18.0208 230.236 17.7434 229.514 17.7434C228.855 17.7434 228.318 18.0132 227.907 18.5547C227.572 18.986 227.374 19.5009 227.308 20.1032H231.511Z" fill="white"/>
</svg>
