<svg width="50" height="50" viewBox="0 0 50 50" fill="none" xmlns="http://www.w3.org/2000/svg">
<g clip-path="url(#clip0_22_5515)">
<circle cx="25" cy="25" r="25" fill="white"/>
<g clip-path="url(#clip1_22_5515)">
<g opacity="0.6">
<path fill-rule="evenodd" clip-rule="evenodd" d="M26.6966 49.9513C26.787 49.896 26.8944 49.7902 26.9353 49.7161C27.0309 49.5425 27.2068 48.5927 27.1652 48.4745C27.1477 48.4249 27.1873 48.4747 27.2533 48.5854C27.3314 48.7164 27.4202 48.8023 27.5078 48.8316C27.6833 48.8904 27.6635 48.8281 27.4212 48.5592L27.2227 48.339L27.3261 48.0304C27.4308 47.7176 27.7169 47.1866 27.8467 47.064C27.8987 47.0149 27.9032 46.985 27.8635 46.9522C27.7917 46.893 27.7724 46.9201 27.4369 47.5513C27.2787 47.8488 27.1134 48.1109 27.0696 48.1335C27.0257 48.1563 26.8681 48.1499 26.7194 48.1193C26.5706 48.0888 26.4748 48.086 26.5065 48.1132C26.599 48.1923 26.9312 48.3228 26.9439 48.2849C26.9503 48.2659 26.9741 48.2565 26.9967 48.2641C27.0194 48.2717 26.9221 48.3896 26.7805 48.5262C26.5463 48.752 26.5156 48.8018 26.4399 49.0783C26.3476 49.4154 26.3251 49.4335 26.3545 49.1472C26.3799 48.9008 26.5512 48.5928 26.7343 48.4644C26.9049 48.3447 26.8992 48.3198 26.6952 48.2941C26.5674 48.278 26.5106 48.3058 26.3795 48.4488C26.0504 48.8077 25.9692 49.384 26.1888 49.8026C26.2737 49.9643 26.2867 49.9729 26.3784 49.9271C26.4675 49.8827 26.4796 49.8863 26.5045 49.9649C26.5286 50.0407 26.5532 50.039 26.6966 49.9513ZM26.3891 49.6461C26.3793 49.5884 26.3814 49.5445 26.3936 49.5486C26.4058 49.5526 26.4238 49.6033 26.4336 49.661C26.4434 49.7188 26.4414 49.7627 26.4292 49.7586C26.4169 49.7545 26.3989 49.7039 26.3891 49.6461ZM30.0747 48.9197C30.2494 48.8809 30.4509 48.8224 30.5224 48.7896C30.7197 48.6993 30.9234 48.4273 30.9604 48.2048C31.0136 47.8852 30.998 47.552 30.9246 47.434C30.7608 47.171 30.5037 46.6296 30.4852 46.509C30.4366 46.1921 30.4817 46.1622 30.5596 46.4596C30.6713 46.8863 30.9249 47.3294 31.2173 47.6094C31.5321 47.9107 31.7849 47.9641 32.1153 47.7992C32.3079 47.7031 32.3497 47.6587 32.4046 47.492C32.5808 46.9569 32.3256 46.5183 31.62 46.1434C31.4468 46.0513 31.3335 45.9757 31.3683 45.9752C31.4031 45.9749 31.6 45.86 31.8056 45.72C32.0114 45.58 32.2867 45.4186 32.4176 45.3614C32.9007 45.1501 33.472 45.1365 34.1226 45.3206C34.841 45.5239 35.6952 45.5924 35.9218 45.4649C35.9756 45.4346 36.1093 45.2847 36.2189 45.1319C36.8197 44.2938 37.6375 43.7743 38.7953 43.495C39.1016 43.4211 39.4729 43.3171 39.6204 43.2639C39.7679 43.2106 39.8957 43.1695 39.9043 43.1724C39.913 43.1753 39.8464 43.4132 39.7563 43.7011C39.609 44.1724 39.5589 44.4085 39.5276 44.7804C39.5182 44.8924 39.5108 44.8864 39.4215 44.6943C39.3687 44.5807 39.2932 44.3993 39.2537 44.2912L39.1818 44.0948L39.1435 44.3049C39.0978 44.5553 39.1106 44.6695 39.2081 44.884L39.2813 45.0447L38.9819 44.9445C38.5381 44.7959 38.0873 44.9015 37.9041 45.197C37.837 45.3053 37.8402 45.3157 37.9425 45.322C38.0039 45.3257 38.0973 45.3429 38.15 45.3603C38.2112 45.3803 38.296 45.3483 38.384 45.2718C38.5252 45.1492 38.9072 45.0662 39.0664 45.1236C39.1142 45.1408 39.0698 45.156 38.9654 45.1581C38.6878 45.1637 38.53 45.2173 38.4126 45.3461C38.336 45.4301 38.2765 45.4518 38.1953 45.4254C38.0336 45.3728 37.6689 45.4211 37.5777 45.5073C37.4504 45.6275 37.3857 45.8959 37.4342 46.1029C37.4589 46.2087 37.463 46.3799 37.4432 46.4834C37.4089 46.6629 37.4145 46.6739 37.5632 46.722C37.649 46.7498 37.7695 46.7719 37.831 46.7712C37.9295 46.77 37.9379 46.7848 37.9017 46.8957C37.8791 46.9649 37.871 47.1222 37.8837 47.2452C37.8963 47.3683 37.8875 47.5262 37.864 47.5961C37.8406 47.6661 37.8498 47.8383 37.8844 47.9788C37.919 48.1194 37.9347 48.2718 37.9194 48.3177C37.8973 48.3836 37.9146 48.4016 38.0019 48.4037C38.2176 48.4088 38.4191 48.3593 38.7107 48.2299C38.8731 48.1577 38.9665 48.125 38.9181 48.1572C38.7518 48.2679 38.866 48.2863 39.1511 48.1947C40.0963 47.8913 40.6318 47.0255 40.3324 46.2845L40.2533 46.0886L40.2571 46.246C40.2651 46.5722 39.8542 47.0404 39.296 47.3411C39.1067 47.4431 39.0748 47.4361 39.0858 47.2953C39.0904 47.2353 39.0451 47.036 38.9852 46.8522C38.9252 46.6685 38.8842 46.4542 38.894 46.376C38.911 46.2397 38.9122 46.2391 38.9226 46.3614C38.9285 46.4316 38.985 46.6802 39.048 46.9139L39.1627 47.3388L39.3579 47.2199C39.7431 46.9853 39.9893 46.7398 40.105 46.4751C40.2068 46.2424 40.209 46.2046 40.136 45.9502C40.0927 45.7995 40.0105 45.6146 39.9532 45.5393L39.8492 45.4024L40.0245 45.3022C40.2092 45.1967 40.2999 45.0775 40.1517 45.135C40.1071 45.1523 39.9861 45.1312 39.8828 45.0881L39.6951 45.0099L39.6955 44.6642C39.696 44.2099 39.8232 43.5933 39.977 43.2999C40.0428 43.1743 40.1187 43.0723 40.1456 43.0731C40.1726 43.0739 40.2431 43.2624 40.3023 43.4919C40.5216 44.3409 40.7033 44.6773 41.05 44.8762C41.2405 44.9855 41.2105 44.8873 40.9593 44.5803C40.5695 44.104 40.4536 43.7464 40.5217 43.2305C40.5926 42.6934 40.6599 42.533 40.9063 42.3145C41.4305 41.8499 41.9691 41.6696 42.4007 41.8141C42.5602 41.8675 42.6724 41.938 42.7539 42.0361C42.8901 42.1999 42.9713 42.5413 42.9145 42.711C42.8771 42.8226 42.8865 42.8223 43.296 42.6957C43.5269 42.6243 43.9219 42.5401 44.1737 42.5086C44.5299 42.4641 44.646 42.4287 44.6966 42.3493C44.9619 41.9337 45.2778 41.5259 45.5008 41.3112C45.7835 41.0391 46.2432 40.785 46.4831 40.7682C46.5827 40.7612 46.65 40.7211 46.6888 40.6457C46.7206 40.5841 46.7078 40.6593 46.6605 40.8127C46.5855 41.0562 46.5854 41.118 46.6601 41.2963C46.9127 41.8991 47.6641 42.6039 48.5514 43.0703C48.6644 43.1297 48.6996 43.1711 48.6688 43.2083C48.6106 43.2791 47.9765 43.7224 47.4722 44.045C46.9052 44.4077 46.7042 44.6316 46.6288 44.9841C46.5112 45.5344 46.5895 45.9379 46.9083 46.4231C47.0329 46.6129 47.1135 46.8 47.1252 46.9267L47.1438 47.1284L47.3567 47.0353C47.4737 46.9841 47.7147 46.9015 47.8921 46.8516C48.3362 46.7268 48.6981 46.5183 48.8388 46.3061C49.0667 45.9626 49.0947 45.3693 48.9299 44.3737C48.8761 44.0491 48.8427 43.7872 48.8556 43.7915C48.8975 43.8055 49.0827 44.8432 49.1112 45.2243C49.1301 45.4761 49.112 45.6984 49.0551 45.9144C48.959 46.2799 48.9776 46.4174 49.1428 46.5611C49.3117 46.7082 49.4203 46.7013 50.0791 46.502C50.404 46.4038 50.739 46.3181 50.8236 46.3117L50.9774 46.3001L51.1625 45.7974C51.2849 45.4646 51.3404 45.2561 51.3267 45.1804C51.2912 44.9844 51.0617 44.6803 50.6003 44.2178C50.3557 43.9727 50.201 43.8031 50.2564 43.8409C50.3672 43.9166 51.0772 44.618 51.134 44.708C51.1551 44.7415 51.2279 44.7653 51.3124 44.7666C51.3909 44.7677 51.5323 44.781 51.6267 44.7961C51.9192 44.8431 51.9607 44.6775 51.8365 43.959L51.7691 43.5688L51.9321 43.1816C52.087 42.8136 52.0916 42.7875 52.0256 42.6547C51.9277 42.4579 51.5531 42.1678 51.2784 42.0761C51.0169 41.9887 50.8746 42.0093 50.4354 42.1977C50.0542 42.3613 49.8511 42.4185 49.5699 42.4417L49.3373 42.4609L49.4196 42.3604C49.5416 42.2114 49.4964 42.1923 49.3707 42.3397C49.2502 42.4812 48.812 42.8337 48.8324 42.7728C48.8396 42.7513 48.9401 42.6547 49.0556 42.558C49.7429 41.9831 49.9568 41.2989 49.6096 40.7864C49.4969 40.62 49.4648 40.603 48.7211 40.3144C48.2096 40.1159 47.8905 40.0126 47.7743 40.0079C47.4778 39.9959 47.1485 40.1291 46.9457 40.3432C46.844 40.4505 46.7692 40.5125 46.7796 40.4808C46.8553 40.2488 47.4324 39.9334 47.7468 39.9522C47.93 39.9632 48.1493 39.9125 48.1234 39.8651C48.1149 39.8497 47.9662 39.8239 47.7928 39.8078C47.5089 39.7813 47.4621 39.7921 47.3221 39.9164C47.0385 40.1682 46.9343 40.1612 46.0973 39.8342C45.9576 39.7796 45.9039 39.7905 45.6724 39.9206C45.4629 40.0383 45.3628 40.0635 45.1942 40.041C44.6592 39.9694 43.6943 39.5547 43.4357 39.2851C43.2955 39.1389 43.2752 38.6143 43.4024 38.4252C43.4555 38.3462 43.4848 38.2661 43.4679 38.2458C43.4343 38.2054 43.2513 38.4558 43.197 38.6168C43.178 38.673 43.1736 38.791 43.1872 38.8789C43.2008 38.9668 43.1856 39.0799 43.1535 39.1301C43.0977 39.2175 43.1216 39.2377 43.68 39.5778C44.47 40.059 44.9566 40.2914 45.206 40.3069C45.3921 40.3185 45.398 40.3227 45.3401 40.4037C44.9503 40.9498 43.9496 41.6074 43.5852 41.557C43.4958 41.5447 43.1051 41.392 42.717 41.2178C42.3288 41.0436 41.5146 40.6826 40.9076 40.4157C39.7134 39.8904 39.5619 39.7934 39.377 39.4358C39.1267 38.9516 38.9661 38.3231 38.9653 37.8248C38.9648 37.4741 39.0489 37.1641 39.3164 36.5303C39.4426 36.2313 39.5039 36.037 39.492 35.9739C39.4712 35.8638 39.5124 35.8031 39.0733 36.591C38.9193 36.8672 38.803 37.1253 38.7921 37.2152C38.7513 37.5487 38.7572 38.1671 38.8032 38.3877C38.8664 38.6916 38.83 38.6986 38.2299 38.4987C37.9688 38.4116 37.5881 38.3183 37.3838 38.2913C37.1795 38.2643 36.8364 38.18 36.6212 38.104C36.1067 37.9224 36.0755 37.9371 35.9056 38.4413C35.7686 38.8479 35.7814 38.947 35.9338 38.6595C36.0564 38.4285 36.1925 38.2973 36.3792 38.2304C36.5154 38.1817 36.5657 38.1918 36.925 38.34C37.2215 38.4624 37.3958 38.5083 37.6196 38.5232C38.505 38.582 38.8907 38.8269 38.9442 39.3641C38.9897 39.8214 39.4925 40.3063 40.1552 40.532C40.6129 40.6878 40.7797 40.8058 40.889 41.051C40.981 41.2575 40.9803 41.2692 40.8598 41.5269C40.792 41.6723 40.6696 41.858 40.5879 41.9397C40.2431 42.2847 39.4294 42.7601 38.4331 43.1985C38.0898 43.3496 37.6583 43.5818 37.4743 43.7146C36.9168 44.1167 36.8557 44.1336 36.4552 43.9981C36.2034 43.913 36.0579 43.8344 35.9025 43.6996C35.6573 43.4869 35.1611 42.8418 34.8512 42.3327C34.5735 41.8767 34.5532 41.849 34.5112 41.87C34.4762 41.8874 34.7091 42.3529 35.0235 42.8937C35.2765 43.329 35.5676 43.5985 36.2859 44.0626L36.6399 44.2914L36.2888 44.5913C36.0956 44.7563 35.8538 44.946 35.7513 45.0129C35.4913 45.1826 35.0126 45.2368 34.5513 45.1487C33.4945 44.9468 33.2847 44.9232 32.9613 44.9699C32.6317 45.0174 31.315 45.519 31.0332 45.7044C30.9518 45.7579 30.8698 45.7829 30.8507 45.7601C30.8318 45.7373 31.0706 45.5868 31.3816 45.4257C32.0554 45.0767 32.1814 44.9675 32.2957 44.6327C32.4647 44.1384 32.201 43.5663 31.7097 43.3613C31.4837 43.2669 31.4198 43.2597 31.2383 43.3084C30.9761 43.3788 30.7314 43.6223 30.5829 43.9608L30.4714 44.2148L30.3253 43.999C30.0047 43.5255 29.3135 43.2396 28.9213 43.4183C28.7771 43.484 28.6473 43.8262 28.6664 44.0902C28.7018 44.5796 29.201 45.2202 29.6902 45.4039C29.7506 45.4266 29.6658 45.4305 29.5018 45.4125C29.0994 45.3685 28.7186 45.4409 28.3237 45.6364C27.9516 45.8206 27.8139 45.9824 27.6742 46.3994L27.5839 46.6691L27.7902 46.8289C28.1124 47.0784 28.6758 47.2464 29.0388 47.2014C29.4217 47.1539 29.52 47.1114 29.611 46.9541C29.6565 46.8754 29.6279 47.0022 29.5415 47.2624C29.4152 47.6423 29.3991 47.7444 29.4267 47.9878C29.4606 48.2871 29.6599 48.9577 29.721 48.9782C29.7409 48.9848 29.9 48.9585 30.0747 48.9197ZM26.7423 46.5342C26.7975 46.4708 26.9362 46.3612 27.0506 46.2907C27.1651 46.2201 27.2717 46.1236 27.2876 46.0761C27.3386 45.9239 27.2946 45.6508 27.1768 45.3877L27.0622 45.1317L27.4305 45.3746C27.6346 45.5091 27.851 45.6214 27.9159 45.6264C28.049 45.6367 28.3457 45.4141 28.533 45.1633L28.6573 44.9968L28.5452 44.7869C28.4834 44.6714 28.4464 44.5368 28.4628 44.4877C28.5425 44.2498 28.2958 43.9263 27.9436 43.8067C27.7597 43.7442 27.7031 43.7521 27.3767 43.8855C27.1774 43.9671 26.9337 44.0737 26.8354 44.1225C26.5968 44.2411 26.7745 44.1123 27.1042 43.9278C27.3597 43.7848 27.8673 43.3104 27.9139 43.171C27.954 43.0514 27.7918 42.711 27.5928 42.4968C27.4328 42.3246 27.39 42.2984 27.3319 42.3368C27.2914 42.3636 27.2057 42.3574 27.1267 42.3222C26.8257 42.1877 26.3746 42.5647 26.3013 43.0118C26.2761 43.1655 26.2701 43.1711 26.2205 43.0861C26.0382 42.7732 25.7155 42.6183 25.3816 42.6835C25.1492 42.7289 24.9145 42.9062 24.9986 42.973C25.0314 42.9992 25.0125 43.1164 24.9407 43.3312C24.8165 43.7026 24.8453 43.9529 25.0295 44.1032L25.1431 44.1959L24.9857 44.1948C24.6416 44.1924 24.4195 44.5132 24.3859 45.0612C24.3769 45.2081 24.3523 45.3807 24.3312 45.4447C24.2956 45.5527 24.3097 45.5689 24.5237 45.666C24.6508 45.7237 24.8414 45.8388 24.9474 45.9219C25.0655 46.0144 25.1904 46.0767 25.2701 46.0829C25.4503 46.0968 25.674 45.8651 25.8288 45.5043C25.8972 45.3449 26.0016 45.1637 26.0608 45.1018C26.1199 45.0399 26.1424 45.0251 26.1107 45.069C26.079 45.1129 25.9973 45.2802 25.9293 45.441L25.8056 45.7332L25.9209 45.9629C26.0042 46.1289 26.1202 46.2559 26.3391 46.421L26.6421 46.6495L26.7423 46.5342ZM26.2473 44.8785C26.3059 44.8496 26.3092 44.8564 26.2639 44.9118C26.2324 44.9502 26.1993 44.9666 26.1902 44.9482C26.181 44.93 26.2067 44.8986 26.2473 44.8785ZM30.4221 45.6857C30.2848 45.6244 30.2847 45.6236 30.3599 45.3027C30.4014 45.1259 30.4323 44.9173 30.4285 44.8394C30.4197 44.6589 30.4533 44.5621 30.4799 44.6913C30.491 44.7454 30.4773 44.9749 30.4495 45.2013L30.3989 45.613L30.5391 45.6594C30.6382 45.6923 30.6667 45.7211 30.6364 45.758C30.6127 45.7867 30.5653 45.8825 30.5309 45.971C30.4687 46.1311 30.4686 46.1309 30.5141 45.9394C30.5563 45.7609 30.5497 45.7426 30.4221 45.6857ZM26.4018 44.5843C26.4123 44.5537 26.3544 44.4108 26.2732 44.2666L26.1255 44.0045L26.2797 44.2193C26.4728 44.4881 26.5538 44.6971 26.4517 44.6629C26.4138 44.6503 26.3914 44.6149 26.4018 44.5843ZM25.3951 44.2236C25.4894 44.2445 25.6497 44.298 25.7512 44.3425C25.8527 44.387 25.7755 44.3698 25.5796 44.3044C25.3838 44.239 25.3008 44.2026 25.3951 44.2236ZM29.867 45.4272C29.9012 45.4251 29.9616 45.4445 30.0011 45.4703C30.0406 45.4961 30.0126 45.4978 29.9389 45.4741C29.8651 45.4504 29.8328 45.4293 29.867 45.4272ZM39.0445 48.0104C39.0716 47.9774 39.1002 47.9632 39.1079 47.9788C39.1157 47.9943 39.1017 48.0241 39.0768 48.0448C39.0091 48.1012 38.9881 48.0788 39.0445 48.0104ZM30.4669 44.3135C30.493 44.2828 30.5 44.2969 30.4847 44.3495C30.4709 44.3971 30.4516 44.4198 30.4418 44.4001C30.432 44.3804 30.4433 44.3414 30.4669 44.3135ZM37.9325 46.6031C37.9308 46.5635 37.961 46.4008 37.9997 46.2416L38.07 45.9521L38.0351 46.2498C37.9943 46.598 38.0015 46.6229 38.1367 46.5999C38.3178 46.569 38.7572 46.5544 38.7488 46.5796C38.7408 46.6036 38.0214 46.6985 37.9648 46.683C37.9487 46.6787 37.9342 46.6426 37.9325 46.6031ZM28.9454 42.8988C29.236 42.8515 29.6616 42.6811 29.6883 42.6013C29.7322 42.4703 28.81 41.7898 28.594 41.7938C28.5413 41.7948 28.3871 41.8554 28.2513 41.9285C28.0471 42.0384 27.9761 42.052 27.8415 42.0069C27.7049 41.9612 27.6735 41.9677 27.6468 42.0474C27.6032 42.1776 27.7853 42.5006 27.9798 42.6378C28.2483 42.8272 28.6755 42.9427 28.9454 42.8988ZM42.233 47.0886L42.4494 47.085L42.3082 46.7957L42.167 46.5064L41.8097 46.3857C41.4312 46.2578 41.1868 46.0804 41.1114 45.8789C41.0845 45.8069 41.1073 45.8237 41.184 45.9325C41.2826 46.0721 41.3508 46.1113 41.7584 46.2628L42.2209 46.4347L42.1275 46.1461C42.0739 45.9805 41.9577 45.771 41.8547 45.6543C41.633 45.4029 41.6895 45.407 41.9207 45.6591C42.0908 45.8446 42.2789 46.3047 42.2381 46.4357C42.2259 46.4749 42.2656 46.5925 42.3263 46.697L42.4367 46.8869L42.6218 46.8442C42.7235 46.8207 42.8111 46.801 42.8163 46.8004C42.8215 46.7999 42.8558 46.6503 42.8925 46.4679C42.9807 46.0285 42.9081 45.5822 42.6831 45.182C42.4764 44.8143 42.1916 44.524 42.0424 44.5286C41.8906 44.5334 41.8662 44.5988 41.9956 44.6543C42.1933 44.7393 42.3599 44.9401 42.5055 45.2691C42.6634 45.6257 42.6989 45.8765 42.6208 46.0823C42.5733 46.2073 42.5712 46.2026 42.5977 46.0313C42.6409 45.7523 42.5933 45.553 42.4006 45.2058C42.1277 44.7141 41.8364 44.5664 41.4851 44.7417C41.3262 44.821 41.3087 44.8471 41.2482 45.0934C41.2057 45.2668 41.1866 45.3089 41.1934 45.2143C41.2035 45.0757 41.2009 45.0732 41.1364 45.1581C41.0993 45.207 41.0246 45.2545 40.9706 45.2638C40.8244 45.2887 40.6742 45.611 40.6852 45.8761C40.7038 46.3233 40.9843 46.7077 41.4263 46.8918C41.6343 46.9784 41.7261 46.9992 41.7384 46.9624C41.751 46.9247 41.7753 46.931 41.8265 46.9852C41.916 47.0802 41.9669 47.0932 42.233 47.0886ZM30.6663 43.2278C30.67 43.2167 30.575 43.0725 30.4551 42.9072C30.0827 42.3936 30.1945 42.054 30.8737 41.6349L31.0038 41.5546L30.8378 41.6229C30.5497 41.7415 29.8925 42.2872 29.8365 42.4544C29.8092 42.5361 29.7998 42.6186 29.8158 42.6378C29.8318 42.657 29.9638 42.7351 30.1091 42.8113C30.2545 42.8875 30.4289 43.0139 30.4968 43.0923C30.6229 43.2377 30.6545 43.263 30.6663 43.2278ZM41.6121 46.7294C41.5805 46.6402 41.5826 46.6392 41.6346 46.7182C41.6661 46.7662 41.6894 46.813 41.6864 46.8222C41.6741 46.8589 41.6454 46.8231 41.6121 46.7294ZM29.7711 42.4297C29.803 42.3861 29.8748 42.2988 29.9306 42.2357C30.001 42.1562 30.0787 41.9621 30.1841 41.6022C30.3329 41.0944 30.3348 41.073 30.2717 40.5972C30.1987 40.0474 30.0836 39.8347 29.7242 39.5855C29.5016 39.4311 29.375 39.4042 29.2246 39.4793C29.0501 39.5664 29.075 39.6936 29.3866 40.3081C29.7641 41.0526 29.8349 41.4074 29.7071 41.913C29.6528 42.1277 29.6393 42.2885 29.6685 42.3756C29.7114 42.5042 29.7152 42.5062 29.7711 42.4297ZM29.6105 41.9959C29.7119 41.5914 29.7052 41.3345 29.5832 40.9344C29.489 40.6259 29.4533 40.5707 29.2535 40.4256C28.9241 40.1864 28.5236 40.0918 28.3297 40.2074C28.2498 40.2551 28.1799 40.308 28.1743 40.3251C28.1687 40.3421 28.2415 40.4231 28.3362 40.5051C28.5285 40.6716 28.6284 40.8853 28.6811 41.2423C28.737 41.6217 28.8251 41.765 29.1399 41.989C29.2973 42.1009 29.4513 42.2133 29.4821 42.2387C29.5285 42.277 29.5506 42.2351 29.6105 41.9959ZM39.2482 45.199C39.2829 45.1969 39.333 45.2136 39.3594 45.2363C39.3859 45.2588 39.3575 45.2606 39.2963 45.2401C39.2351 45.2196 39.2134 45.2011 39.2482 45.199ZM41.0136 45.1873C41.1852 45.0908 41.1571 45.0342 40.9529 45.0648C40.8465 45.0807 40.7337 45.0851 40.7022 45.0746C40.6707 45.064 40.6381 45.0754 40.6299 45.0999C40.6037 45.1784 40.9069 45.2475 41.0136 45.1873ZM41.5348 45.3534C41.5061 45.3173 41.5026 45.2946 41.527 45.3028C41.5515 45.311 41.5951 45.3471 41.6238 45.3832C41.6526 45.4192 41.6561 45.442 41.6316 45.4338C41.6072 45.4256 41.5636 45.3894 41.5348 45.3534ZM33.7592 42.6135C33.8303 42.5351 33.9527 42.4195 34.0313 42.3565C34.1402 42.2693 34.1797 42.2024 34.1974 42.0746C34.2279 41.8545 34.1509 41.8614 33.902 42.1012C33.762 42.236 33.6781 42.362 33.6275 42.5131C33.5402 42.7736 33.5839 42.807 33.7592 42.6135ZM37.2536 43.8411C37.3547 43.7906 37.3207 43.7117 37.1488 43.5979C36.9376 43.458 36.6663 43.209 36.478 42.9819C36.2375 42.692 36.2585 42.2342 36.5279 41.8932C36.6118 41.7869 36.6821 41.7546 36.8397 41.7496C37.1102 41.7409 37.5595 41.577 37.4626 41.5223C37.4239 41.5006 37.3439 41.491 37.2846 41.5011C37.1559 41.523 37.1564 41.5203 37.3096 41.345C37.4612 41.1716 37.5629 40.8652 37.5265 40.6916C37.5 40.5653 37.496 40.5705 37.4503 40.7912C37.4025 41.0218 37.2207 41.3529 37.1301 41.3742C37.1043 41.3803 37.1417 41.3024 37.2133 41.2011C37.3542 41.0017 37.4093 40.7235 37.3649 40.4368C37.3371 40.2575 37.3465 40.2174 37.4008 40.2826C37.426 40.313 37.436 40.308 37.4269 40.2696C37.3981 40.1463 37.1961 40.1288 37.0724 40.2389L36.9538 40.3445L36.8143 40.1224C36.6809 39.9098 36.67 39.9023 36.564 39.9488C36.4039 40.0189 36.2514 40.2445 36.2076 40.4759C36.1747 40.6498 36.1575 40.6747 36.0789 40.6619C35.9896 40.6474 35.9885 40.6506 36.0095 40.8617C36.0365 41.1321 36.2494 41.4256 36.4148 41.4204C36.5266 41.4169 36.5267 41.415 36.4351 41.141C36.381 40.9791 36.3734 40.9201 36.4167 40.9981L36.4904 41.1312L36.579 40.8791C36.6277 40.7404 36.7247 40.5681 36.7945 40.4961C36.8644 40.4241 36.8953 40.401 36.8632 40.4448C36.8311 40.4885 36.742 40.6781 36.6653 40.866C36.5452 41.1601 36.5311 41.2358 36.5642 41.4097C36.6033 41.6146 36.5291 41.7858 36.3868 41.8193C36.3104 41.8372 36.1798 42.2376 36.1721 42.4774C36.164 42.7264 36.4325 43.217 36.7347 43.5053C36.9849 43.7439 37.1866 43.8745 37.2536 43.8411ZM33.3956 42.1857C33.7787 42.1171 34.1596 41.792 34.0845 41.5978C34.068 41.555 33.9963 41.4641 33.9253 41.3956C33.8004 41.2753 33.7889 41.2729 33.5651 41.32C33.2614 41.384 33.2052 41.3612 33.4754 41.2838C33.6017 41.2476 33.745 41.2432 33.8276 41.2728C33.9513 41.3172 33.9818 41.3048 34.0995 41.1614C34.1724 41.0726 34.3472 40.9281 34.4881 40.8403C34.7286 40.6903 34.7464 40.6678 34.7822 40.4685C34.8395 40.1499 34.7972 39.8589 34.6452 39.5261C34.5138 39.2383 34.23 38.8562 34.17 38.8862C34.114 38.9141 33.5667 39.7386 33.5308 39.8491C33.483 39.9962 33.5202 40.336 33.6291 40.745C33.7043 41.0274 33.7046 41.0463 33.6311 40.8736C33.5235 40.6213 33.4212 40.0842 33.4445 39.8946C33.4541 39.816 33.5052 39.6893 33.558 39.613C33.6293 39.5099 33.6428 39.4606 33.6106 39.4208C33.5399 39.3337 33.3805 39.2978 33.2819 39.347C33.2121 39.3819 33.1727 39.3746 33.1184 39.3171C33.0015 39.1929 32.7582 39.1352 32.6193 39.1985C32.3803 39.3073 32.2546 39.6695 32.4348 39.7299C32.5665 39.774 32.7134 39.9397 32.9261 40.2843C33.136 40.6243 33.303 40.8134 33.4317 40.8564C33.479 40.8723 33.5346 40.9522 33.5551 41.034L33.5923 41.1827L33.5165 41.0458C33.4747 40.9705 33.4093 40.8985 33.3711 40.8857C33.2244 40.8366 33.0169 40.607 32.8496 40.3088C32.6515 39.9557 32.47 39.7758 32.2984 39.7625C31.9751 39.7376 31.9225 40.0223 32.1621 40.4996L32.3323 40.8387L32.1838 40.7748C32.0477 40.7162 32.0286 40.7221 31.9566 40.8444C31.9134 40.9178 31.8284 41.017 31.7677 41.0649C31.6593 41.1506 31.6596 41.155 31.7878 41.3178C32.1551 41.784 33.0229 42.2525 33.3956 42.1857ZM41.2321 44.7797C41.2466 44.7361 41.3347 44.6488 41.4278 44.5855C41.5208 44.5223 41.6704 44.3808 41.7601 44.271L41.9233 44.0714L41.7875 44.1312C41.7129 44.1642 41.597 44.1996 41.5299 44.21C41.3062 44.2447 41.0594 44.6229 41.1574 44.7811C41.1971 44.8453 41.2102 44.845 41.2321 44.7797ZM34.3714 41.9172C34.3791 41.8941 34.3695 41.8562 34.3501 41.8328C34.3307 41.8095 34.3392 41.7177 34.369 41.6287C34.4106 41.5044 34.4897 41.4232 34.7115 41.2772C35.3818 40.8357 35.6544 40.274 35.4004 39.8575C35.2872 39.6718 35.1679 39.6122 35.1656 39.7401C35.1648 39.7875 35.1683 39.9307 35.1735 40.0585C35.1862 40.3731 35.0636 40.5406 34.5743 40.8765C34.095 41.2057 34.0218 41.3113 34.1326 41.5142C34.1923 41.6236 34.1982 41.6875 34.1541 41.7479C34.1026 41.8185 34.1091 41.8312 34.1968 41.8326C34.2577 41.8336 34.2936 41.8538 34.2843 41.8818C34.2755 41.9079 34.2884 41.936 34.3128 41.9442C34.3373 41.9524 34.3636 41.9403 34.3714 41.9172ZM34.647 41.8331C34.7437 41.8288 34.8846 41.8442 34.9601 41.8674C35.0355 41.8906 35.1453 41.8943 35.2038 41.8756C35.3051 41.8433 35.3036 41.8351 35.1748 41.7106C35.0149 41.556 34.865 41.5331 34.6277 41.6271C34.5355 41.6636 34.4524 41.6782 34.4432 41.6595C34.4338 41.6408 34.4232 41.6713 34.4193 41.7272C34.4115 41.8437 34.4115 41.8437 34.647 41.8331ZM33.1031 41.311C33.1228 41.3012 33.1618 41.3124 33.1895 41.3361C33.2203 41.3622 33.2062 41.3692 33.1537 41.354C33.1061 41.3402 33.0834 41.3209 33.1031 41.311ZM36.253 41.7663C36.4848 41.7309 36.5902 41.5672 36.4182 41.5096C36.3562 41.4889 36.224 41.4819 36.1244 41.4941C35.9723 41.5128 35.905 41.4951 35.7022 41.383C35.5695 41.3096 35.4523 41.2534 35.4418 41.2581C35.4313 41.2628 35.4924 41.3465 35.5775 41.4441C35.7927 41.6909 36.0241 41.8013 36.253 41.7663ZM63.0698 50.5779C63.2162 50.5469 63.5441 50.525 63.7983 50.5294C64.3728 50.5392 64.4846 50.5104 64.6135 50.3194C64.979 49.7779 64.7674 49.384 64.2107 49.5696C63.3732 49.849 63.0055 49.7451 61.895 48.915C61.2647 48.4439 61.1857 48.3324 61.1905 47.921C61.1945 47.5737 61.1292 47.2234 60.9127 46.4304C60.6895 45.6131 60.6506 45.338 60.642 44.5169C60.6338 43.7322 60.6085 43.516 60.4865 43.1897L60.3966 42.949L60.0861 42.845L59.7755 42.7411L59.9069 43.0937C59.9876 43.3104 60.038 43.5615 60.0376 43.7453C60.0369 44.065 59.886 44.8095 59.826 44.7894C59.8062 44.7827 59.6597 44.6184 59.5005 44.4241C59.1431 43.9882 58.4921 43.357 58.0718 43.0391C57.8981 42.9077 57.7028 42.7365 57.6378 42.6585L57.5197 42.5168L57.2734 42.6398C56.9809 42.7857 56.9806 42.8063 57.2621 43.2537C57.5635 43.7325 57.9307 44.0716 58.6184 44.506C59.5936 45.122 59.7264 45.3225 59.8531 46.37C59.9206 46.9289 59.9584 47.0633 60.1835 47.5468C60.4022 48.0164 60.4413 48.151 60.4629 48.51C60.4927 49.0029 60.5734 49.2339 60.7828 49.425C60.8672 49.5022 61.3193 49.7839 61.7873 50.0509C62.2553 50.318 62.6754 50.5585 62.7208 50.5854C62.7663 50.6123 62.9233 50.6089 63.0698 50.5779ZM36.8269 41.5303C36.8297 41.5218 36.8899 41.4918 36.9606 41.4636L37.0891 41.4122L36.9708 41.4841C36.8596 41.5516 36.8149 41.5659 36.8269 41.5303ZM46.4271 44.4234C46.7248 44.389 47.0088 44.2582 47.4923 43.9331C47.7241 43.7771 48.068 43.5491 48.2564 43.4264C48.4449 43.3037 48.5932 43.1917 48.5861 43.1774C48.5791 43.1632 48.4668 43.0925 48.3366 43.0204C48.2065 42.9483 47.8826 42.7244 47.6168 42.5229C47.1831 42.1942 47.0879 42.1409 46.6895 42.0044C46.1823 41.8306 45.9573 41.8316 45.4451 42.0096C45.092 42.1324 44.9563 42.2654 44.7827 42.6586L44.6504 42.9583L44.8908 43.1208C45.0469 43.2263 45.2037 43.3909 45.3381 43.5901C45.7917 44.2626 45.795 44.2664 46.0093 44.3582C46.1532 44.4198 46.2828 44.44 46.4271 44.4234ZM50.0184 43.705C50.0381 43.6951 50.077 43.7064 50.1048 43.73C50.1356 43.7561 50.1215 43.7631 50.0689 43.7479C50.0214 43.7341 49.9986 43.7148 50.0184 43.705ZM35.6241 38.767C35.6325 38.7422 35.6086 38.7117 35.5711 38.6991C35.5336 38.6866 35.2544 38.4398 34.9505 38.1508C34.3599 37.589 34.0649 37.349 33.9141 37.3078C33.8233 37.2829 33.8229 37.2837 33.9026 37.3313C33.948 37.3584 34.2692 37.6627 34.6165 38.0075C35.2022 38.5892 35.5867 38.8789 35.6241 38.767ZM49.9198 41.7077C50.3767 41.0609 50.4604 40.897 50.7998 39.9833C51.1609 39.0112 51.2108 38.9404 51.6371 38.7949C51.9451 38.6897 52.4103 38.7381 53.155 38.953C54.1461 39.2389 54.4196 39.4806 54.8576 40.4573C55.17 41.1539 55.4866 41.6333 55.8782 42.0028C56.1867 42.294 56.7636 42.7013 56.8244 42.671C56.8452 42.6607 56.8603 42.464 56.8579 42.2341L56.8537 41.816L56.5717 41.6155C55.9684 41.1864 55.6327 40.7858 55.0493 39.7988C54.3546 38.6234 53.8404 38.2352 52.8486 38.1371C52.6303 38.1155 52.2571 38.0693 52.0193 38.0345L51.5871 37.9712L51.1368 37.6402C50.6186 37.2593 49.4062 36.2307 48.967 35.7994C48.6589 35.4967 48.5 35.2686 48.1048 34.5613C47.8165 34.0454 47.566 33.7508 47.0564 33.3284C46.8347 33.1446 46.5881 32.9075 46.5084 32.8015C46.3309 32.5653 46.0944 32.0736 45.9487 31.6379C45.8888 31.4585 45.8193 31.3101 45.7945 31.3081C45.7696 31.3061 45.903 31.1743 46.091 31.0152C46.4499 30.7114 46.4757 30.6774 46.4444 30.5497C46.432 30.4993 46.4497 30.4552 46.493 30.4283C46.5975 30.3634 46.5604 30.121 46.4468 30.1263C46.2374 30.1359 45.8626 30.0559 45.4156 29.9063C45.0422 29.7812 44.8734 29.7471 44.6651 29.7544C44.191 29.7712 43.7507 30.0159 43.6491 30.3192C43.63 30.3764 43.6431 30.54 43.6782 30.6827C43.7133 30.8254 43.7348 31.0002 43.7258 31.0712C43.7095 31.2 43.7107 31.2009 44.2826 31.4555C44.5979 31.5959 44.9229 31.7179 45.0048 31.7267C45.1048 31.7374 45.2289 31.6917 45.382 31.5878C45.5075 31.5027 45.6181 31.4404 45.6277 31.4495C45.6374 31.4586 45.6955 31.6171 45.7569 31.8018C45.9625 32.4203 46.293 32.8789 47.1943 33.7961C47.8428 34.4559 47.8643 34.4828 48.2121 35.0689C48.3541 35.3081 48.5546 35.6087 48.6576 35.7367C48.9621 36.1154 50.4091 37.5589 50.6225 37.697C50.8331 37.8332 50.8325 37.8257 50.6546 38.1349C50.5549 38.308 49.4949 38.5059 49.1985 38.4067C49.1373 38.3862 49.1075 38.3998 49.1095 38.4471C49.1117 38.4986 49.0527 38.465 48.8958 38.3253C48.7765 38.2191 48.6506 38.1006 48.6159 38.0619C48.5584 37.9976 48.5434 38.0197 48.4443 38.3148C48.3178 38.6917 48.1969 38.8855 47.9883 39.0459C47.8207 39.1746 47.4662 39.2891 47.2821 39.274C47.2079 39.2679 47.2411 39.2517 47.3687 39.2317C47.6491 39.1878 47.8732 39.0755 48.058 38.8862C48.1839 38.7573 48.2406 38.643 48.3648 38.2675C48.595 37.572 48.7434 36.8786 48.7034 36.6861L48.6691 36.521L48.1867 36.3434C47.727 36.1742 47.6941 36.1686 47.4868 36.2241C47.3672 36.2561 47.2189 36.3176 47.1572 36.3607C47.046 36.4383 47.0467 36.4425 47.2327 36.8163C47.3712 37.0948 47.4356 37.313 47.4788 37.6504C47.5325 38.0706 47.5274 38.1406 47.4145 38.52L47.2919 38.9326L47.3655 38.5829C47.5313 37.7948 47.3543 36.9338 46.9091 36.3632C46.8045 36.2291 46.7581 36.0983 46.7349 35.8723C46.7175 35.7029 46.6737 35.5115 46.6375 35.447C46.572 35.3304 46.5704 35.3303 46.3665 35.4282C45.8475 35.6771 45.5898 36.3106 45.6113 37.2853C45.618 37.5904 45.6307 37.8957 45.6397 37.9637C45.6548 38.0797 45.6534 38.0807 45.6164 37.9803C45.5617 37.8317 45.5207 37.1947 45.5439 36.8557C45.5546 36.7008 45.605 36.4496 45.6559 36.2974L45.7486 36.0207L45.4623 35.8894C45.2502 35.7922 45.1131 35.7573 44.9339 35.7549C44.8008 35.7531 44.6652 35.7297 44.6326 35.7028C44.5883 35.6662 44.5728 35.6775 44.5712 35.7474C44.5701 35.7988 44.5612 36.1054 44.5515 36.4287C44.5296 37.1559 44.5451 37.2637 44.7191 37.5987C44.8377 37.8269 44.8403 37.8408 44.7365 37.6931C44.6368 37.551 44.5889 37.5185 44.4722 37.5134C44.3142 37.5065 43.9998 37.5485 43.99 37.5778C43.9622 37.6608 44.1426 38.2729 44.2552 38.478C44.4045 38.7497 44.5266 38.8737 44.7032 38.9328C44.812 38.9692 44.8121 38.9679 44.7415 38.5121C44.7026 38.2606 44.6949 38.1187 44.7244 38.1968C44.754 38.2748 44.8019 38.4934 44.8309 38.6825C44.8931 39.0883 45.0414 39.3671 45.2792 39.5251C45.6537 39.7739 46.3097 39.8191 46.5298 39.6113C46.5859 39.5583 46.7201 39.4934 46.8279 39.4669C47.0153 39.421 47.0326 39.4249 47.2184 39.5564C47.3444 39.6456 47.487 39.707 47.6235 39.731C47.9198 39.7832 48.6434 39.7312 48.8963 39.6397C49.2735 39.5031 49.4245 39.168 49.2547 38.8443C49.2056 38.7508 49.1707 38.6587 49.1771 38.6396C49.1835 38.6205 49.2354 38.6985 49.2923 38.813C49.3492 38.9274 49.386 39.0505 49.374 39.0864C49.3457 39.1707 49.3344 39.1692 49.7129 39.1318C49.8915 39.1142 50.1595 39.1015 50.3085 39.1037C50.4574 39.1059 50.6409 39.0734 50.7162 39.0314C50.8748 38.943 50.878 38.9926 50.7212 39.1087C50.5602 39.2278 50.463 39.5064 50.4417 39.9097C50.4203 40.3145 50.3416 40.5154 50.0396 40.9363C49.8903 41.1444 49.858 41.2189 49.8596 41.3515C49.8607 41.448 49.8097 41.6335 49.733 41.8115C49.6623 41.9757 49.6102 42.1118 49.6171 42.1142C49.624 42.1165 49.7603 41.9335 49.9198 41.7077ZM42.3309 39.429C42.3772 39.2908 42.522 39.1589 42.6412 39.1465C42.7016 39.1403 42.8369 39.1277 42.942 39.1187C43.1465 39.1012 43.176 39.0689 43.1466 38.8951C43.1363 38.8342 43.1459 38.6334 43.168 38.4489C43.1901 38.2645 43.1976 38.0448 43.1846 37.9609C43.1532 37.7583 43.0242 37.5284 42.9231 37.4945C42.8026 37.4541 42.6419 37.6051 42.5593 37.8364C42.4765 38.0681 42.4919 38.1537 42.7027 38.6354C42.8174 38.8975 42.8273 38.9438 42.7446 38.8315C42.5696 38.5943 42.4117 38.1674 42.4355 37.9961C42.4548 37.857 42.4326 37.8173 42.2568 37.6763C42.0093 37.4777 41.7151 37.3227 41.6649 37.3645C41.6443 37.3817 41.6553 37.4913 41.6893 37.6081C41.7233 37.7249 41.7935 37.9771 41.8452 38.1684C41.9602 38.5936 42.2741 39.0072 42.3377 38.8173C42.3488 38.7844 42.4133 38.7335 42.4811 38.7043L42.6044 38.6512L42.4467 38.807C42.2694 38.9822 42.1622 39.2524 42.2118 39.3992C42.2549 39.5268 42.2948 39.5368 42.3309 39.429ZM42.221 38.9819C42.2211 38.9483 42.1345 38.819 42.0285 38.6947C41.8302 38.4619 41.6257 38.355 41.4394 38.3867C41.3024 38.4101 41.2864 38.4823 41.4091 38.5237C41.4642 38.5423 41.6128 38.6472 41.7393 38.757C41.9903 38.9746 42.2209 39.0823 42.221 38.9819ZM38.2821 36.8148C38.7163 36.7616 38.7902 36.697 39.0517 36.1412C39.1844 35.8592 39.3502 35.5773 39.4469 35.4694C39.5594 35.3437 39.6235 35.2284 39.644 35.1142C39.6607 35.0211 39.6692 35.0954 39.6628 35.2791C39.6467 35.7376 39.688 35.9659 39.8336 36.2247C40.0626 36.6319 40.3749 36.7418 40.767 36.5533C40.8824 36.4978 41.1377 36.3991 41.3344 36.3338C41.7825 36.1852 41.9639 36.0202 42.0833 35.6526C42.1828 35.3463 42.1583 35.0702 42.0061 34.7845C41.9107 34.6051 41.9059 34.6023 41.4322 34.4519C40.979 34.308 40.9297 34.3023 40.4707 34.3422C40.2045 34.3652 39.8898 34.42 39.7712 34.4639C39.6527 34.5078 39.5513 34.5344 39.546 34.523C39.5242 34.4767 39.9386 32.6701 39.986 32.6052C40.0938 32.4573 39.7651 31.7859 39.4562 31.5231C39.3943 31.4705 39.1686 31.3519 38.9546 31.2595C38.7405 31.1671 38.5181 31.0606 38.4604 31.0229C38.3557 30.9544 38.3551 30.955 38.1319 31.3759C37.8476 31.912 37.7768 32.1302 37.8037 32.3864C37.8416 32.7482 38.0483 33.066 38.6083 33.6236C38.8941 33.9082 39.1134 34.1365 39.0955 34.131C39.0129 34.1056 38.1703 33.3168 38.0403 33.1432C37.96 33.0359 37.8482 32.841 37.792 32.7101C37.676 32.4402 37.5754 32.385 37.3611 32.4735C37.2357 32.5253 37.172 32.6084 36.9603 32.9958C36.8218 33.2492 36.6649 33.5151 36.6116 33.5866C36.5223 33.7065 36.522 33.7337 36.6085 33.9324C36.6601 34.051 36.7225 34.2346 36.7472 34.3404C36.8247 34.6725 37.0043 34.7761 37.6533 34.8636C37.8557 34.8908 38.0264 34.9235 38.0327 34.9362C38.0436 34.9581 37.7949 34.9363 37.4088 34.8815C37.2684 34.8616 37.1918 34.8886 37.0302 35.0148C36.9187 35.1019 36.8231 35.1862 36.8178 35.2023C36.7937 35.2742 36.9688 35.5068 37.2306 35.7506C37.5091 36.0101 37.5771 36.1289 37.6765 36.5304C37.7368 36.7741 37.9186 36.8594 38.2821 36.8148ZM46.1684 38.8959C46.0435 38.5462 45.8477 38.3061 45.5389 38.1236L45.3533 38.014L45.5486 38.0958C45.821 38.2099 46.0818 38.4763 46.1837 38.7444C46.2312 38.8692 46.3289 39.0947 46.4009 39.2455C46.5288 39.5134 46.529 39.5162 46.4084 39.3709C46.3405 39.2891 46.2325 39.0753 46.1684 38.8959ZM57.2335 42.6106C57.4001 42.5289 57.7052 42.3848 57.9116 42.2904C58.3381 42.0953 58.5017 41.945 58.6271 41.6328L58.7147 41.4148L58.8508 41.7217C59.1024 42.2888 59.5852 42.6576 60.3241 42.8471L60.744 42.9548L60.6765 42.7565C60.6197 42.5895 60.624 42.5118 60.7039 42.2636C60.8358 41.8536 60.7548 41.4811 60.4482 41.0879L60.2875 40.8817L60.1048 40.9441C59.7962 41.0494 59.8448 40.9939 60.1679 40.8719C60.4904 40.7501 61.1242 40.6385 61.4378 40.6483L61.6257 40.6541L61.3699 40.2818C61.2292 40.0769 61.002 39.8021 60.8649 39.6709C60.6441 39.4598 60.5699 39.4171 60.2155 39.2974C59.8133 39.1616 59.7366 39.1573 59.341 39.2486L59.1801 39.2858L59.3527 39.2138C59.4476 39.1742 59.5986 39.1391 59.6882 39.1357C59.9205 39.127 59.9383 39.0101 59.7295 38.8645C59.516 38.7155 59.2678 38.4128 59.1577 38.1668C59.0786 37.9901 59.0822 37.9927 59.2169 38.211C59.5269 38.7138 59.9048 38.9861 60.9125 39.4329C61.2917 39.601 61.6595 39.7699 61.7297 39.8084C61.8394 39.8684 61.8715 39.8634 61.9553 39.7734C62.0091 39.7157 62.0941 39.5808 62.1442 39.4738C62.2234 39.3046 62.2256 39.2481 62.1608 39.0437C62.1198 38.9142 62.0241 38.7212 61.9481 38.6148C61.8046 38.4139 61.4454 38.0979 61.3083 38.052C61.2519 38.0331 61.3172 37.9802 61.5386 37.8652C61.8916 37.682 62.3151 37.331 62.7038 36.8996L62.9717 36.6023L62.7715 36.5014C62.324 36.2761 61.3458 35.9216 61.1399 35.9102C60.9201 35.898 60.9142 35.9034 60.7301 36.2827C60.6028 36.5453 60.2514 36.892 59.9444 37.0581C59.7862 37.1437 59.7589 37.1512 59.8678 37.0791C60.3244 36.777 60.7081 36.2759 60.8804 35.7568C61.0459 35.2579 61.0024 34.9443 60.6624 34.185C60.5271 33.8829 60.6114 33.8595 59.9075 34.3947C59.5711 34.6505 59.41 34.8074 59.305 34.9814C59.1645 35.2142 59.1633 35.2211 59.2457 35.3257C59.424 35.5519 59.5431 35.8031 59.5948 36.0623C59.6245 36.2106 59.6413 36.3517 59.6322 36.3759C59.6231 36.4002 59.6007 36.3258 59.5823 36.2106C59.4911 35.6385 59.215 35.2687 58.7704 35.123C58.2173 34.9419 57.5272 34.9467 57.3299 35.1331C57.2659 35.1935 57.2816 35.2362 57.445 35.4462C57.6447 35.7029 57.7118 35.9029 57.7068 36.2267C57.7024 36.5141 57.7495 36.6511 57.9198 36.8464C58.0847 37.0356 58.5312 37.318 58.8207 37.4164C58.9735 37.4682 59.0047 37.4996 59.0166 37.613C59.0243 37.6873 59.0235 37.7503 59.0147 37.7531C59.006 37.7558 58.9082 37.7628 58.7974 37.7686C58.6475 37.7765 58.5932 37.8016 58.5854 37.8667C58.5531 38.138 58.3904 38.5024 58.2158 38.6946L58.0305 38.8986L57.7639 38.7779C57.2088 38.5264 56.7383 38.5902 56.5045 38.9485C56.447 39.0366 56.3157 39.3397 56.2127 39.622L56.0253 40.1354L56.2092 40.2514C57.0337 40.772 57.5581 40.8812 58.1315 40.6516L58.3572 40.5613L58.1745 40.6635C57.9658 40.7802 57.5806 40.8501 57.3185 40.8187C57.1639 40.8001 57.1272 40.8171 57.0454 40.9456C56.9353 41.1181 56.9109 41.3698 56.9228 42.2093L56.9306 42.7593L57.2335 42.6106ZM44.9821 37.9063C45.0019 37.8965 45.0408 37.9077 45.0686 37.9313C45.0993 37.9574 45.0853 37.9645 45.0327 37.9492C44.9852 37.9354 44.9624 37.9161 44.9821 37.9063ZM38.356 34.9067C38.3692 34.9012 38.4381 34.8896 38.509 34.8809C38.6307 34.866 38.6318 34.8674 38.5285 34.9055C38.4385 34.9386 38.2771 34.9397 38.356 34.9067ZM39.6849 34.8154C39.711 34.7846 39.718 34.7987 39.7027 34.8514C39.6889 34.8989 39.6696 34.9217 39.6598 34.902C39.65 34.8822 39.6612 34.8433 39.6849 34.8154ZM39.8404 34.3779C39.9296 34.3554 40.2738 34.3124 40.6053 34.2822C41.1187 34.2357 41.2516 34.2032 41.5034 34.0631C41.6824 33.9635 41.8534 33.824 41.9373 33.7092C42.2752 33.2467 42.3337 32.9751 42.1912 32.5324L42.1071 32.2712L41.8629 32.2949C41.6752 32.3131 41.5181 32.287 41.1843 32.182C40.5995 31.9981 40.4294 32.0447 40.1522 32.4652C40.0506 32.6192 39.9953 32.785 39.8696 33.312C39.6578 34.2005 39.6168 34.4062 39.65 34.413C39.6655 34.4163 39.7512 34.4005 39.8404 34.3779ZM59.6998 40.9517C59.7195 40.9418 59.7584 40.9531 59.7862 40.9767C59.8169 41.0028 59.8029 41.0098 59.7503 40.9946C59.7028 40.9808 59.68 40.9615 59.6998 40.9517ZM59.1661 40.7688C59.2127 40.7719 59.2827 40.7953 59.3218 40.8209C59.361 40.8464 59.3228 40.8439 59.2372 40.8152C59.1515 40.7865 59.1195 40.7656 59.1661 40.7688ZM58.6971 40.4248C58.6194 40.2943 58.6188 40.2806 58.6934 40.3295C58.7867 40.3905 58.9065 40.6169 58.8324 40.5921C58.8079 40.5839 58.747 40.5086 58.6971 40.4248ZM60.0751 39.1254C60.0682 39.0959 60.0325 39.0616 59.9958 39.0493C59.9591 39.037 59.9347 39.0512 59.9416 39.0807C59.9486 39.1103 59.9843 39.1445 60.021 39.1568C60.0577 39.1691 60.0821 39.155 60.0751 39.1254ZM61.0182 37.9716C61.053 37.9694 61.103 37.9862 61.1295 38.0088C61.1559 38.0314 61.1275 38.0332 61.0664 38.0127C61.0052 37.9922 60.9835 37.9737 61.0182 37.9716ZM60.6401 37.8478C60.6598 37.838 60.6987 37.8492 60.7265 37.8729C60.7573 37.899 60.7432 37.906 60.6906 37.8908C60.6431 37.877 60.6203 37.8577 60.6401 37.8478ZM60.3435 37.699C60.3632 37.6891 60.4022 37.7004 60.4299 37.724C60.4607 37.7501 60.4466 37.7571 60.394 37.7419C60.3465 37.7281 60.3238 37.7088 60.3435 37.699ZM60.1359 37.5799C60.1556 37.5701 60.1946 37.5813 60.2224 37.605C60.2531 37.6311 60.239 37.6381 60.1865 37.6229C60.1389 37.6091 60.1162 37.5898 60.1359 37.5799ZM47.7752 33.0272C48.0097 32.9735 48.1414 32.8585 48.2626 32.6017C48.3487 32.4192 48.3592 32.3374 48.3274 32.0965C48.2686 31.6519 47.8161 31.0019 47.337 30.6736C47.12 30.525 47.1199 30.5247 47.3089 30.6158C47.5539 30.7339 47.7628 30.9267 48.0341 31.2852C48.2499 31.5703 48.2564 31.5748 48.631 31.6986C49.1002 31.8538 49.3159 31.8546 49.5854 31.7026C49.9292 31.5087 50.3677 30.904 50.2741 30.7529C50.2497 30.7133 50.0615 30.5539 49.856 30.3987C49.5224 30.1465 49.4436 30.1062 49.1185 30.021C48.9183 29.9685 48.6638 29.928 48.5529 29.9309L48.3513 29.9361L48.5221 29.7638C48.9097 29.3726 49.0805 28.6274 48.9234 28.0127C48.8772 27.8317 48.8238 27.6786 48.8048 27.6725C48.7238 27.6466 48.3015 27.6512 48.1149 27.68C47.5275 27.7706 46.9836 28.3354 46.7012 29.1476C46.6051 29.4241 46.5635 29.5102 46.5803 29.3975C46.6365 29.0215 46.3531 28.3267 46.0145 28.0105C45.7779 27.7896 45.3274 27.6367 45.0703 27.6901C44.6035 27.7871 44.4303 28.6308 44.743 29.2837C44.8067 29.4167 44.903 29.5617 44.957 29.606C45.1067 29.7288 46.1959 30.0762 46.4172 30.0717C46.5983 30.0681 46.6043 30.0719 46.5955 30.1843C46.5905 30.2483 46.6188 30.3444 46.6583 30.3978C46.7201 30.4816 46.7193 30.4914 46.652 30.4689C46.5145 30.4229 46.487 30.5363 46.5061 31.0692C46.5394 31.9974 46.6533 32.4808 46.8974 32.7298C47.0959 32.9323 47.5369 33.0817 47.7752 33.0272ZM42.1431 29.1449C42.4863 28.8104 42.8987 28.6658 43.2066 28.7719C43.4012 28.8391 43.4488 28.8865 43.7093 29.273C43.8102 29.4225 43.9084 29.5502 43.9276 29.5567C43.9469 29.5631 43.9091 29.4489 43.8438 29.3029C43.7324 29.0543 43.6418 28.5722 43.6828 28.4466C43.7062 28.3748 43.6485 28.3569 43.4456 28.3729C43.1728 28.3943 42.198 28.9384 42.0372 29.159C41.9412 29.2908 42.0017 29.2827 42.1431 29.1449ZM42.1721 28.375C42.2968 28.3685 42.5277 28.3773 42.6852 28.3946C42.8649 28.4144 43.0417 28.3975 43.1598 28.3494C43.2634 28.3071 43.3775 28.2824 43.4133 28.2944C43.517 28.3291 43.5178 28.2335 43.4147 28.1372C43.3435 28.0707 43.2427 28.0383 43.0015 28.0043C42.826 27.9796 42.5851 27.9177 42.4661 27.8667L42.2497 27.774L42.5195 27.8548C42.6679 27.8993 42.9072 27.9431 43.0512 27.9521C43.1952 27.9612 43.3245 27.9739 43.3386 27.9805C43.4236 28.0201 43.4248 27.9773 43.3454 27.7439C43.2966 27.6009 43.243 27.3916 43.2261 27.2787C43.1917 27.0477 43.0145 26.8557 42.6447 26.6485C42.3249 26.4694 42.1169 26.2458 42.0363 25.9947L41.9658 25.7748L41.8029 25.8744C41.6776 25.951 41.6238 26.0223 41.5706 26.1824C41.4607 26.5129 41.5662 27.1589 41.7651 27.3736C41.8151 27.4276 41.8358 27.4656 41.811 27.4582C41.7863 27.4508 41.6053 27.2596 41.4089 27.0335C41.2124 26.8073 41.0418 26.6269 41.0297 26.6324C40.9867 26.6523 41.5327 27.8113 41.7013 28.0581C41.9346 28.3997 41.9176 28.3883 42.1721 28.375ZM46.5654 29.6378C46.5914 29.6071 46.5985 29.6212 46.5832 29.6738C46.5694 29.7214 46.5501 29.7441 46.5403 29.7244C46.5305 29.7047 46.5417 29.6657 46.5654 29.6378ZM48.136 29.9253C48.1807 29.9139 48.2372 29.9112 48.2617 29.9194C48.2862 29.9276 48.2697 29.9437 48.225 29.9551C48.1803 29.9666 48.1238 29.9692 48.0993 29.9611C48.0748 29.9529 48.0913 29.9368 48.136 29.9253ZM43.7665 28.2269C43.8182 28.1965 43.9636 28.0501 44.0897 27.9016C44.4149 27.5185 44.5494 27.1189 44.4869 26.7216C44.4136 26.2552 44.2473 25.9973 43.9573 25.9002C43.8673 25.87 43.8453 25.8804 43.8495 25.9508C43.8654 26.2155 43.796 26.365 43.5974 26.4939C43.2478 26.7209 43.1845 26.9392 43.3172 27.4589C43.4043 27.7997 43.5843 28.2526 43.6401 28.2713C43.658 28.2772 43.7148 28.2572 43.7665 28.2269ZM42.0259 27.6294C41.9882 27.5801 42.0076 27.5819 42.0978 27.6364C42.2491 27.7279 42.2761 27.7652 42.1626 27.7262C42.1158 27.7101 42.0543 27.6666 42.0259 27.6294ZM47.4775 27.8097C47.655 27.6443 47.8553 27.4225 47.9228 27.3167C48.0328 27.1441 48.0423 27.1002 48.0152 26.8888C47.9818 26.6272 47.8103 26.3262 47.5317 26.04C47.2945 25.7964 47.3604 25.8125 47.6195 26.0615C47.7285 26.1662 47.9127 26.4163 48.0287 26.6171C48.1585 26.8417 48.3122 27.0368 48.428 27.1238C48.7159 27.34 48.8907 27.3062 49.2239 26.97C49.3152 26.878 49.5132 26.7387 49.664 26.6606C49.9182 26.5289 49.935 26.5111 49.8945 26.4157C49.8705 26.3592 49.8076 26.1089 49.7549 25.8596C49.6467 25.349 49.5766 25.1942 49.3726 25.0156C49.1761 24.8434 49.0583 24.8138 48.7658 24.8628L48.5129 24.9052L48.6984 24.8204C48.8364 24.7573 48.8966 24.6971 48.933 24.586C49.006 24.363 48.9548 24.0571 48.7953 23.7643C48.6586 23.5133 48.6468 23.4579 48.7049 23.3389C48.7196 23.3089 48.6685 23.2292 48.5915 23.1618C48.4788 23.063 48.4053 23.0339 48.2158 23.0127C47.7476 22.9602 47.5168 23.0601 47.2642 23.425C47.128 23.6216 47.1144 23.6623 47.1154 23.8717C47.1172 24.2204 47.0851 24.2357 47.0625 23.8969C47.0108 23.1203 46.3767 22.5228 45.8716 22.7748C45.7561 22.8325 45.6996 22.8376 45.6772 22.7925C45.6335 22.7047 45.4675 22.7921 45.4195 22.9282C45.3584 23.1014 45.2733 24.1299 45.3139 24.2048C45.3995 24.3631 45.8053 24.6054 46.3338 24.8141C46.8628 25.0229 46.8687 25.0265 46.5184 24.9278C46.3194 24.8718 46.0259 24.7839 45.8662 24.7326C45.3927 24.5804 45.2495 24.5789 45.0081 24.7237C44.791 24.854 44.5457 25.1293 44.4848 25.311C44.4669 25.3646 44.478 25.4809 44.5096 25.5696C44.5545 25.6958 44.5477 25.7883 44.4778 25.9971C44.3893 26.2612 44.3898 26.2649 44.5319 26.4223C44.6107 26.5096 44.7963 26.6702 44.9442 26.779C45.3198 27.0556 45.4 27.0429 45.9349 26.6227L46.3595 26.2892L46.258 26.6735C46.0935 27.2959 46.17 27.5103 46.6365 27.7346C46.8054 27.8158 46.9814 27.9304 47.0277 27.9891C47.0741 28.0479 47.1216 28.0993 47.1334 28.1032C47.1452 28.1072 47.3001 27.9751 47.4775 27.8097ZM47.6139 25.2771C47.6163 25.2701 47.7566 25.2 47.9259 25.1214L48.2335 24.9786L47.9344 25.1386C47.6564 25.2872 47.6028 25.3104 47.6139 25.2771ZM48.2534 24.993C48.2563 24.9845 48.3165 24.9545 48.3871 24.9262L48.5157 24.8749L48.3973 24.9467C48.2861 25.0143 48.2415 25.0286 48.2534 24.993ZM47.0685 24.2665C47.0826 24.2244 47.094 24.2373 47.0993 24.3015C47.1039 24.3576 47.0976 24.4335 47.0853 24.4703C47.0712 24.5124 47.0598 24.4994 47.0545 24.4352C47.0499 24.3791 47.0562 24.3032 47.0685 24.2665Z" fill="url(#paint0_linear_22_5515)" fill-opacity="0.25"/>
</g>
<path fill-rule="evenodd" clip-rule="evenodd" d="M22.1521 10.289C22.0656 10.2896 21.9456 10.2624 21.8855 10.2287C21.7445 10.1495 21.2139 9.56694 21.1919 9.46715C21.1827 9.42522 21.1767 9.47683 21.1785 9.5819C21.1808 9.70626 21.1562 9.80402 21.1081 9.86205C21.0118 9.97826 20.9987 9.92657 21.0509 9.63598L21.0937 9.39797L20.8893 9.22859C20.6822 9.05689 20.2555 8.81201 20.1127 8.78291C20.0555 8.77126 20.0395 8.75243 20.053 8.71261C20.0772 8.64072 20.1023 8.65122 20.6064 8.94426C20.844 9.08239 21.0713 9.19287 21.1115 9.18971C21.1516 9.1866 21.2581 9.11435 21.348 9.02917C21.438 8.94399 21.5032 8.90085 21.4929 8.93334C21.4628 9.02801 21.2888 9.26134 21.2637 9.24053C21.2511 9.23009 21.2306 9.23384 21.2181 9.24885C21.2057 9.26385 21.3238 9.3037 21.4807 9.33741C21.7402 9.39316 21.7829 9.41446 21.9543 9.57352C22.1633 9.76741 22.1867 9.77029 22.0431 9.58454C21.9195 9.42468 21.6683 9.28493 21.4861 9.27473C21.3165 9.26521 21.3097 9.24549 21.44 9.13992C21.5216 9.07377 21.5729 9.06861 21.7253 9.11128C22.1078 9.21839 22.412 9.58282 22.4399 9.96741C22.4507 10.116 22.4454 10.1276 22.3621 10.1353C22.2813 10.1428 22.2745 10.1505 22.291 10.2158C22.3069 10.2786 22.2891 10.288 22.1521 10.289ZM22.2338 9.94519C22.2158 9.90093 22.1955 9.87137 22.1887 9.87948C22.182 9.88758 22.1913 9.9304 22.2094 9.97466C22.2275 10.0189 22.2478 10.0485 22.2545 10.0404C22.2612 10.0323 22.2519 9.98945 22.2338 9.94519ZM19.3671 11.0276C19.2294 11.0758 19.0646 11.1219 19.0009 11.13C18.8253 11.1523 18.5671 11.0514 18.4457 10.9132C18.2714 10.7146 18.1388 10.477 18.139 10.3636C18.1393 10.1109 18.0845 9.62505 18.0454 9.53349C17.9428 9.29302 17.8986 9.29165 17.9726 9.53126C18.0788 9.8751 18.0938 10.2913 18.0115 10.6111C17.923 10.9553 17.7708 11.1011 17.4709 11.129C17.2961 11.1453 17.248 11.1325 17.1382 11.0406C16.7859 10.7456 16.774 10.3318 17.1017 9.76846C17.1821 9.63006 17.2281 9.5289 17.2038 9.54359C17.1795 9.55831 16.9936 9.56338 16.7909 9.55485C16.588 9.54635 16.3278 9.55299 16.2125 9.56964C15.7868 9.63114 15.385 9.86745 15.0134 10.275C14.603 10.7249 14.0404 11.14 13.8286 11.1491C13.7782 11.1513 13.6211 11.105 13.4794 11.0462C12.7025 10.7239 11.9121 10.7157 10.9897 11.0203C10.7456 11.1009 10.4435 11.1886 10.3184 11.2152C10.1933 11.2418 10.087 11.2682 10.0823 11.2739C10.0775 11.2797 10.226 11.4159 10.4123 11.5767C10.7173 11.8399 10.8535 11.9819 11.0352 12.2262C11.0899 12.2998 11.0925 12.2924 11.0717 12.1209C11.0594 12.0194 11.0337 11.8612 11.0146 11.7694L10.9799 11.6023L11.0968 11.7314C11.2362 11.8853 11.2765 11.9699 11.3012 12.1605L11.3197 12.3034L11.484 12.1051C11.7276 11.8112 12.0854 11.6904 12.3395 11.8164C12.4326 11.8625 12.4349 11.8712 12.3667 11.9195C12.3258 11.9485 12.2685 12.0007 12.2394 12.0353C12.2056 12.0756 12.1331 12.0898 12.0392 12.0747C11.8885 12.0505 11.5882 12.1573 11.5025 12.2656C11.4768 12.2981 11.5141 12.2895 11.5873 12.2461C11.7821 12.1305 11.9145 12.0998 12.0514 12.1385C12.1406 12.1638 12.1911 12.1532 12.236 12.0999C12.3255 11.9939 12.599 11.8705 12.6992 11.891C12.8392 11.9195 12.9995 12.0777 13.055 12.242C13.0834 12.3259 13.1542 12.4463 13.2125 12.5095C13.3135 12.6192 13.3143 12.6292 13.2319 12.7265C13.1845 12.7827 13.1105 12.8499 13.0676 12.8758C12.9988 12.9174 12.9993 12.9313 13.0721 12.9926C13.1175 13.0308 13.1909 13.1363 13.235 13.227C13.2792 13.3177 13.3533 13.4234 13.3996 13.4618C13.4459 13.5002 13.5137 13.6235 13.5502 13.7357C13.5867 13.848 13.6413 13.9604 13.6717 13.9856C13.7154 14.0218 13.7112 14.0417 13.6515 14.0807C13.5042 14.177 13.3433 14.2295 13.0856 14.2652C12.9419 14.2851 12.8632 14.3026 12.9105 14.3041C13.0734 14.3092 13.0022 14.3711 12.7652 14.4304C11.9796 14.6268 11.236 14.2571 11.1246 13.6148L11.0952 13.445L11.1602 13.5557C11.2951 13.7853 11.7813 13.9329 12.2975 13.9011C12.4726 13.8904 12.4917 13.8718 12.4235 13.7789C12.3945 13.7394 12.3401 13.5818 12.3026 13.4286C12.2651 13.2755 12.2013 13.1093 12.1609 13.0594C12.0904 12.9722 12.0893 12.9723 12.1348 13.0615C12.1608 13.1127 12.2287 13.3093 12.2855 13.4984L12.3889 13.8422L12.2025 13.8438C11.8346 13.8469 11.5583 13.7828 11.3642 13.6491C11.1936 13.5316 11.1758 13.5064 11.117 13.2987C11.0821 13.1756 11.0595 13.012 11.0668 12.9353L11.08 12.7956L10.9154 12.8016C10.742 12.808 10.6278 12.7644 10.7553 12.7405C10.7936 12.7333 10.8684 12.6666 10.9214 12.5923L11.0179 12.4573L10.8689 12.2179C10.6731 11.9033 10.3196 11.5307 10.0868 11.3936C9.98715 11.3349 9.89064 11.2968 9.87234 11.309C9.85403 11.3211 9.88625 11.4821 9.94392 11.6666C10.1573 12.3494 10.1761 12.6606 10.0214 12.9476C9.93637 13.1053 9.91501 13.0244 9.95696 12.7036C10.0221 12.2058 9.9486 11.9081 9.67944 11.5798C9.39924 11.2381 9.28353 11.1559 9.01878 11.1106C8.45562 11.0141 8.0048 11.1208 7.76785 11.4067C7.68028 11.5124 7.6329 11.6095 7.61859 11.7126C7.5947 11.8846 7.6853 12.1562 7.79766 12.2493C7.87163 12.3107 7.865 12.3144 7.52671 12.4029C7.33598 12.4528 7.02606 12.5644 6.83802 12.6509C6.57195 12.7733 6.47632 12.7987 6.40704 12.7655C6.04441 12.5916 5.65002 12.4449 5.40305 12.3921C5.09008 12.3252 4.66224 12.3469 4.48871 12.4385C4.41669 12.4765 4.35277 12.4776 4.29343 12.4421C4.24494 12.413 4.28611 12.4596 4.38496 12.5456C4.54168 12.682 4.56833 12.7249 4.59328 12.8806C4.67758 13.407 4.46013 14.2187 4.04591 14.9237C3.99315 15.0135 3.98656 15.0573 4.0239 15.0699C4.09471 15.0938 4.7249 15.1283 5.21317 15.1349C5.76212 15.1423 5.9978 15.2109 6.20168 15.4228C6.51999 15.7536 6.63927 16.0669 6.62718 16.5403C6.62244 16.7254 6.64709 16.8897 6.69351 16.9826L6.76739 17.1304L6.57984 17.1574C6.4767 17.1723 6.27414 17.2187 6.1297 17.2605C5.76828 17.3651 5.42778 17.3763 5.23892 17.2898C4.93322 17.1498 4.65852 16.7507 4.34442 15.9898C4.242 15.7418 4.15244 15.5458 4.14538 15.5544C4.12234 15.5821 4.4405 16.3809 4.58471 16.6573C4.67998 16.8399 4.78816 16.9862 4.92052 17.1115C5.14437 17.3233 5.19063 17.4267 5.13804 17.5973C5.08423 17.7719 5.00605 17.8139 4.46373 17.9592C4.19631 18.0309 3.92728 18.1157 3.86593 18.1477L3.75433 18.2058L3.40978 17.9371C3.18173 17.7591 3.05354 17.6385 3.03047 17.5802C2.97075 17.429 2.99894 17.1196 3.11972 16.6005C3.18374 16.3254 3.21803 16.1413 3.19592 16.1914C3.15165 16.2915 2.96144 17.0831 2.96076 17.1699C2.96053 17.2021 2.92034 17.25 2.86234 17.2872C2.80841 17.3217 2.71613 17.3918 2.65726 17.4429C2.47473 17.6013 2.37478 17.5044 2.15163 16.953L2.03047 16.6537L1.75092 16.4554C1.48525 16.2671 1.47078 16.2509 1.45944 16.1305C1.44263 15.952 1.57736 15.5898 1.72825 15.4081C1.8719 15.235 1.97939 15.188 2.3648 15.1296C2.69936 15.079 2.86475 15.0313 3.06964 14.9263L3.23907 14.8395L3.13882 14.8053C2.99015 14.7545 3.01324 14.7218 3.16375 14.77C3.30814 14.8161 3.76347 14.8719 3.72313 14.8385C3.70891 14.8267 3.5977 14.8029 3.47602 14.7857C2.75237 14.683 2.30972 14.3008 2.32985 13.7963C2.3364 13.6324 2.35126 13.6069 2.74254 13.0869C3.01163 12.7292 3.18828 12.5204 3.26677 12.4671C3.46708 12.3312 3.75258 12.2818 3.98527 12.3429C4.10194 12.3735 4.18043 12.3843 4.1596 12.3668C4.00732 12.2386 3.47169 12.2684 3.26192 12.4167C3.13965 12.5031 2.96587 12.5623 2.96344 12.5183C2.96267 12.5041 3.05463 12.4222 3.16784 12.3364C3.35322 12.1959 3.39028 12.1832 3.54081 12.2091C3.84567 12.2616 3.91487 12.2119 4.35424 11.6251C4.42753 11.5272 4.46942 11.5117 4.68586 11.5022C4.8817 11.4936 4.96194 11.4681 5.06903 11.3799C5.40902 11.1001 5.89925 10.3975 5.96247 10.0994C5.99673 9.9378 5.78509 9.5655 5.61555 9.48917C5.54479 9.45732 5.48998 9.41439 5.49295 9.39308C5.49888 9.35056 5.73346 9.4454 5.84032 9.53357C5.87769 9.5644 5.93151 9.64426 5.95992 9.711C5.9883 9.77778 6.04746 9.84963 6.09138 9.87062C6.16759 9.90714 6.15976 9.93148 5.9191 10.4074C5.57863 11.0808 5.34149 11.4512 5.1753 11.5693C5.05128 11.6574 5.04902 11.6628 5.12397 11.694C5.62907 11.9048 6.60551 11.93 6.83636 11.7382C6.893 11.6912 7.09807 11.4173 7.29214 11.1296C7.48619 10.8418 7.89511 10.2414 8.20088 9.7952C8.80249 8.91733 8.86572 8.78494 8.83997 8.45759C8.80513 8.01431 8.64601 7.50964 8.43214 7.16399C8.28159 6.92073 8.08998 6.74209 7.6319 6.41796C7.41575 6.26501 7.28964 6.15677 7.27076 6.1079C7.23779 6.0227 7.18316 5.99836 7.82644 6.35542C8.052 6.48061 8.24367 6.60944 8.28993 6.66702C8.46165 6.88059 8.72366 7.31169 8.78671 7.48431C8.87361 7.72215 8.90189 7.71133 9.23173 7.31456C9.37521 7.14193 9.59893 6.91345 9.72887 6.80681C9.85881 6.70017 10.0604 6.49413 10.1768 6.3489C10.4552 6.00169 10.4831 5.99844 10.8178 6.27478C11.0877 6.49758 11.1215 6.57174 10.8922 6.43813C10.7078 6.33073 10.5571 6.29841 10.3988 6.33238C10.2835 6.3572 10.253 6.38582 10.0678 6.64317C9.91491 6.85555 9.81395 6.96234 9.66521 7.06896C9.07697 7.49066 8.91498 7.82634 9.1091 8.22164C9.27431 8.55814 9.1345 9.11052 8.77234 9.55205C8.52223 9.857 8.45742 10.0105 8.48716 10.2275C8.51225 10.4101 8.51778 10.418 8.71214 10.5447C8.82171 10.6163 8.98644 10.6923 9.07815 10.7138C9.46561 10.8045 10.2341 10.7839 11.1131 10.6591C11.416 10.6161 11.8149 10.5913 11.9996 10.6041C12.559 10.6429 12.6086 10.6284 12.8278 10.3622C12.9657 10.1948 13.0327 10.0777 13.0824 9.91748C13.1608 9.66457 13.2271 9.00404 13.2229 8.5178C13.2191 8.08232 13.2212 8.05443 13.2594 8.05086C13.2912 8.0479 13.33 8.47073 13.3448 8.98075C13.3568 9.39128 13.271 9.70328 12.9729 10.334L12.826 10.6448L13.1984 10.7016C13.4032 10.7328 13.6525 10.7603 13.7523 10.7625C14.0055 10.7683 14.3606 10.5998 14.6423 10.3403C15.2878 9.74566 15.4231 9.63905 15.6673 9.53226C15.9161 9.4234 17.0444 9.20448 17.3195 9.21167C17.3988 9.21375 17.4665 9.19582 17.4699 9.17179C17.4732 9.14781 17.2429 9.14631 16.9581 9.16847C16.341 9.21654 16.2067 9.19504 15.9834 9.01227C15.6536 8.74235 15.5902 8.23248 15.8425 7.879C15.9585 7.71631 15.9997 7.6839 16.1464 7.63954C16.3584 7.57546 16.6328 7.63896 16.8813 7.80965L17.0679 7.93771L17.0763 7.72528C17.0947 7.25915 17.4507 6.76366 17.7994 6.71874C17.9276 6.70222 18.1648 6.88353 18.2651 7.07469C18.4512 7.4291 18.3808 8.08785 18.1209 8.42562C18.0888 8.46734 18.1492 8.43357 18.2552 8.35052C18.5151 8.1469 18.8101 8.03318 19.1679 7.99878C19.505 7.96634 19.6701 8.01923 19.9463 8.24813L20.1249 8.39616L20.0507 8.59567C19.9348 8.90715 19.6166 9.26606 19.3457 9.39103C19.0599 9.52282 18.9735 9.53564 18.8428 9.4658C18.7773 9.43087 18.8517 9.50645 19.0236 9.6496C19.2745 9.8585 19.3297 9.92235 19.4152 10.1029C19.5205 10.3249 19.6709 10.8754 19.6374 10.9159C19.6265 10.929 19.5049 10.9792 19.3671 11.0276ZM20.6501 7.94055C20.5846 7.92032 20.4413 7.90405 20.3317 7.90443C20.222 7.90479 20.1066 7.88378 20.0751 7.85771C19.9743 7.77417 19.8873 7.566 19.8557 7.333L19.825 7.10626L19.6743 7.433C19.5907 7.61409 19.4891 7.78504 19.4462 7.81641C19.3584 7.88081 19.057 7.85417 18.8193 7.761L18.6615 7.69908L18.6489 7.50534C18.642 7.39875 18.6098 7.28953 18.5772 7.26258C18.4197 7.13201 18.4514 6.80168 18.644 6.56725C18.7446 6.44482 18.7872 6.42592 19.0708 6.37797C19.2441 6.34869 19.4588 6.31779 19.548 6.3093C19.7643 6.28877 19.5857 6.27598 19.2779 6.28998C19.0393 6.30083 18.4834 6.19047 18.3911 6.11395C18.3119 6.04831 18.2778 5.74257 18.3236 5.50858C18.3604 5.32039 18.3787 5.28381 18.4356 5.28541C18.4751 5.28654 18.5319 5.24541 18.5714 5.18698C18.7222 4.9643 19.197 5.03147 19.4402 5.30979C19.5237 5.40543 19.5304 5.40669 19.5281 5.32644C19.5198 5.03117 19.6769 4.78503 19.9363 4.68651C20.1169 4.61798 20.3558 4.63992 20.3263 4.72237C20.3148 4.75461 20.3783 4.82769 20.5205 4.94568C20.7664 5.14966 20.8541 5.33548 20.7911 5.51885L20.7523 5.63197L20.8609 5.5635C21.0983 5.41379 21.3903 5.54056 21.6493 5.90592C21.7188 6.00383 21.8101 6.11284 21.8523 6.14811C21.9234 6.20759 21.9206 6.22491 21.8141 6.38431C21.7508 6.47895 21.6683 6.64077 21.6306 6.74391C21.5885 6.85888 21.5288 6.9558 21.4762 6.99437C21.3573 7.08151 21.1026 7.0172 20.8401 6.83376C20.7241 6.75269 20.5738 6.6721 20.5061 6.65464C20.4385 6.63719 20.4165 6.63662 20.4574 6.65338C20.4983 6.67015 20.6269 6.75102 20.7432 6.83314L20.9547 6.98244L20.9736 7.19121C20.9873 7.34207 20.9615 7.48003 20.8808 7.68865L20.7691 7.97735L20.6501 7.94055ZM20.2808 6.58019C20.2277 6.58534 20.2283 6.59151 20.2836 6.61039C20.3219 6.62342 20.3519 6.62052 20.3504 6.60391C20.3488 6.58732 20.3175 6.57663 20.2808 6.58019ZM17.7349 8.93576C17.8037 8.83427 17.8034 8.83364 17.6132 8.64366C17.5084 8.53896 17.3973 8.40771 17.3663 8.35205C17.2948 8.22322 17.2299 8.17057 17.267 8.27153C17.2826 8.3138 17.3908 8.46698 17.5076 8.61193L17.7198 8.87545L17.6425 8.96796C17.588 9.03337 17.5806 9.06563 17.6175 9.07811C17.6463 9.08784 17.7204 9.1338 17.7823 9.18032C17.8943 9.26451 17.8942 9.26437 17.7804 9.1512C17.6743 9.04572 17.671 9.03017 17.7349 8.93576ZM20.0471 6.44278C20.0267 6.4261 20.0053 6.30209 19.9996 6.16725L19.9891 5.92203L19.9747 6.13725C19.9565 6.40665 19.9903 6.58634 20.0464 6.5187C20.0672 6.49362 20.0675 6.45946 20.0471 6.44278ZM20.5896 5.75961C20.5332 5.81471 20.4452 5.92074 20.394 5.99524C20.3427 6.06972 20.3889 6.02463 20.4964 5.89503C20.604 5.76545 20.6459 5.70451 20.5896 5.75961ZM18.0084 8.51785C17.9838 8.5311 17.9503 8.57048 17.934 8.60537C17.9177 8.64025 17.9379 8.6294 17.9788 8.58126C18.0197 8.53312 18.033 8.5046 18.0084 8.51785ZM12.7598 14.2567C12.7268 14.2456 12.7009 14.248 12.7022 14.2621C12.7035 14.2763 12.726 14.2908 12.7522 14.2945C12.8234 14.3044 12.8283 14.2799 12.7598 14.2567ZM17.1135 8.00416C17.0822 7.99407 17.0834 8.00685 17.1166 8.03675C17.1466 8.0638 17.1698 8.07127 17.1681 8.05337C17.1664 8.03546 17.1418 8.0133 17.1135 8.00416ZM12.9249 12.803C12.909 12.7748 12.818 12.6751 12.7228 12.5814L12.5495 12.411L12.7018 12.6024C12.8799 12.8261 12.8856 12.8465 12.782 12.8887C12.6432 12.9452 12.3324 13.1242 12.3491 13.138C12.365 13.1512 12.9043 12.9074 12.9369 12.8723C12.9462 12.8624 12.9407 12.8312 12.9249 12.803ZM17.5592 6.36909C17.3374 6.46136 16.9691 6.52638 16.9163 6.48258C16.8295 6.41066 17.1758 5.54228 17.3273 5.45212C17.3642 5.43013 17.4972 5.4058 17.6227 5.39801C17.8115 5.38632 17.8666 5.36518 17.9404 5.27603C18.0154 5.1856 18.04 5.1766 18.0927 5.22032C18.179 5.29183 18.1918 5.59399 18.116 5.7728C18.0115 6.01957 17.7651 6.28343 17.5592 6.36909ZM10.1535 14.9899L10.002 15.0804L9.97537 14.8192L9.94877 14.558L10.1444 14.3206C10.3517 14.0691 10.4448 13.841 10.4102 13.6689C10.398 13.6075 10.3894 13.6289 10.383 13.7373C10.3748 13.8764 10.3444 13.933 10.1271 14.2133L9.88053 14.5314L9.82113 14.2913C9.787 14.1534 9.77738 13.9583 9.79851 13.8331C9.844 13.5634 9.80663 13.5906 9.75487 13.8648C9.7168 14.0666 9.78441 14.4663 9.86902 14.5396C9.89438 14.5615 9.91748 14.6601 9.92034 14.7586L9.92554 14.9377L9.77892 14.9877C9.69829 15.0152 9.62915 15.0392 9.6253 15.0411C9.62145 15.043 9.53331 14.954 9.42942 14.8434C9.17921 14.5769 9.0375 14.2363 9.02125 13.8622C9.00631 13.5185 9.07873 13.1947 9.18416 13.1337C9.29143 13.0718 9.33639 13.1066 9.27064 13.2007C9.17022 13.3447 9.14116 13.5555 9.18179 13.8462C9.2258 14.1612 9.30909 14.3503 9.45178 14.4593C9.53848 14.5255 9.53796 14.5214 9.44586 14.4141C9.29588 14.2392 9.2431 14.0807 9.22727 13.7571C9.20479 13.299 9.34315 13.0713 9.66201 13.0416C9.80623 13.0282 9.82961 13.0387 9.97749 13.1834C10.0816 13.2853 10.1129 13.3062 10.0675 13.2436C10.0009 13.1519 10.0016 13.149 10.0828 13.1801C10.1296 13.1981 10.2018 13.1989 10.2432 13.1821C10.3552 13.1364 10.598 13.2951 10.7044 13.4836C10.884 13.8016 10.855 14.1886 10.6279 14.5063C10.521 14.6559 10.4663 14.7098 10.442 14.6896C10.417 14.6689 10.4029 14.6837 10.3908 14.7433C10.3696 14.8477 10.3399 14.8785 10.1535 14.9899ZM16.5081 7.33753C16.5008 7.33147 16.5046 7.19063 16.5166 7.02452C16.5537 6.50837 16.3301 6.32109 15.679 6.32292L15.5543 6.32326L15.6987 6.29916C15.9495 6.25734 16.6397 6.35278 16.7504 6.44456C16.8045 6.48939 16.8465 6.54255 16.8437 6.56275C16.8408 6.58292 16.783 6.69382 16.715 6.80918C16.6471 6.92455 16.5806 7.08721 16.5673 7.17068C16.5425 7.32577 16.5315 7.35688 16.5081 7.33753ZM10.4292 14.4738C10.4128 14.3984 10.4109 14.3985 10.4088 14.4757C10.4076 14.5225 10.4116 14.565 10.4177 14.57C10.442 14.5902 10.4465 14.553 10.4292 14.4738ZM16.7851 6.39928C16.7443 6.38276 16.657 6.35316 16.5912 6.33347C16.5081 6.30866 16.3708 6.20755 16.1429 6.00353C15.8212 5.71564 15.8108 5.70163 15.6498 5.34472C15.4638 4.93237 15.452 4.73541 15.5939 4.40808C15.6817 4.2053 15.7578 4.13217 15.8944 4.1195C16.0528 4.10476 16.0903 4.20363 16.1387 4.76353C16.1974 5.44191 16.301 5.71826 16.6072 6.01365C16.7372 6.13911 16.8157 6.24472 16.833 6.31761C16.8585 6.42526 16.8568 6.42822 16.7851 6.39928ZM16.7098 6.02957C16.4655 5.79283 16.3596 5.61198 16.272 5.28219C16.2045 5.02787 16.2055 4.97424 16.2815 4.78767C16.4069 4.48021 16.6437 4.24232 16.8278 4.23901C16.9037 4.23769 16.975 4.24428 16.9862 4.25369C16.9974 4.26309 16.9817 4.35058 16.9514 4.44816C16.8898 4.64623 16.9125 4.83735 17.0296 5.10738C17.1541 5.3944 17.1547 5.53162 17.0329 5.82228C16.972 5.96759 16.9137 6.11174 16.9033 6.1426C16.8876 6.18907 16.8542 6.16957 16.7098 6.02957ZM11.409 12.3961C11.384 12.4095 11.3565 12.4427 11.3479 12.4698C11.3393 12.4968 11.3597 12.4858 11.3933 12.4453C11.4269 12.4047 11.434 12.3826 11.409 12.3961ZM10.1805 13.1476C10.0201 13.1545 10.0151 13.1032 10.1698 13.0366C10.2504 13.0018 10.3305 12.9563 10.3478 12.9355C10.3651 12.9146 10.3926 12.9085 10.4088 12.9219C10.4607 12.965 10.2803 13.1433 10.1805 13.1476ZM9.89074 13.4869C9.89516 13.4496 9.88779 13.4323 9.87436 13.4485C9.86092 13.4647 9.84631 13.5085 9.84188 13.5459C9.83746 13.5832 9.84482 13.6005 9.85826 13.5843C9.87169 13.5681 9.88631 13.5243 9.89074 13.4869ZM14.1004 8.24262C14.0174 8.21884 13.8829 8.19137 13.8013 8.18157C13.6882 8.16799 13.6321 8.13859 13.5649 8.05764C13.449 7.91827 13.5054 7.88993 13.781 7.949C13.9361 7.9822 14.0484 8.03339 14.1485 8.11634C14.3211 8.25936 14.3051 8.30126 14.1004 8.24262ZM12.207 10.5968C12.1152 10.6053 12.1048 10.536 12.175 10.3832C12.2611 10.1954 12.342 9.90611 12.3748 9.66767C12.4168 9.36331 12.2052 9.05506 11.8718 8.93468C11.7679 8.89715 11.7053 8.90499 11.5939 8.96932C11.4027 9.07972 11.0209 9.15941 11.0645 9.07982C11.0819 9.04811 11.1332 9.00705 11.1786 8.98855C11.2773 8.94839 11.2758 8.94665 11.0942 8.89113C10.9145 8.8362 10.7122 8.66762 10.6627 8.53167C10.6268 8.43272 10.6318 8.43459 10.7584 8.5679C10.8907 8.70715 11.1592 8.85838 11.2312 8.83414C11.2517 8.82723 11.1922 8.78935 11.099 8.74993C10.9156 8.67239 10.7577 8.50336 10.6651 8.28551C10.6072 8.14934 10.5835 8.12555 10.5739 8.19414C10.5695 8.22605 10.5604 8.22689 10.5502 8.19634C10.5171 8.09848 10.6496 7.9995 10.7827 8.02256L10.9103 8.04469L10.9114 7.83071C10.9124 7.62599 10.9167 7.61613 11.0102 7.60273C11.1513 7.58247 11.354 7.67315 11.4839 7.8147C11.5815 7.92108 11.6042 7.93091 11.6532 7.88822C11.7088 7.83977 11.711 7.8415 11.7872 7.9968C11.8849 8.19579 11.8636 8.49083 11.7467 8.55838C11.6677 8.60403 11.6668 8.60278 11.6124 8.37349C11.5803 8.238 11.5602 8.19382 11.5638 8.26654L11.5699 8.39049L11.4001 8.25386C11.3066 8.17872 11.1653 8.10102 11.0859 8.08118C11.0065 8.06136 10.9751 8.05865 11.0162 8.07518C11.0573 8.09167 11.2006 8.18473 11.3346 8.28195C11.5444 8.4341 11.5867 8.48051 11.6386 8.61526C11.6996 8.77406 11.8247 8.86078 11.9378 8.82273C11.9984 8.80233 12.2612 9.02358 12.3697 9.18643C12.4825 9.35557 12.5075 9.81102 12.4221 10.1409C12.3514 10.4139 12.2678 10.5911 12.207 10.5968ZM14.1683 7.7897C13.8733 7.90696 13.4695 7.84556 13.438 7.67866C13.431 7.64191 13.4415 7.54806 13.4613 7.47009C13.4961 7.33292 13.503 7.32632 13.6784 7.26268C13.9164 7.17632 13.9456 7.13637 13.725 7.19899C13.6219 7.22825 13.5206 7.28685 13.4761 7.34294C13.4096 7.42692 13.3831 7.4314 13.2399 7.38271C13.1511 7.35255 12.9678 7.32764 12.8324 7.32739C12.6011 7.3269 12.5792 7.31898 12.4685 7.19624C12.2918 7.00014 12.1959 6.78027 12.158 6.48424C12.1252 6.22821 12.1575 5.84133 12.212 5.83626C12.2628 5.83153 12.9968 6.16743 13.0693 6.22855C13.1657 6.30996 13.2861 6.56147 13.3866 6.89172C13.456 7.11978 13.4639 7.133 13.4406 6.98173C13.4066 6.7606 13.2464 6.34435 13.1487 6.22294C13.1082 6.17268 13.0183 6.10684 12.9489 6.07669C12.8551 6.03591 12.8245 6.00755 12.8297 5.96613C12.8412 5.8753 12.9363 5.78186 13.0258 5.77354C13.0891 5.76765 13.1133 5.7457 13.1262 5.68244C13.1538 5.5461 13.2975 5.40141 13.421 5.38551C13.6335 5.35811 13.8765 5.55504 13.7775 5.6744C13.7052 5.76164 13.6747 5.93967 13.6756 6.26997C13.6764 6.59596 13.642 6.79882 13.5714 6.88402C13.5454 6.91538 13.5413 6.99467 13.5623 7.06015L13.6005 7.17924L13.5941 7.05177C13.5906 6.98162 13.605 6.90356 13.626 6.87821C13.7065 6.78107 13.7515 6.5327 13.7391 6.25405C13.7245 5.92411 13.7729 5.72135 13.8861 5.63832C14.0994 5.48196 14.2584 5.65663 14.2977 6.09046L14.3256 6.39868L14.4011 6.2905C14.4702 6.19138 14.4859 6.18722 14.5884 6.24098C14.6499 6.27329 14.7516 6.30547 14.8143 6.31256C14.9262 6.32524 14.9279 6.32848 14.9091 6.49648C14.8552 6.97758 14.4554 7.67558 14.1683 7.7897ZM9.85372 12.9591C9.82486 12.9352 9.72627 12.9125 9.63456 12.9087C9.54291 12.905 9.37837 12.8713 9.26893 12.8338L9.06995 12.7656L9.18976 12.7487C9.25564 12.7394 9.35124 12.7141 9.40217 12.6925C9.57216 12.6203 9.90591 12.7762 9.90609 12.9279C9.90615 12.9895 9.89701 12.9949 9.85372 12.9591ZM13.3766 8.02344C13.3613 8.01078 13.3516 7.98037 13.355 7.95585C13.3584 7.93132 13.313 7.87132 13.2541 7.82251C13.1718 7.75428 13.082 7.73203 12.8655 7.72625C12.211 7.70876 11.7804 7.43675 11.7773 7.0388C11.7758 6.86143 11.8328 6.76881 11.8895 6.85641C11.9104 6.88889 11.9696 6.98968 12.021 7.08043C12.1475 7.304 12.3045 7.3673 12.7882 7.38958C13.262 7.41144 13.3582 7.45317 13.3687 7.64144C13.3744 7.74294 13.3978 7.78973 13.4543 7.81265C13.5204 7.83944 13.5214 7.85102 13.4611 7.88972C13.4194 7.9166 13.4032 7.94604 13.4217 7.96142C13.4391 7.97577 13.4422 8.00078 13.4288 8.01698C13.4154 8.03319 13.3919 8.03611 13.3766 8.02344ZM13.1494 8.08377C13.0806 8.12238 12.9896 8.19368 12.9472 8.24225C12.9049 8.2908 12.8304 8.34056 12.7818 8.35281C12.6978 8.37399 12.6952 8.36769 12.7309 8.22595C12.7752 8.05 12.8692 7.9697 13.0742 7.93268C13.1538 7.91831 13.2176 7.89269 13.216 7.87575C13.2144 7.85879 13.2349 7.87535 13.2616 7.91245C13.3172 7.98975 13.3171 7.98978 13.1494 8.08377ZM13.9947 7.05768C13.9768 7.05934 13.9547 7.0839 13.9456 7.11221C13.9355 7.14354 13.9483 7.14235 13.9781 7.10918C14.0052 7.07917 14.0126 7.05601 13.9947 7.05768ZM12.0077 8.72845C11.8318 8.80365 11.6884 8.73558 11.7827 8.6217C11.8168 8.58062 11.9054 8.51887 11.9797 8.48452C12.0931 8.43202 12.1322 8.39077 12.2245 8.22584C12.2849 8.11792 12.3419 8.02857 12.3512 8.0273C12.3605 8.02603 12.3542 8.11031 12.3372 8.21456C12.2942 8.47816 12.1814 8.6542 12.0077 8.72845ZM-2.78519 26.3732C-2.90005 26.4148 -3.13666 26.5407 -3.31097 26.6531C-3.70484 26.9071 -3.79471 26.9352 -3.96623 26.8583C-4.45248 26.6403 -4.47535 26.2763 -4.0097 26.1654C-3.30912 25.9987 -3.09901 25.7685 -2.68653 24.7154C-2.45246 24.1177 -2.44567 24.0065 -2.62597 23.7234C-2.77821 23.4845 -2.8837 23.2137 -3.07482 22.5709C-3.27181 21.9085 -3.36322 21.7011 -3.71055 21.1284C-4.04254 20.581 -4.11799 20.4203 -4.17386 20.1417L-4.21509 19.9362L-4.04463 19.7306L-3.87416 19.5249L-3.81347 19.8257C-3.77619 20.0107 -3.70305 20.2064 -3.62369 20.3336C-3.48566 20.5548 -3.06078 21.0058 -3.02785 20.9661C-3.01696 20.953 -2.98616 20.776 -2.9594 20.5729C-2.89935 20.117 -2.71973 19.3996 -2.56524 18.9984C-2.50138 18.8326 -2.43973 18.6299 -2.42825 18.5479L-2.40738 18.3989L-2.18374 18.3781C-1.91831 18.3534 -1.90917 18.3675 -1.91181 18.7987C-1.91461 19.2602 -2.02321 19.6532 -2.3129 20.2501C-2.72367 21.0966 -2.72944 21.2927 -2.36649 22.0731C-2.17283 22.4895 -2.14118 22.5989 -2.08917 23.0308C-2.03869 23.4504 -2.00784 23.5604 -1.86835 23.8186C-1.67692 24.173 -1.63349 24.3678 -1.69631 24.5903C-1.72167 24.6801 -1.91374 25.0698 -2.12318 25.4562C-2.33261 25.8427 -2.52023 26.1901 -2.54017 26.2283C-2.56007 26.2665 -2.67033 26.3317 -2.78519 26.3732ZM11.5084 8.81183C11.5028 8.80719 11.4482 8.81229 11.3871 8.82312L11.2759 8.84284L11.3888 8.84172C11.4949 8.84067 11.532 8.8314 11.5084 8.81183ZM6.10018 14.9474C5.87913 15.0516 5.62604 15.0832 5.1511 15.0659C4.92331 15.0576 4.58692 15.0476 4.40355 15.0436C4.22015 15.0397 4.0691 15.0258 4.06791 15.0129C4.06666 15 4.11408 14.9027 4.17322 14.7967C4.23237 14.6908 4.36055 14.3962 4.45804 14.1422C4.61712 13.7278 4.66022 13.6499 4.87755 13.3839C5.15427 13.0453 5.31061 12.9491 5.74216 12.8521C6.0397 12.7853 6.191 12.819 6.48047 13.0168L6.70109 13.1676L6.60444 13.3837C6.54165 13.524 6.5038 13.7055 6.4964 13.9013C6.47139 14.5626 6.47071 14.5666 6.36172 14.7224C6.2885 14.8271 6.20742 14.8968 6.10018 14.9474ZM3.30234 15.9947C3.28444 15.9964 3.26229 16.0209 3.25321 16.0493C3.24313 16.0806 3.25591 16.0794 3.28579 16.0462C3.3128 16.0162 3.32025 15.9931 3.30234 15.9947ZM11.153 6.37938C11.1366 6.36576 11.14 6.33432 11.1606 6.30948C11.1811 6.28467 11.2685 5.99352 11.3547 5.66247C11.5223 5.01902 11.6235 4.7258 11.7102 4.63232C11.7625 4.576 11.763 4.57638 11.7283 4.64373C11.7085 4.68201 11.6168 5.03112 11.5245 5.4195C11.3689 6.0746 11.2271 6.44081 11.153 6.37938ZM2.51126 14.5682C1.91635 14.3165 1.78785 14.2389 1.15951 13.7518C0.490949 13.2335 0.425948 13.2059 0.0678697 13.2885C-0.190795 13.3481 -0.49231 13.5818 -0.915997 14.0511C-1.47979 14.6757 -1.56537 14.9609 -1.44865 15.8263C-1.36542 16.4434 -1.37853 16.9118 -1.49093 17.3364C-1.57947 17.6709 -1.804 18.2014 -1.85915 18.2066C-1.87803 18.2083 -1.97309 18.0786 -2.0704 17.9182L-2.24731 17.6266L-2.13821 17.3664C-1.90474 16.8094 -1.84446 16.3874 -1.86483 15.4523C-1.88908 14.3389 -1.69979 13.8486 -1.05471 13.3539C-0.91266 13.245 -0.673918 13.0524 -0.524131 12.926L-0.251826 12.6961L-0.0822102 12.2731C0.113025 11.7861 0.510665 10.5516 0.629454 10.0637C0.71277 9.72141 0.724739 9.49497 0.694268 8.83472C0.672084 8.35316 0.718927 8.04123 0.890319 7.52929C0.9649 7.30652 1.03379 7.03607 1.04337 6.92837C1.06477 6.68827 1.01713 6.24577 0.930584 5.88115C0.89495 5.731 0.879213 5.59829 0.895593 5.58621C0.911999 5.5741 0.762806 5.54019 0.564096 5.51083C0.184658 5.45473 0.152177 5.44227 0.118901 5.34027C0.105778 5.30001 0.0745359 5.27705 0.0329169 5.27706C-0.0673814 5.27705 -0.145967 5.09315 -0.0650024 5.04789C0.0842663 4.96448 0.309633 4.74776 0.554979 4.45174C0.759972 4.2044 0.862219 4.10812 1.00978 4.0236C1.34552 3.83123 1.75599 3.81138 1.95682 3.97783C1.99473 4.00925 2.05605 4.12824 2.0931 4.24227C2.13014 4.35625 2.19051 4.48663 2.22729 4.53198C2.29402 4.61423 2.29355 4.61533 2.00675 5.03789C1.84866 5.27079 1.67594 5.49521 1.62293 5.53653C1.55826 5.587 1.45261 5.60871 1.30181 5.60261C1.17819 5.59759 1.07477 5.60202 1.07198 5.61248C1.06921 5.62291 1.09712 5.75776 1.13405 5.91217C1.25768 6.42933 1.22595 6.88927 0.995965 7.91272C0.830525 8.649 0.827169 8.67689 0.838282 9.2327C0.842814 9.45959 0.833205 9.75411 0.816934 9.88719C0.768792 10.2806 0.387143 11.9036 0.29866 12.0911C0.211327 12.2761 0.208504 12.2707 0.464778 12.4084C0.608354 12.4855 1.42817 12.1665 1.59085 11.9702C1.62441 11.9297 1.65097 11.9263 1.66991 11.9599C1.69059 11.9966 1.71699 11.9479 1.76562 11.7835C1.80261 11.6587 1.83887 11.5223 1.84623 11.4806C1.85844 11.4113 1.87832 11.4202 2.07395 11.582C2.32381 11.7888 2.491 11.8711 2.70457 11.8924C2.87604 11.9096 3.171 11.8364 3.29209 11.7467C3.34089 11.7106 3.3109 11.7136 3.21392 11.7547C3.00072 11.8449 2.79711 11.8635 2.58751 11.8118C2.44484 11.7767 2.35635 11.7218 2.10872 11.5151C1.64994 11.1321 1.24873 10.7155 1.19365 10.5649L1.14642 10.4357L1.40428 10.105C1.65004 9.78995 1.67045 9.77187 1.83795 9.72117C1.93463 9.69192 2.06388 9.67067 2.12518 9.674C2.23565 9.67999 2.23696 9.68322 2.26889 10.0222C2.29269 10.2749 2.34197 10.4538 2.45723 10.7062C2.60079 11.0205 2.63444 11.0668 2.87588 11.2812L3.13843 11.5143L2.93695 11.3036C2.48292 10.8288 2.23514 10.156 2.29816 9.56902C2.31296 9.43105 2.28886 9.32043 2.20767 9.1539C2.14686 9.02903 2.09486 8.87754 2.09223 8.81724C2.0874 8.70829 2.0885 8.70751 2.27193 8.68756C2.73871 8.63677 3.18981 8.96495 3.59434 9.64966C3.72095 9.86397 3.84345 10.081 3.86654 10.132C3.90593 10.2189 3.9074 10.219 3.88983 10.1335C3.86379 10.0069 3.61816 9.54789 3.45614 9.32291C3.38213 9.22015 3.2391 9.06776 3.1383 8.98422L2.95507 8.83235L3.09699 8.61816C3.20213 8.45954 3.28211 8.37638 3.40527 8.29763C3.49676 8.23912 3.58062 8.16455 3.59164 8.13186C3.60663 8.08746 3.62225 8.08862 3.65337 8.13634C3.67627 8.17148 3.81437 8.38015 3.96024 8.60004C4.28827 9.09455 4.32392 9.17591 4.34743 9.48296C4.36343 9.69211 4.36763 9.7029 4.37598 9.55584C4.38396 9.4145 4.40318 9.37131 4.48187 9.31756C4.58841 9.24482 4.82435 9.13869 4.84377 9.15478C4.89871 9.20032 5.03708 9.70216 5.04725 9.8927C5.06071 10.1453 5.02943 10.2837 4.93248 10.4007C4.87281 10.4727 4.87215 10.4718 4.72496 10.1256C4.64372 9.93456 4.58798 9.83293 4.60107 9.89971C4.61416 9.9665 4.67501 10.1386 4.73628 10.2821C4.86779 10.5901 4.88495 10.8472 4.78817 11.0589C4.6357 11.3925 4.2005 11.7061 3.95853 11.6568C3.89687 11.6442 3.77598 11.6569 3.68986 11.685C3.54022 11.7338 3.52996 11.7439 3.45773 11.915C3.40878 12.031 3.33641 12.135 3.25216 12.2103C3.06926 12.3739 2.54545 12.6493 2.33079 12.6946C2.01064 12.7623 1.76181 12.5951 1.74022 12.2976C1.73398 12.2118 1.71853 12.1329 1.70587 12.1225C1.69321 12.112 1.69089 12.1883 1.70066 12.2922C1.71044 12.396 1.73792 12.497 1.7617 12.5168C1.81756 12.563 1.82478 12.5571 1.54633 12.6941C1.41499 12.7587 1.22385 12.8652 1.12155 12.9308C1.01924 12.9964 0.878117 13.0528 0.807865 13.0562C0.659942 13.0632 0.679029 13.0989 0.837674 13.1118C1.00051 13.1251 1.18772 13.2764 1.37602 13.5467C1.56501 13.818 1.70597 13.9234 2.09634 14.0851C2.28941 14.1652 2.3438 14.2028 2.39977 14.2955C2.4405 14.3628 2.55563 14.4694 2.68542 14.5598C2.80501 14.6431 2.89974 14.7151 2.89593 14.7197C2.89214 14.7242 2.71902 14.6561 2.51126 14.5682ZM6.79003 9.72379C6.69847 9.64791 6.54136 9.61886 6.4534 9.66156C6.4089 9.68319 6.30973 9.73276 6.23302 9.77174C6.08377 9.84756 6.0494 9.83786 5.99502 9.7048C5.97596 9.65813 5.88289 9.52311 5.78817 9.40479C5.69352 9.28646 5.59385 9.13748 5.56673 9.07369C5.50131 8.91984 5.49174 8.70498 5.54728 8.63796C5.61343 8.55814 5.78971 8.59362 5.94648 8.71838C6.10359 8.84333 6.12974 8.90925 6.19087 9.33385C6.22413 9.56481 6.23719 9.60113 6.24626 9.48774C6.26544 9.24809 6.19119 8.88431 6.10099 8.77579C6.02776 8.6877 6.02606 8.65065 6.08721 8.4773C6.17332 8.23316 6.31053 7.99915 6.36324 8.00655C6.38493 8.00956 6.4245 8.09028 6.45118 8.18583C6.47787 8.28143 6.53773 8.48637 6.5842 8.64127C6.68748 8.98535 6.64788 9.4071 6.52209 9.30285C6.50026 9.28475 6.43367 9.27729 6.37412 9.2862L6.2658 9.30248L6.44213 9.34257C6.64042 9.3877 6.83091 9.52883 6.85973 9.65189C6.88476 9.75886 6.86141 9.78295 6.79003 9.72379ZM6.67378 9.36667C6.65926 9.3434 6.66369 9.21656 6.68363 9.08483C6.72089 8.83814 6.81664 8.67607 6.95937 8.61791C7.0644 8.57515 7.10655 8.61834 7.03928 8.69986C7.00912 8.73636 6.9513 8.87304 6.91082 9.00355C6.83051 9.26236 6.71707 9.43616 6.67378 9.36667ZM8.47106 6.17012C8.14724 6.32005 8.06827 6.30705 7.64789 6.03441C7.4346 5.89611 7.19841 5.7721 7.08491 5.73889C6.9529 5.70022 6.8589 5.64782 6.79556 5.57752C6.74392 5.52026 6.77 5.57533 6.8535 5.69992C7.06188 6.01075 7.13153 6.1867 7.142 6.42871C7.15847 6.80942 6.98932 7.01999 6.63646 7.05806C6.53265 7.06927 6.31321 7.11068 6.14884 7.1501C5.77438 7.23987 5.57768 7.20358 5.33674 7.0002C5.13599 6.83078 5.03419 6.62888 5.01669 6.36539C5.00568 6.2 5.00776 6.19605 5.27134 5.88795C5.52347 5.59322 5.55519 5.56811 5.89049 5.3982C6.08482 5.29969 6.32651 5.20224 6.42756 5.18164C6.52861 5.16103 6.61033 5.13583 6.60913 5.12569C6.60429 5.0842 5.53979 4.01056 5.47901 3.98594C5.34065 3.92983 5.27956 3.32315 5.38057 3.00813C5.40082 2.94502 5.50621 2.76568 5.61479 2.60957C5.72337 2.45346 5.83167 2.28399 5.85543 2.23298C5.89853 2.14044 5.89926 2.14064 6.23501 2.33629C6.66265 2.58551 6.8056 2.70623 6.89721 2.89532C7.02658 3.16239 7.0201 3.47158 6.8719 4.09895C6.7963 4.41911 6.74261 4.67168 6.75263 4.66019C6.79893 4.60709 7.04348 3.69783 7.05885 3.52164C7.06836 3.41269 7.06196 3.22954 7.04461 3.11463C7.00886 2.87773 7.05479 2.79618 7.24141 2.7653C7.35056 2.74723 7.4305 2.77739 7.74391 2.95477C7.94888 3.0708 8.17203 3.18754 8.23975 3.21418C8.35323 3.25887 8.36511 3.27757 8.39068 3.45248C8.40595 3.55693 8.44168 3.71098 8.47007 3.79492C8.55929 4.05843 8.47945 4.20749 8.06726 4.54735C7.93874 4.65328 7.83449 4.74939 7.83561 4.7609C7.83748 4.7808 8.00048 4.65866 8.24443 4.4546C8.33316 4.38033 8.39782 4.3661 8.56419 4.38403C8.67888 4.39645 8.78141 4.41376 8.79203 4.42257C8.83965 4.46204 8.81841 4.69859 8.74189 4.98021C8.66049 5.27986 8.66452 5.39139 8.7684 5.71245C8.83142 5.90727 8.74215 6.04464 8.47106 6.17012ZM3.90124 11.0055C3.83733 10.7094 3.8697 10.4587 4.00521 10.1995L4.08662 10.0436L3.98646 10.1844C3.84681 10.3806 3.78068 10.6774 3.82543 10.9071C3.84625 11.014 3.87553 11.2123 3.89053 11.3478C3.91714 11.5885 3.91823 11.5905 3.93931 11.4379C3.95116 11.3521 3.93402 11.1574 3.90124 11.0055ZM-2.16865 18.3408C-2.31928 18.3558 -2.59276 18.3872 -2.7764 18.4106C-3.15588 18.4589 -3.3339 18.4251 -3.55512 18.2628L-3.70965 18.1493L-3.67194 18.4206C-3.60226 18.9218 -3.7782 19.3852 -4.20874 19.8344L-4.45338 20.0897L-4.49193 19.9232C-4.52442 19.7831 -4.56082 19.7311 -4.723 19.5934C-4.99076 19.3661 -5.09491 19.0731 -5.05167 18.6687L-5.02901 18.4566L-4.87552 18.4212C-4.61638 18.3615 -4.67393 18.3439 -4.95033 18.3984C-5.22622 18.4527 -5.71345 18.6481 -5.92657 18.7898L-6.05431 18.8747L-6.03724 18.5066C-6.02786 18.3041 -5.98864 18.0158 -5.95006 17.866C-5.88794 17.6247 -5.85486 17.5632 -5.66075 17.3277C-5.44043 17.0605 -5.38911 17.0246 -5.07574 16.9177L-4.94825 16.8742L-5.09881 16.8986C-5.18161 16.912 -5.30137 16.9526 -5.36487 16.9888C-5.52964 17.0827 -5.59226 17.0093 -5.51023 16.8186C-5.42635 16.6235 -5.38465 16.3069 -5.41417 16.0891C-5.43542 15.9326 -5.43676 15.936 -5.43612 16.1452C-5.43465 16.627 -5.5794 16.9783 -6.08549 17.7215C-6.27596 18.0011 -6.45813 18.2765 -6.49028 18.3334C-6.54044 18.4221 -6.56484 18.4324 -6.66169 18.4062C-6.72374 18.3893 -6.84069 18.3324 -6.92149 18.2798C-7.04916 18.1966 -7.07498 18.1584 -7.11804 17.9889C-7.14535 17.8815 -7.16204 17.7066 -7.15515 17.6001C-7.14217 17.3992 -7.02918 17.0256 -6.95397 16.9348C-6.923 16.8975 -6.99097 16.8889 -7.19391 16.9045C-7.51735 16.9294 -7.96185 16.8684 -8.41686 16.7367L-8.73043 16.6459L-8.63507 16.4898C-8.42194 16.1412 -7.89654 15.4746 -7.75876 15.3781C-7.61169 15.275 -7.60527 15.2762 -7.31455 15.4599C-7.11326 15.5871 -6.7206 15.6762 -6.43643 15.6592C-6.28989 15.6504 -6.26774 15.6439 -6.3742 15.6408C-6.82066 15.6279 -7.3022 15.4457 -7.64491 15.1601C-7.9743 14.8856 -8.07906 14.6496 -8.17013 13.977C-8.20638 13.7095 -8.27484 13.7295 -7.55679 13.7976C-7.21358 13.8301 -7.03443 13.8695 -6.88677 13.9449C-6.68924 14.0458 -6.68547 14.0501 -6.6976 14.158C-6.72379 14.3915 -6.69821 14.6168 -6.62259 14.8187C-6.57931 14.9342 -6.53024 15.0393 -6.51352 15.0521C-6.49683 15.065 -6.51331 15.0038 -6.55011 14.9161C-6.73305 14.4804 -6.70083 14.1053 -6.45534 13.8131C-6.14998 13.4496 -5.66967 13.156 -5.45274 13.2002C-5.38243 13.2145 -5.37495 13.2509 -5.39782 13.4667C-5.42575 13.7306 -5.3862 13.898 -5.24342 14.1203C-5.1167 14.3176 -5.09038 14.4328 -5.12439 14.6414C-5.15729 14.8435 -5.34519 15.2313 -5.50353 15.424C-5.58707 15.5257 -5.59521 15.5609 -5.55462 15.6446C-5.52806 15.6994 -5.50036 15.7427 -5.49308 15.7408C-5.48583 15.739 -5.41505 15.7018 -5.33576 15.6581C-5.22853 15.5991 -5.18013 15.5931 -5.14671 15.6349C-5.00754 15.809 -4.73806 15.9915 -4.53433 16.0496L-4.31814 16.1112L-4.18533 15.9128C-3.90882 15.4997 -3.55531 15.3415 -3.23912 15.4892C-3.16138 15.5255 -2.93995 15.6791 -2.74711 15.8304L-2.39641 16.1055L-2.47388 16.2651C-2.82124 16.9806 -3.13766 17.2819 -3.63384 17.3695L-3.82912 17.404L-3.65853 17.3962C-3.46372 17.3874 -3.16672 17.27 -2.99858 17.1355C-2.89939 17.0561 -2.86666 17.0521 -2.75468 17.1059C-2.60422 17.1781 -2.47899 17.3421 -2.12602 17.929L-1.89478 18.3135L-2.16865 18.3408ZM4.29751 9.8093C4.2796 9.81097 4.25746 9.83552 4.24838 9.86384C4.2383 9.89516 4.25108 9.89397 4.28095 9.86081C4.30797 9.8308 4.31542 9.80764 4.29751 9.8093ZM7.59883 4.87957C7.58733 4.88143 7.5346 4.903 7.48169 4.92751C7.39101 4.96954 7.39082 4.97097 7.4788 4.95291C7.55537 4.93717 7.66778 4.8685 7.59883 4.87957ZM6.63865 5.38806C6.60734 5.37797 6.60855 5.39076 6.64175 5.42066C6.6718 5.4477 6.69498 5.45518 6.69329 5.43727C6.6916 5.41937 6.66702 5.3972 6.63865 5.38806ZM6.34263 5.15181C6.27113 5.17459 6.0141 5.29283 5.77141 5.4146C5.39558 5.60322 5.28949 5.63795 5.05475 5.64917C4.88779 5.65717 4.70926 5.63409 4.60171 5.59059C4.1686 5.41542 4.01116 5.25243 3.91947 4.88434L3.86538 4.66709L4.0448 4.57848C4.18269 4.51036 4.28033 4.42463 4.46647 4.20826C4.79262 3.82916 4.93056 3.78831 5.30362 3.96044C5.4403 4.02345 5.54996 4.11455 5.86376 4.42569C6.39285 4.95032 6.50978 5.07517 6.48973 5.0942C6.48034 5.10312 6.41415 5.12906 6.34263 5.15181ZM-4.59158 18.2522C-4.60948 18.2539 -4.63163 18.2784 -4.64071 18.3068C-4.65079 18.3381 -4.63801 18.3369 -4.60813 18.3037C-4.58112 18.2737 -4.57367 18.2505 -4.59158 18.2522ZM-4.30045 17.8958C-4.33141 17.9181 -4.36985 17.9645 -4.38594 17.999C-4.40206 18.0335 -4.37673 18.0153 -4.32971 17.9586C-4.28269 17.9019 -4.26952 17.8736 -4.30045 17.8958ZM-4.12343 17.4557C-4.12569 17.3318 -4.1312 17.3221 -4.16191 17.3881C-4.20031 17.4705 -4.1859 17.6789 -4.1452 17.6298C-4.13177 17.6136 -4.12195 17.5353 -4.12343 17.4557ZM-5.63748 17.1481C-5.64541 17.1247 -5.63541 17.0856 -5.61525 17.0613C-5.5951 17.037 -5.57212 17.0363 -5.5642 17.0597C-5.55628 17.0832 -5.56628 17.1223 -5.58643 17.1466C-5.60658 17.1709 -5.62956 17.1716 -5.63748 17.1481ZM-6.78752 16.7543C-6.8125 16.7678 -6.83998 16.8009 -6.84858 16.828C-6.85719 16.855 -6.83677 16.844 -6.80318 16.8035C-6.76959 16.7629 -6.76254 16.7408 -6.78752 16.7543ZM-6.57869 16.5058C-6.59659 16.5075 -6.61874 16.5321 -6.62782 16.5604C-6.6379 16.5917 -6.62512 16.5905 -6.59525 16.5573C-6.56823 16.5273 -6.56078 16.5042 -6.57869 16.5058ZM-6.43721 16.2751C-6.45511 16.2767 -6.47725 16.3013 -6.48634 16.3296C-6.49642 16.3609 -6.48364 16.3597 -6.45376 16.3266C-6.42675 16.2966 -6.4193 16.2734 -6.43721 16.2751ZM-6.34458 16.1033C-6.36248 16.1049 -6.38462 16.1295 -6.39371 16.1578C-6.40379 16.1891 -6.39101 16.1879 -6.36113 16.1548C-6.33412 16.1247 -6.32667 16.1016 -6.34458 16.1033ZM0.262629 7.62978C0.0769588 7.69351 -0.0637533 7.6705 -0.258221 7.54468C-0.396433 7.45523 -0.438919 7.40301 -0.520484 7.2224C-0.671063 6.88903 -0.637167 6.24385 -0.44635 5.8102C-0.359946 5.61389 -0.359971 5.61362 -0.451752 5.75805C-0.570753 5.94535 -0.632565 6.16881 -0.66634 6.53399C-0.693201 6.8244 -0.695772 6.83032 -0.902075 7.07731C-1.1605 7.38671 -1.30959 7.48011 -1.56182 7.49071C-1.8835 7.50426 -2.44755 7.27392 -2.44772 7.1289C-2.44778 7.09097 -2.38597 6.89952 -2.31039 6.70353C-2.18765 6.38524 -2.15039 6.32335 -1.96176 6.12446C-1.8456 6.00197 -1.68669 5.86435 -1.6086 5.81865L-1.46665 5.73555L-1.65909 5.68961C-2.09606 5.58527 -2.53503 5.14235 -2.69068 4.64876C-2.73653 4.50342 -2.76539 4.37434 -2.75486 4.36199C-2.70983 4.30917 -2.41519 4.13067 -2.27349 4.07032C-1.82743 3.8804 -1.2075 4.03773 -0.662366 4.47915C-0.476805 4.62942 -0.410933 4.67114 -0.471057 4.60033C-0.671779 4.36391 -0.774297 3.76044 -0.675713 3.39568C-0.606801 3.14071 -0.360393 2.84095 -0.159222 2.76734C0.206019 2.63373 0.689048 3.14386 0.75324 3.73093C0.766324 3.85046 0.761981 3.99238 0.743636 4.04629C0.692677 4.19581 0.0873592 4.9052 -0.0679383 4.99738C-0.194953 5.07273 -0.197482 5.07795 -0.143055 5.15209C-0.112068 5.19428 -0.0903152 5.27301 -0.0946908 5.32706C-0.101513 5.41174 -0.0966898 5.41818 -0.0597559 5.37361C0.0156991 5.28257 0.0835728 5.34932 0.299628 5.72686C0.675897 6.38441 0.80497 6.76847 0.742945 7.04599C0.692504 7.27177 0.451225 7.56504 0.262629 7.62978ZM2.49527 2.51608C2.11349 2.43194 1.76549 2.50913 1.59781 2.71516C1.49181 2.84546 1.47924 2.89883 1.46499 3.2787C1.45944 3.42574 1.4463 3.55649 1.43575 3.56923C1.42517 3.58199 1.4022 3.48658 1.38469 3.35727C1.35489 3.13714 1.21023 2.76402 1.12779 2.6946C1.08072 2.65495 1.11301 2.61767 1.26045 2.54145C1.45877 2.43893 2.36837 2.39659 2.5747 2.48029C2.69799 2.53027 2.65261 2.55073 2.49527 2.51608ZM2.14388 1.99499C2.05468 2.04412 1.89848 2.14958 1.79678 2.22935C1.68076 2.32038 1.55095 2.38476 1.44837 2.40222C1.35846 2.41749 1.26876 2.44945 1.24908 2.4732C1.19219 2.54184 1.15042 2.47596 1.18047 2.36488C1.20123 2.28812 1.25713 2.22229 1.40966 2.09495C1.52061 2.00235 1.66096 1.85577 1.7215 1.76922L1.83157 1.61185L1.67934 1.78399C1.59563 1.87868 1.44864 2.01195 1.35275 2.0802C1.25687 2.14838 1.17274 2.2129 1.16577 2.22353C1.12392 2.28753 1.10466 2.2584 1.05933 2.06247C1.03156 1.94236 0.978671 1.77423 0.941785 1.68877C0.866281 1.51388 0.906442 1.30459 1.07355 1.00189C1.21807 0.740137 1.26604 0.495659 1.21386 0.287046L1.16811 0.104301L1.32391 0.103219C1.44366 0.102388 1.51159 0.128657 1.61738 0.216738C1.83574 0.398469 2.04059 0.891513 1.9951 1.12591C1.98367 1.1848 1.98574 1.22008 1.99968 1.20429C2.01361 1.18849 2.05678 0.978163 2.09561 0.736902C2.13448 0.495667 2.17509 0.29719 2.18587 0.295834C2.22421 0.291071 2.34452 1.32921 2.33387 1.5728C2.31914 1.90996 2.32599 1.89471 2.14388 1.99499ZM-0.357286 4.7604C-0.388595 4.75031 -0.387394 4.76309 -0.35419 4.79299C-0.32414 4.82004 -0.300965 4.82751 -0.302652 4.80961C-0.304338 4.7917 -0.328923 4.76954 -0.357286 4.7604ZM-1.32205 5.63543C-1.35793 5.64672 -1.39828 5.66921 -1.41171 5.68542C-1.42515 5.70163 -1.40679 5.70566 -1.37091 5.69438C-1.33503 5.6831 -1.29468 5.66061 -1.28125 5.6444C-1.26781 5.62819 -1.28617 5.62415 -1.32205 5.63543ZM0.975277 2.57834C0.926397 2.57954 0.762616 2.54065 0.611323 2.49197C0.221155 2.36642 -0.0440344 2.14737 -0.171655 1.84516C-0.321533 1.49035 -0.31725 1.24009 -0.158083 1.04805C-0.108667 0.988423 -0.0889739 0.986102 -0.061598 1.03673C0.041333 1.227 0.153745 1.30073 0.346821 1.30464C0.68675 1.31153 0.824572 1.43556 0.956147 1.85281C1.04245 2.12644 1.11258 2.51778 1.08195 2.55473C1.07215 2.56655 1.02413 2.57717 0.975277 2.57834ZM1.92443 1.41537C1.92931 1.36497 1.9167 1.37461 1.87764 1.45116C1.8121 1.57966 1.80949 1.61717 1.87138 1.54129C1.89689 1.50998 1.92077 1.45335 1.92443 1.41537ZM-1.77601 3.88598C-1.97017 3.84771 -2.20444 3.78017 -2.2967 3.73588C-2.44716 3.66362 -2.47266 3.63727 -2.54484 3.47915C-2.63422 3.28346 -2.64488 3.00108 -2.57496 2.68287C-2.51544 2.41202 -2.55416 2.45147 -2.62661 2.73551C-2.65708 2.85504 -2.67712 3.10761 -2.67111 3.29669C-2.66442 3.50817 -2.68702 3.70949 -2.72981 3.81955C-2.83631 4.09327 -2.97199 4.14509 -3.34754 4.05547C-3.4504 4.03093 -3.64754 4.01962 -3.78567 4.03037C-4.01851 4.0485 -4.03779 4.04335 -4.05077 3.95986C-4.05846 3.91033 -4.12258 3.70988 -4.19328 3.51441C-4.33803 3.11402 -4.35604 2.97659 -4.29153 2.76501C-4.22942 2.56114 -4.16056 2.48994 -3.93676 2.39805L-3.74324 2.3186L-3.90831 2.33964C-4.03105 2.3553 -4.09864 2.3395 -4.17169 2.27816C-4.31827 2.15503 -4.41436 1.92102 -4.42982 1.64948C-4.44309 1.41668 -4.45875 1.37328 -4.55023 1.3158C-4.57327 1.30133 -4.57219 1.22411 -4.54784 1.14422C-4.51222 1.02732 -4.47382 0.975521 -4.35161 0.879234C-4.04972 0.641412 -3.84681 0.611412 -3.51474 0.75553C-3.33575 0.833183 -3.30885 0.855573 -3.21946 1.0011C-3.07066 1.24351 -3.04182 1.24031 -3.17195 0.995838C-3.47025 0.43538 -3.28786 -0.251556 -2.82943 -0.294199C-2.72458 -0.303951 -2.68322 -0.324662 -2.68708 -0.365591C-2.69458 -0.445244 -2.54196 -0.456123 -2.45012 -0.382439C-2.33326 -0.288668 -1.83174 0.387473 -1.82763 0.456806C-1.81889 0.603364 -1.99579 0.945867 -2.27231 1.31787C-2.54907 1.69023 -2.55159 1.69525 -2.35131 1.47613C-2.23751 1.35168 -2.07193 1.16451 -1.98333 1.0602C-1.7207 0.751013 -1.62209 0.688365 -1.3925 0.684851C-1.18594 0.681688 -0.897504 0.766922 -0.777145 0.866677C-0.74165 0.896096 -0.699326 0.981538 -0.683041 1.05654C-0.659893 1.16337 -0.615311 1.22454 -0.477042 1.33914C-0.302155 1.48409 -0.300886 1.48688 -0.331616 1.6571C-0.348671 1.75155 -0.408177 1.94261 -0.463819 2.0817C-0.605189 2.43496 -0.6662 2.46071 -1.2177 2.39967L-1.65539 2.35122L-1.41974 2.57383C-1.03795 2.93441 -0.998711 3.11594 -1.22548 3.47206C-1.30756 3.601 -1.3803 3.75615 -1.3871 3.81678C-1.3939 3.87747 -1.40475 3.93351 -1.41122 3.94132C-1.41772 3.94916 -1.58185 3.92425 -1.77601 3.88598ZM-2.96022 2.18955C-2.96488 2.18568 -3.09227 2.19753 -3.24337 2.21588L-3.51803 2.24927L-3.24191 2.23142C-2.98532 2.21479 -2.93818 2.20781 -2.96022 2.18955ZM-3.52566 2.26779C-3.53127 2.26315 -3.58588 2.26825 -3.64702 2.27908L-3.75819 2.29881L-3.64526 2.29769C-3.53916 2.29663 -3.50206 2.28736 -3.52566 2.26779ZM-3.01709 1.2545C-3.04497 1.23139 -3.04729 1.24523 -3.02332 1.29204C-3.00242 1.33288 -2.96537 1.38278 -2.94103 1.40295C-2.91315 1.42606 -2.91083 1.41222 -2.9348 1.36541C-2.9557 1.32457 -2.99275 1.27467 -3.01709 1.2545Z" fill="url(#paint1_linear_22_5515)" fill-opacity="0.25"/>
<path d="M21.9961 33.125C21.1107 32.6562 20.2253 32.4219 19.3398 32.4219C18.7383 32.4219 17.8307 32.5664 16.6172 32.8555L15.5508 33.1094C15.2565 33.1797 14.9544 33.2148 14.6445 33.2148C14.4206 33.2148 14.1927 33.1797 13.9609 33.1094C13.9193 33.0964 13.8659 33.0807 13.8008 33.0625C13.8424 32.8932 13.8633 32.7604 13.8633 32.6641C13.8633 32.4974 13.8047 32.2357 13.6875 31.8789L13.1758 31C13.5534 31 13.9167 31.2292 14.2656 31.6875C14.6562 31.9531 15.0195 32.0846 15.3555 32.082C15.6419 32.0794 16.1654 32.0065 16.9258 31.8633C17.8372 31.6914 18.4336 31.6055 18.7148 31.6055C20.2409 31.6055 21.724 32.2409 23.1641 33.5117C23.0911 32.9362 22.8984 32.3698 22.5859 31.8125C22.4557 31.5807 22.2552 31.3633 21.9844 31.1602C21.8359 31.0482 21.5924 30.8724 21.2539 30.6328C20.3997 31.0156 19.457 31.207 18.4258 31.207C16.9076 31.207 15.6875 30.6758 14.7656 29.6133C13.888 28.6029 13.4492 27.3268 13.4492 25.7852C13.4492 24.9102 13.668 24.0729 14.1055 23.2734C14.181 23.1354 14.6654 22.3086 15.5586 20.793C15.5586 20.5898 15.4414 20.3971 15.207 20.2148C14.6966 19.8216 14.4414 19.6081 14.4414 19.5742L14.5352 19.4805H16.9531C17.0365 19.4805 17.0781 19.5065 17.0781 19.5586C17.0781 19.5924 17.0677 19.6302 17.0469 19.6719C16.4661 20.3073 15.9753 21.1289 15.5742 22.1367C15.1393 23.2305 14.9219 24.4362 14.9219 25.7539C14.9219 27.1576 15.2122 28.2865 15.793 29.1406C16.4701 30.1354 17.4753 30.6328 18.8086 30.6328C19.069 30.6328 19.3997 30.6003 19.8008 30.5352C20.5872 30.4076 21.2383 30.125 21.7539 29.6875C22.2227 29.2891 22.457 28.8997 22.457 28.5195V21.4336C22.457 20.9258 22.2539 20.4453 21.8477 19.9922C21.707 19.8359 21.4987 19.6654 21.2227 19.4805H23.7188L23.7227 34.5664C23.3607 34.0221 22.7852 33.5417 21.9961 33.125ZM35.5938 31H34.332V29.7031C33.8867 30.0417 33.5078 30.293 33.1953 30.457C32.2396 30.957 31.2747 31.207 30.3008 31.207C28.7826 31.207 27.5625 30.6758 26.6406 29.6133C25.763 28.6029 25.3242 27.3268 25.3242 25.7852C25.3242 24.9102 25.543 24.0729 25.9805 23.2734C26.056 23.1354 26.5404 22.3086 27.4336 20.793C27.4336 20.5898 27.3164 20.3971 27.082 20.2148C26.5716 19.8216 26.3164 19.6081 26.3164 19.5742L26.4102 19.4805H28.8281C28.9115 19.4805 28.9531 19.5065 28.9531 19.5586C28.9531 19.5924 28.9427 19.6302 28.9219 19.6719C28.3411 20.3073 27.8503 21.1289 27.4492 22.1367C27.0143 23.2305 26.7969 24.4362 26.7969 25.7539C26.7969 27.1576 27.0872 28.2865 27.668 29.1406C28.3451 30.1354 29.3503 30.6328 30.6836 30.6328C30.944 30.6328 31.2747 30.6003 31.6758 30.5352C32.4622 30.4076 33.1133 30.125 33.6289 29.6875C34.0977 29.2891 34.332 28.8997 34.332 28.5195V21.4336C34.332 20.9258 34.1289 20.4453 33.7227 19.9922C33.582 19.8359 33.3737 19.6654 33.0977 19.4805H35.5938V31Z" fill="url(#paint2_linear_22_5515)"/>
</g>
</g>
<defs>
<linearGradient id="paint0_linear_22_5515" x1="28.2582" y1="33.1426" x2="66.1653" y2="45.8355" gradientUnits="userSpaceOnUse">
<stop stop-color="#D32A1E"/>
<stop offset="1" stop-color="#D32A1E" stop-opacity="0.8"/>
</linearGradient>
<linearGradient id="paint1_linear_22_5515" x1="13.8376" y1="-0.68769" x2="-6.97089" y2="24.4187" gradientUnits="userSpaceOnUse">
<stop stop-color="#D32A1E"/>
<stop offset="1" stop-color="#D32A1E" stop-opacity="0.8"/>
</linearGradient>
<linearGradient id="paint2_linear_22_5515" x1="37" y1="24.6182" x2="13" y2="24.6182" gradientUnits="userSpaceOnUse">
<stop stop-color="#D32A1E"/>
<stop offset="1" stop-color="#EB5E54"/>
</linearGradient>
<clipPath id="clip0_22_5515">
<rect width="50" height="50" rx="25" fill="white"/>
</clipPath>
<clipPath id="clip1_22_5515">
<rect width="50" height="50" rx="25" fill="white"/>
</clipPath>
</defs>
</svg>
