<svg width="24" height="24" viewBox="0 0 24 24" fill="none" xmlns="http://www.w3.org/2000/svg">
<path d="M7 8.75C7 8.33579 7.33579 8 7.75 8H15.75C16.1642 8 16.5 8.33579 16.5 8.75C16.5 9.16421 16.1642 9.5 15.75 9.5H7.75C7.33579 9.5 7 9.16421 7 8.75Z" fill="url(#paint0_linear_3_2720)"/>
<path d="M7 13.25C7 12.8358 7.33579 12.5 7.75 12.5H15.75C16.1642 12.5 16.5 12.8358 16.5 13.25C16.5 13.6642 16.1642 14 15.75 14H7.75C7.33579 14 7 13.6642 7 13.25Z" fill="url(#paint1_linear_3_2720)"/>
<path fill-rule="evenodd" clip-rule="evenodd" d="M10.7164 2H12.7836C14.1553 2 15.2307 1.99999 16.0951 2.07061C16.9752 2.14252 17.7023 2.29138 18.3604 2.62671C19.4424 3.17798 20.322 4.05762 20.8733 5.13955C21.2086 5.79769 21.3575 6.52479 21.4294 7.40494C21.5 8.26928 21.5 9.34471 21.5 10.7164V13.4732C21.5 13.7297 21.5 13.8858 21.4936 14.0219C21.3533 16.9838 18.9838 19.3533 16.0219 19.4936C15.8858 19.5 15.7139 19.5 15.4288 19.5H15.4004L15.3251 19.5001C14.4579 19.5056 13.6132 19.7764 12.9043 20.2759L12.8551 20.3109L10.2444 22.1757C8.7399 23.2503 6.76288 21.6984 7.44954 19.9817C7.54183 19.751 7.37191 19.5 7.12341 19.5H6.52166C4.02441 19.5 2 17.4756 2 14.9783L2 10.7164C2 9.34472 1.99999 8.26929 2.07061 7.40494C2.14252 6.52479 2.29138 5.79769 2.62671 5.13955C3.17798 4.05762 4.05762 3.17798 5.13955 2.62671C5.79769 2.29138 6.52479 2.14252 7.40494 2.07061C8.26929 1.99999 9.34472 2 10.7164 2ZM7.52708 3.56563C6.7397 3.62996 6.23197 3.75359 5.82054 3.96322C5.02085 4.37068 4.37068 5.02085 3.96322 5.82054C3.75359 6.23197 3.62996 6.7397 3.56563 7.52708C3.50058 8.32322 3.5 9.33749 3.5 10.75V14.9783C3.5 16.6472 4.85284 18 6.52166 18H7.12341C8.43311 18 9.32867 19.3228 8.84226 20.5388C8.71197 20.8645 9.08709 21.159 9.37255 20.9551L11.9833 19.0903L12.0402 19.0497C12.9993 18.3739 14.1422 18.0076 15.3155 18.0001L15.4004 18C15.7221 18 15.8553 17.9998 15.951 17.9952C18.1402 17.8916 19.8916 16.1402 19.9952 13.951C19.9998 13.855 20 13.7371 20 13.4488V10.75C20 9.33749 19.9994 8.32322 19.9344 7.52708C19.87 6.7397 19.7464 6.23197 19.5368 5.82054C19.1293 5.02085 18.4791 4.37068 17.6795 3.96322C17.268 3.75359 16.7603 3.62996 15.9729 3.56563C15.1768 3.50058 14.1625 3.5 12.75 3.5H10.75C9.33749 3.5 8.32322 3.50058 7.52708 3.56563Z" fill="url(#paint2_linear_3_2720)"/>
<defs>
<linearGradient id="paint0_linear_3_2720" x1="21.5" y1="12.4518" x2="2" y2="12.4518" gradientUnits="userSpaceOnUse">
<stop stop-color="#D32A1E"/>
<stop offset="1" stop-color="#EB5E54"/>
</linearGradient>
<linearGradient id="paint1_linear_3_2720" x1="21.5" y1="12.4518" x2="2" y2="12.4518" gradientUnits="userSpaceOnUse">
<stop stop-color="#D32A1E"/>
<stop offset="1" stop-color="#EB5E54"/>
</linearGradient>
<linearGradient id="paint2_linear_3_2720" x1="21.5" y1="12.4518" x2="2" y2="12.4518" gradientUnits="userSpaceOnUse">
<stop stop-color="#D32A1E"/>
<stop offset="1" stop-color="#EB5E54"/>
</linearGradient>
</defs>
</svg>
