<svg width="24" height="24" viewBox="0 0 24 24" fill="none" xmlns="http://www.w3.org/2000/svg">
<path fill-rule="evenodd" clip-rule="evenodd" d="M13.9533 4.3255L14.0434 4.3775C14.8215 4.82672 15.4704 5.2013 15.9455 5.56795C16.447 5.95494 16.845 6.39914 17.0117 7.02132C17.1784 7.6435 17.0558 8.2272 16.815 8.81309C16.5869 9.36817 16.2123 10.017 15.763 10.7951L11.8875 17.5078C11.5905 18.0231 11.3557 18.4305 10.9984 18.7376C10.641 19.0446 10.2029 19.2154 9.64875 19.4314L9.49901 19.4898C8.47079 19.8916 7.62324 20.2227 6.92918 20.3849C6.20329 20.5545 5.50243 20.5756 4.84916 20.1984C4.19588 19.8212 3.86373 19.2037 3.64766 18.4903C3.44106 17.8081 3.30408 16.9086 3.13789 15.8172L3.11363 15.6583C3.0236 15.0704 2.95242 14.6056 3.03965 14.1426C3.05056 14.0847 3.06378 14.0277 3.07915 13.9713C3.18673 13.5762 3.39957 13.2082 3.66013 12.7577L7.53575 6.04509C7.98497 5.26697 8.35955 4.61811 8.7262 4.143C9.11319 3.64152 9.55739 3.24349 10.1796 3.07678C10.8018 2.91006 11.3855 3.03267 11.9713 3.27347C12.5264 3.50161 13.1753 3.87624 13.9533 4.3255ZM8.43379 7.48964L14.063 10.7396L10.6395 16.6692C10.2666 17.3152 10.1599 17.4804 10.0208 17.5999C9.88174 17.7194 9.7024 17.7999 9.00763 18.0714C7.91115 18.4998 7.16439 18.7895 6.58791 18.9242C6.03104 19.0543 5.77835 19.0028 5.59915 18.8994C5.41996 18.7959 5.24902 18.6028 5.08326 18.0555C4.91166 17.4889 4.78923 16.6973 4.61199 15.5336C4.49968 14.7961 4.47976 14.6005 4.51372 14.4203C4.54767 14.2401 4.63739 14.0652 5.01035 13.4192L8.43379 7.48964ZM15.4276 8.24287C15.2951 8.56531 15.0924 8.94444 14.8114 9.4397L9.18536 6.19151C9.47374 5.70048 9.70074 5.33539 9.91372 5.05941C10.1982 4.69079 10.3898 4.57336 10.5678 4.52567C10.7458 4.47797 10.9705 4.48386 11.4011 4.66086C11.8519 4.84613 12.4135 5.16853 13.2484 5.65054C14.0832 6.13255 14.6432 6.45771 15.0291 6.75547C15.3977 7.03993 15.5151 7.23153 15.5628 7.40955C15.6105 7.58756 15.6046 7.81221 15.4276 8.24287Z" fill="url(#paint0_linear_3_2734)"/>
<path d="M12.5903 19.8538C12.5903 19.4396 12.9261 19.1038 13.3403 19.1038H19.3403C19.7545 19.1038 20.0903 19.4396 20.0903 19.8538C20.0903 20.268 19.7545 20.6038 19.3403 20.6038H13.3403C12.9261 20.6038 12.5903 20.268 12.5903 19.8538Z" fill="url(#paint1_linear_3_2734)"/>
<defs>
<linearGradient id="paint0_linear_3_2734" x1="20.0903" y1="11.9619" x2="3" y2="11.9619" gradientUnits="userSpaceOnUse">
<stop stop-color="#D32A1E"/>
<stop offset="1" stop-color="#EB5E54"/>
</linearGradient>
<linearGradient id="paint1_linear_3_2734" x1="20.0903" y1="11.9619" x2="3" y2="11.9619" gradientUnits="userSpaceOnUse">
<stop stop-color="#D32A1E"/>
<stop offset="1" stop-color="#EB5E54"/>
</linearGradient>
</defs>
</svg>
