<svg width="30" height="28" viewBox="0 0 30 28" fill="none" xmlns="http://www.w3.org/2000/svg">
<path fill-rule="evenodd" clip-rule="evenodd" d="M20.6954 0.809763C19.5325 0.72057 18.0981 0.720575 16.2733 0.720581H13.7267C11.9019 0.720575 10.4675 0.72057 9.30458 0.809763C8.11761 0.9008 7.12879 1.08921 6.20972 1.51053C4.69125 2.20664 3.40577 3.32592 2.50739 4.73419C2.27285 5.10185 2.07858 5.48954 1.91285 5.90768C1.349 7.33027 1.08833 9.20791 0.709025 11.9401L0.676941 12.1712C0.353889 14.4971 0.101345 16.3154 0.0246403 17.78C-0.0532398 19.267 0.040973 20.5062 0.488312 21.6439C1.21946 23.5033 2.56946 25.0538 4.31066 26.0338C5.37598 26.6334 6.59043 26.8972 8.07404 27.0246C9.53526 27.1501 11.371 27.1501 13.7192 27.1501H16.2808C18.629 27.1501 20.4647 27.1501 21.926 27.0246C23.4096 26.8972 24.624 26.6334 25.6893 26.0338C27.4305 25.0538 28.7805 23.5033 29.5117 21.6439C29.959 20.5062 30.0532 19.267 29.9754 17.78C29.8987 16.3153 29.6461 14.497 29.323 12.171L29.2862 11.9059C28.8844 9.01074 28.6153 7.07196 27.9597 5.60497C27.8233 5.29968 27.6692 5.01099 27.4926 4.73419C26.5942 3.32592 25.3088 2.20664 23.7903 1.51053C22.8712 1.08921 21.8824 0.9008 20.6954 0.809763ZM7.15376 3.56985C7.73311 3.30425 8.42573 3.14921 9.47782 3.06852C10.544 2.98674 11.8918 2.98597 13.7735 2.98597H16.2265C18.1082 2.98597 19.456 2.98674 20.5222 3.06852C21.5743 3.14921 22.2669 3.30426 22.8462 3.56985C23.9369 4.06984 24.865 4.86522 25.5259 5.86496L24.695 6.69587C22.1552 9.23561 20.3293 11.0581 18.7544 12.2598C17.2056 13.4414 16.0334 13.9154 14.8167 13.9154C13.6001 13.9154 12.4279 13.4414 10.8791 12.2598C9.30422 11.0581 7.47829 9.23561 4.93855 6.69587L4.33306 6.09039C4.36046 6.04351 4.38851 5.99761 4.41725 5.95255C5.08127 4.91165 6.03141 4.08436 7.15376 3.56985ZM26.4013 8.19326C26.6194 9.20145 26.8086 10.5344 27.0717 12.4291C27.4039 14.8202 27.6421 16.5424 27.7131 17.8984C27.7835 19.2433 27.6803 20.1107 27.4034 20.8149C26.863 22.1893 25.8652 23.3353 24.5782 24.0596C23.9189 24.4307 23.0739 24.6523 21.7321 24.7675C20.3792 24.8837 18.6406 24.8847 16.2265 24.8847H13.7735C11.3594 24.8847 9.62082 24.8837 8.2679 24.7675C6.92614 24.6523 6.08115 24.4307 5.42179 24.0596C4.13481 23.3353 3.13699 22.1893 2.59657 20.8149C2.3197 20.1107 2.21649 19.2433 2.28693 17.8984C2.35795 16.5424 2.59615 14.8202 2.92826 12.4291C3.16542 10.7215 3.34208 9.46912 3.53571 8.49678C5.93529 10.8962 7.82697 12.7805 9.50499 14.0608C11.2553 15.3962 12.9056 16.1808 14.8167 16.1808C16.7279 16.1808 18.3782 15.3962 20.1285 14.0608C21.8385 12.7561 23.7704 10.8242 26.2355 8.35902L26.4013 8.19326Z" fill="url(#paint0_linear_3_2817)"/>
<defs>
<linearGradient id="paint0_linear_3_2817" x1="30" y1="14.1756" x2="-2.73525e-08" y2="14.1756" gradientUnits="userSpaceOnUse">
<stop stop-color="#D32A1E"/>
<stop offset="1" stop-color="#EB5E54"/>
</linearGradient>
</defs>
</svg>
