<svg width="40" height="41" viewBox="0 0 40 41" fill="none" xmlns="http://www.w3.org/2000/svg">
<path d="M26.3196 0.500008C28.0673 0.49987 29.1319 0.499785 30.0502 0.645231C35.0972 1.44459 39.0554 5.40282 39.8548 10.4498C40.0002 11.3681 40.0001 12.4327 40 14.1804L40 26.8196C40.0001 28.5674 40.0002 29.632 39.8548 30.5503C39.0554 35.5972 35.0972 39.5554 30.0502 40.3548C29.1319 40.5002 28.0673 40.5002 26.3196 40.5L24.1026 40.5C21.449 40.5 18.9962 39.6219 17.0247 38.1411C16.3454 37.6308 16.2083 36.6664 16.7186 35.987C17.2289 35.3077 18.1933 35.1706 18.8727 35.6809C20.3296 36.7752 22.1382 37.4231 24.1026 37.4231H26.1538C28.1183 37.4231 28.9214 37.4183 29.5689 37.3158C33.2992 36.7249 36.2249 33.7993 36.8157 30.0689C36.9183 29.4214 36.9231 28.6183 36.9231 26.6539L36.9231 14.3462C36.9231 12.3817 36.9183 11.5786 36.8157 10.9311C36.2249 7.20075 33.2992 4.2751 29.5689 3.68427C28.9214 3.58171 28.1183 3.57694 26.1538 3.57694H24.1026C22.1382 3.57694 20.3296 4.22479 18.8727 5.31911C18.1933 5.8294 17.2289 5.69234 16.7186 5.01297C16.2083 4.33361 16.3454 3.3692 17.0247 2.85891C18.9962 1.3781 21.449 0.500017 24.1026 0.500017L26.3196 0.500008Z" fill="url(#paint0_linear_3_2696)"/>
<path d="M8.78775 11.0894C9.45353 10.5615 10.4212 10.6733 10.9491 11.3391C11.477 12.0048 11.3652 12.9725 10.6994 13.5004L7.08308 16.3678C5.63892 17.5128 4.65019 18.2997 3.9785 18.9616L30.2564 18.9615C31.1061 18.9615 31.7949 19.6503 31.7949 20.5C31.7949 21.3497 31.1061 22.0385 30.2564 22.0385L3.9785 22.0385C4.65019 22.7003 5.63892 23.4872 7.08308 24.6323L10.6994 27.4996C11.3652 28.0275 11.477 28.9952 10.9491 29.661C10.4212 30.3268 9.45354 30.4385 8.78775 29.9106L5.09796 26.985C3.71849 25.8913 2.58019 24.9888 1.76927 24.181C0.937122 23.3521 0.247292 22.432 0.0599632 21.2563C0.0200577 21.0058 0 20.7531 0 20.5C0 20.2469 0.0200577 19.9942 0.0599632 19.7438C0.247292 18.568 0.937122 17.648 1.76927 16.819C2.58018 16.0112 3.71847 15.1087 5.09792 14.015L8.78775 11.0894Z" fill="url(#paint1_linear_3_2696)"/>
<defs>
<linearGradient id="paint0_linear_3_2696" x1="3.64701e-08" y1="20.8637" x2="40" y2="20.8637" gradientUnits="userSpaceOnUse">
<stop stop-color="#D32A1E"/>
<stop offset="1" stop-color="#EB5E54"/>
</linearGradient>
<linearGradient id="paint1_linear_3_2696" x1="3.64701e-08" y1="20.8637" x2="40" y2="20.8637" gradientUnits="userSpaceOnUse">
<stop stop-color="#D32A1E"/>
<stop offset="1" stop-color="#EB5E54"/>
</linearGradient>
</defs>
</svg>
