<svg width="23" height="24" viewBox="0 0 23 24" fill="none" xmlns="http://www.w3.org/2000/svg">
<path fill-rule="evenodd" clip-rule="evenodd" d="M11.2605 1.04347C8.74641 1.04347 6.70837 3.26258 6.70837 5.99999C6.70837 8.73741 8.74641 10.9565 11.2605 10.9565C13.7745 10.9565 15.8125 8.73741 15.8125 5.99999C15.8125 3.26258 13.7745 1.04347 11.2605 1.04347ZM8.14587 5.99999C8.14587 4.12703 9.54032 2.60869 11.2605 2.60869C12.9806 2.60869 14.375 4.12703 14.375 5.99999C14.375 7.87296 12.9806 9.3913 11.2605 9.3913C9.54032 9.3913 8.14587 7.87296 8.14587 5.99999Z" fill="#EB5E54" fill-opacity="1"/>
<path fill-rule="evenodd" clip-rule="evenodd" d="M8.38546 12.5217C5.87141 12.5217 3.83337 14.7408 3.83337 17.4783C3.83337 20.2157 5.87141 22.4348 8.38546 22.4348H14.1355C16.6495 22.4348 18.6875 20.2157 18.6875 17.4783C18.6875 14.7408 16.6495 12.5217 14.1355 12.5217H8.38546ZM5.27087 17.4783C5.27087 15.6053 6.66532 14.087 8.38546 14.087H14.1355C15.8556 14.087 17.25 15.6053 17.25 17.4783C17.25 19.3512 15.8556 20.8696 14.1355 20.8696H8.38546C6.66532 20.8696 5.27087 19.3512 5.27087 17.4783Z" fill="#000" fill-opacity="1"/>
<defs>
<linearGradient id="paint0_linear_3_2505" x1="18.6875" y1="11.9336" x2="3.83337" y2="11.9336" gradientUnits="userSpaceOnUse">
<stop stop-color="#D32A1E"/>
<stop offset="1" stop-color="#D32A1E" stop-opacity="0.8"/>
</linearGradient>
<linearGradient id="paint1_linear_3_2505" x1="18.6875" y1="11.9336" x2="3.83337" y2="11.9336" gradientUnits="userSpaceOnUse">
<stop stop-color="#D32A1E"/>
<stop offset="1" stop-color="#D32A1E" stop-opacity="0.8"/>
</linearGradient>
</defs>
</svg>
