<svg width="38" height="40" viewBox="0 0 38 40" fill="none" xmlns="http://www.w3.org/2000/svg">
<path fill-rule="evenodd" clip-rule="evenodd" d="M19 20.4651C16.1182 20.4651 13.7821 22.7557 13.7821 25.5814C13.7821 28.407 16.1182 30.6976 19 30.6976C21.8818 30.6976 24.2179 28.407 24.2179 25.5814C24.2179 22.7557 21.8818 20.4651 19 20.4651ZM16.6282 25.5814C16.6282 24.297 17.6901 23.2558 19 23.2558C20.3099 23.2558 21.3718 24.297 21.3718 25.5814C21.3718 26.8657 20.3099 27.9069 19 27.9069C17.6901 27.9069 16.6282 26.8657 16.6282 25.5814Z" fill="url(#paint0_linear_3_3160)"/>
<path fill-rule="evenodd" clip-rule="evenodd" d="M19 0C12.9745 0 8.08978 4.78951 8.08978 10.6977V11.6703L8.03884 11.6864C4.71735 12.7445 2.11326 15.2979 1.03405 18.5547C0.499211 20.1687 0.499521 22.1058 0.500031 25.2803V25.8825C0.499521 29.0569 0.499211 30.9941 1.03405 32.608C2.11326 35.8648 4.71735 38.4182 8.03884 39.4764C9.68489 40.0008 11.6605 40.0005 14.898 40H23.102C26.3395 40.0005 28.3151 40.0008 29.9612 39.4764C33.2826 38.4182 35.8867 35.8648 36.966 32.608C37.5008 30.9941 37.5005 29.0569 37.5 25.8825V25.2802C37.5005 22.1058 37.5008 20.1687 36.966 18.5547C35.8867 15.2979 33.2826 12.7445 29.9612 11.6864L29.9102 11.6703V10.6977C29.9102 4.78951 25.0255 0 19 0ZM15.0458 11.1628C13.3776 11.1627 12.0461 11.1627 10.9359 11.2243V10.6977C10.9359 6.33076 14.5463 2.79069 19 2.79069C23.4537 2.79069 27.0641 6.33076 27.0641 10.6977V11.2243C25.9539 11.1627 24.6224 11.1627 22.9542 11.1628H15.0458ZM9.74926 14.1456C10.8832 13.9583 12.4124 13.9535 15.2051 13.9535H22.7949C25.5876 13.9535 27.1168 13.9583 28.2507 14.1456C28.5643 14.1974 28.8347 14.2618 29.0817 14.3405C31.5367 15.1226 33.4614 17.0099 34.2591 19.417C34.6362 20.5551 34.6538 22.0099 34.6538 25.5814C34.6538 29.1528 34.6362 30.6076 34.2591 31.7457C33.4614 34.1528 31.5367 36.0401 29.0817 36.8223C27.921 37.192 26.4373 37.2092 22.7949 37.2092H15.2051C11.5627 37.2092 10.079 37.192 8.91835 36.8223C6.46334 36.0401 4.53857 34.1528 3.74089 31.7457C3.36376 30.6076 3.34621 29.1528 3.34621 25.5814C3.34621 22.0099 3.36376 20.5551 3.74089 19.417C4.53857 17.0099 6.46334 15.1226 8.91835 14.3405C9.16534 14.2618 9.43572 14.1974 9.74926 14.1456Z" fill="url(#paint1_linear_3_3160)"/>
<defs>
<linearGradient id="paint0_linear_3_3160" x1="37.5" y1="20.3637" x2="0.5" y2="20.3637" gradientUnits="userSpaceOnUse">
<stop stop-color="#D32A1E"/>
<stop offset="1" stop-color="#EB5E54"/>
</linearGradient>
<linearGradient id="paint1_linear_3_3160" x1="37.5" y1="20.3637" x2="0.5" y2="20.3637" gradientUnits="userSpaceOnUse">
<stop stop-color="#D32A1E"/>
<stop offset="1" stop-color="#EB5E54"/>
</linearGradient>
</defs>
</svg>
