<svg width="24" height="24" viewBox="0 0 24 24" fill="none" xmlns="http://www.w3.org/2000/svg">
<path fill-rule="evenodd" clip-rule="evenodd" d="M10.85 2C7.45442 2 4.82724 4.97603 5.24841 8.34536L5.32776 8.98021C5.44388 9.90916 5.10455 10.8371 4.41654 11.4719C2.99086 12.7875 2.59477 14.8815 3.44142 16.6269L3.54477 16.84C4.29088 18.3782 5.80582 19.3855 7.49702 19.4908L7.6853 19.8136C8.6981 21.5498 10.2761 22.5 11.9331 22.5C13.5902 22.5 15.1682 21.5498 16.181 19.8136L16.3722 19.4858C17.793 19.3736 19.0884 18.6014 19.8611 17.3873C21.0432 15.5299 20.7301 13.0932 19.1168 11.595L19.0729 11.5542C18.8763 11.3716 18.7063 11.1669 18.5651 10.9459C18.342 10.5969 17.8782 10.4948 17.5292 10.7179C17.1802 10.941 17.0781 11.4048 17.3012 11.7538C17.5102 12.0807 17.7616 12.3835 18.0522 12.6533L18.0961 12.6941C19.1789 13.6997 19.3891 15.3352 18.5956 16.582C18.0335 17.4652 17.0592 18 16.0123 18H15.9474C15.9446 17.9999 15.9417 17.9999 15.9389 17.9999C15.9327 17.9999 15.9265 17.9999 15.9203 18H7.94595C7.93695 17.9998 7.92793 17.9998 7.91891 18H7.79147C6.5579 18 5.43275 17.2952 4.89438 16.1853L4.79102 15.9723C4.23294 14.8218 4.49404 13.4415 5.43379 12.5743C6.47755 11.6111 6.99234 10.2035 6.81618 8.79416L6.73682 8.15931C6.42757 5.68526 8.35667 3.5 10.85 3.5H12.5529C13.6714 3.5 14.6742 3.93763 15.4155 4.6447C15.7152 4.93058 16.19 4.91934 16.4759 4.61959C16.7617 4.31985 16.7505 3.84511 16.4508 3.55923C15.4426 2.59774 14.0735 2 12.5529 2H10.85ZM11.9331 21C11.012 21 10.0292 20.5377 9.26988 19.5H14.5964C13.8371 20.5377 12.8543 21 11.9331 21Z" fill="url(#paint0_linear_3_2381)"/>
<circle cx="16.75" cy="7.75" r="2" fill="url(#paint1_linear_3_2381)"/>
<defs>
<linearGradient id="paint0_linear_3_2381" x1="20.5745" y1="12.4364" x2="3" y2="12.4364" gradientUnits="userSpaceOnUse">
<stop stop-color="white"/>
<stop offset="1" stop-color="white"/>
</linearGradient>
<linearGradient id="paint1_linear_3_2381" x1="18.75" y1="7.78637" x2="14.75" y2="7.78637" gradientUnits="userSpaceOnUse">
<stop stop-color="white"/>
<stop offset="1" stop-color="white"/>
</linearGradient>
</defs>
</svg>
