<svg width="23" height="24" viewBox="0 0 23 24" fill="none" xmlns="http://www.w3.org/2000/svg">
<path fill-rule="evenodd" clip-rule="evenodd" d="M11.2606 1.04346C8.74653 1.04346 6.7085 3.26257 6.7085 5.99998C6.7085 8.73739 8.74653 10.9565 11.2606 10.9565C13.7746 10.9565 15.8127 8.73739 15.8127 5.99998C15.8127 3.26257 13.7746 1.04346 11.2606 1.04346ZM8.146 5.99998C8.146 4.12701 9.54044 2.60867 11.2606 2.60867C12.9807 2.60867 14.3752 4.12701 14.3752 5.99998C14.3752 7.87294 12.9807 9.39128 11.2606 9.39128C9.54044 9.39128 8.146 7.87294 8.146 5.99998Z" fill="url(#paint0_linear_3_2707)"/>
<path fill-rule="evenodd" clip-rule="evenodd" d="M8.38558 12.5217C5.87153 12.5217 3.8335 14.7408 3.8335 17.4782C3.8335 20.2157 5.87153 22.4348 8.38558 22.4348H14.1356C16.6496 22.4348 18.6877 20.2157 18.6877 17.4782C18.6877 14.7408 16.6496 12.5217 14.1356 12.5217H8.38558ZM5.271 17.4782C5.271 15.6053 6.66544 14.0869 8.38558 14.0869H14.1356C15.8557 14.0869 17.2502 15.6053 17.2502 17.4782C17.2502 19.3512 15.8557 20.8695 14.1356 20.8695H8.38558C6.66544 20.8695 5.271 19.3512 5.271 17.4782Z" fill="url(#paint1_linear_3_2707)"/>
<defs>
<linearGradient id="paint0_linear_3_2707" x1="18.6877" y1="11.9336" x2="3.8335" y2="11.9336" gradientUnits="userSpaceOnUse">
<stop stop-color="#D32A1E"/>
<stop offset="1" stop-color="#EB5E54"/>
</linearGradient>
<linearGradient id="paint1_linear_3_2707" x1="18.6877" y1="11.9336" x2="3.8335" y2="11.9336" gradientUnits="userSpaceOnUse">
<stop stop-color="#D32A1E"/>
<stop offset="1" stop-color="#EB5E54"/>
</linearGradient>
</defs>
</svg>
