<svg width="15" height="32" viewBox="0 0 15 32" fill="none" xmlns="http://www.w3.org/2000/svg">
<path d="M0.605567 28.4777C-0.196788 29.2784 -0.202567 30.5824 0.592661 31.3903C1.38789 32.1981 2.68299 32.204 3.48534 31.4033L8.38007 26.5187C10.2236 24.6791 11.7304 23.1755 12.7989 21.8358C13.9101 20.4427 14.7145 19.0287 14.9293 17.3313C15.0236 16.5871 15.0236 15.834 14.9293 15.0897C14.7145 13.3924 13.9101 11.9784 12.7989 10.5852C11.7304 9.24555 10.2237 7.74201 8.38011 5.90236L3.48534 1.01778C2.68299 0.217097 1.38789 0.222914 0.592665 1.03078C-0.202563 1.83864 -0.196785 3.14263 0.60557 3.94332L5.41367 8.74142C7.36501 10.6887 8.70356 12.0289 9.60929 13.1644C10.4891 14.2675 10.7909 14.976 10.8713 15.6105C10.9217 16.009 10.9217 16.4121 10.8713 16.8105C10.7909 17.4451 10.4891 18.1536 9.60929 19.2566C8.70356 20.3922 7.36501 21.7323 5.41367 23.6796L0.605567 28.4777Z" fill="#D2D2D2"/>
</svg>
