<svg width="39" height="41" viewBox="0 0 39 41" fill="none" xmlns="http://www.w3.org/2000/svg">
<path d="M28.6753 22.4319C29.19 21.7828 29.081 20.8393 28.4319 20.3246C27.7827 19.8099 26.8393 19.9189 26.3246 20.568L23.5289 24.094C22.4124 25.502 21.6453 26.466 20.9999 27.1209L20.9999 1.5C20.9999 0.671572 20.3284 0 19.4999 0C18.6715 0 18 0.671571 18 1.5L17.9999 27.1209C17.3546 26.466 16.5874 25.502 15.471 24.094L12.6753 20.568C12.1606 19.9189 11.2172 19.8099 10.568 20.3246C9.91888 20.8393 9.80989 21.7828 10.3246 22.4319L13.1771 26.0295C14.2434 27.3745 15.1234 28.4843 15.911 29.2749C16.7192 30.0863 17.6163 30.7589 18.7626 30.9415C19.0068 30.9804 19.2532 31 19.4999 31C19.7467 31 19.9931 30.9804 20.2373 30.9415C21.3836 30.7589 22.2807 30.0863 23.0889 29.2749C23.8765 28.4843 24.7564 27.3745 25.8228 26.0295L28.6753 22.4319Z" fill="url(#paint0_linear_3_3474)"/>
<path d="M8.20777e-06 27.6616C-0.000127095 29.3657 -0.000209346 30.4036 0.141601 31.299C0.920972 36.2197 4.78025 40.079 9.70101 40.8584C10.5964 41.0002 11.6343 41.0001 13.3384 41L25.6616 41C27.3657 41.0001 28.4036 41.0002 29.299 40.8584C34.2197 40.079 38.079 36.2197 38.8584 31.299C39.0002 30.4036 39.0001 29.3656 39 27.6616L39 25.5C39 22.9128 38.1439 20.5213 36.7001 18.5991C36.2025 17.9368 35.2622 17.8031 34.5999 18.3006C33.9375 18.7982 33.8038 19.7385 34.3014 20.4009C35.3683 21.8213 36 23.5847 36 25.5V27.5C36 29.4153 35.9953 30.1983 35.8953 30.8297C35.3193 34.4668 32.4668 37.3193 28.8297 37.8953C28.1984 37.9953 27.4153 38 25.5 38L13.5 38C11.5847 38 10.8017 37.9953 10.1703 37.8953C6.53323 37.3193 3.68072 34.4668 3.10466 30.8297C3.00467 30.1983 3.00001 29.4153 3.00001 27.5V25.5C3.00001 23.5847 3.63167 21.8213 4.69863 20.4009C5.19617 19.7385 5.06253 18.7982 4.40015 18.3006C3.73777 17.8031 2.79747 17.9367 2.29993 18.5991C0.856144 20.5213 1.691e-05 22.9128 1.67908e-05 25.5L8.20777e-06 27.6616Z" fill="url(#paint1_linear_3_3474)"/>
<defs>
<linearGradient id="paint0_linear_3_3474" x1="19.3272" y1="31" x2="19.3272" y2="-2.82643e-08" gradientUnits="userSpaceOnUse">
<stop stop-color="#D32A1E"/>
<stop offset="1" stop-color="#EB5E54"/>
</linearGradient>
<linearGradient id="paint1_linear_3_3474" x1="19.8546" y1="17.9999" x2="19.8546" y2="41" gradientUnits="userSpaceOnUse">
<stop stop-color="#D32A1E"/>
<stop offset="1" stop-color="#EB5E54"/>
</linearGradient>
</defs>
</svg>
