<svg width="15" height="33" viewBox="0 0 15 33" fill="none" xmlns="http://www.w3.org/2000/svg">
<path d="M0.605567 28.7672C-0.196789 29.5679 -0.202567 30.8718 0.592661 31.6797C1.38789 32.4876 2.68299 32.4934 3.48534 31.6927L8.38007 26.8082C10.2236 24.9685 11.7304 23.4649 12.7989 22.1252C13.9101 20.7321 14.7145 19.3181 14.9293 17.6208C15.0236 16.8765 15.0236 16.1234 14.9293 15.3791C14.7145 13.6818 13.9101 12.2678 12.7989 10.8747C11.7304 9.53498 10.2237 8.03144 8.38011 6.19179L3.48534 1.30721C2.68299 0.506526 1.38789 0.512341 0.592665 1.32021C-0.202564 2.12807 -0.196785 3.43206 0.60557 4.23274L5.41367 9.03084C7.36501 10.9781 8.70356 12.3183 9.60929 13.4538C10.4891 14.5569 10.7909 15.2654 10.8713 15.8999C10.9217 16.2984 10.9217 16.7015 10.8713 17.1C10.7909 17.7345 10.4891 18.443 9.60929 19.5461C8.70356 20.6816 7.36501 22.0218 5.41367 23.9691L0.605567 28.7672Z" fill="url(#paint0_linear_3_3478)"/>
<defs>
<linearGradient id="paint0_linear_3_3478" x1="1.41913e-06" y1="16.2129" x2="15" y2="16.2129" gradientUnits="userSpaceOnUse">
<stop stop-color="#D32A1E"/>
<stop offset="1" stop-color="#EB5E54"/>
</linearGradient>
</defs>
</svg>
