<svg width="35" height="35" viewBox="0 0 35 35" fill="none" xmlns="http://www.w3.org/2000/svg">
<path d="M34.504 2.89106C35.1653 2.22969 35.1653 1.1574 34.504 0.496028C33.8426 -0.165343 32.7703 -0.165343 32.1089 0.496028L17.5 15.105L2.89106 0.496035C2.22969 -0.165336 1.1574 -0.165336 0.496028 0.496035C-0.165343 1.15741 -0.165343 2.2297 0.496028 2.89107L15.105 17.5L0.496089 32.1089C-0.165282 32.7702 -0.165282 33.8425 0.496089 34.5039C1.15746 35.1653 2.22975 35.1653 2.89112 34.5039L17.5 19.895L32.1089 34.5039C32.7702 35.1653 33.8425 35.1653 34.5039 34.5039C35.1653 33.8425 35.1653 32.7703 34.5039 32.1089L19.895 17.5L34.504 2.89106Z" fill="#ACACAC"/>
</svg>
