<svg width="223" height="223" viewBox="0 0 223 223" fill="none" xmlns="http://www.w3.org/2000/svg">
<path d="M67.1597 46.0128C66.7868 45.462 66.0374 45.3171 65.4923 45.6983C56.7644 51.8007 49.3343 59.5811 43.6383 68.589C37.7277 77.9365 33.8119 88.4042 32.1364 99.3359C30.4609 110.268 31.0619 121.428 33.9016 132.116C36.7413 142.805 41.7585 152.791 48.6387 161.45C55.5189 170.109 64.1137 177.253 73.8843 182.434C83.6548 187.615 94.3904 190.722 105.418 191.56C116.446 192.398 127.527 190.948 137.968 187.302C148.03 183.789 157.288 178.309 165.205 171.186C165.7 170.741 165.728 169.978 165.275 169.49C164.823 169.002 164.062 168.975 163.567 169.419C155.894 176.317 146.923 181.624 137.174 185.028C127.046 188.565 116.297 189.971 105.6 189.158C94.9037 188.345 84.4902 185.332 75.0127 180.306C65.5353 175.28 57.1983 168.35 50.5246 159.951C43.8508 151.553 38.984 141.866 36.2295 131.498C33.475 121.13 32.8921 110.305 34.5173 99.7008C36.1425 89.097 39.9409 78.9434 45.6742 69.8764C51.1928 61.1488 58.3897 53.6093 66.8429 47.693C67.3879 47.3116 67.5327 46.5636 67.1597 46.0128Z" fill="url(#paint0_linear_192_5692)"/>
<circle cx="65.0973" cy="47.4042" r="5.00749" fill="#D32B1F"/>
<path d="M149.022 159.775C149.422 160.336 150.203 160.468 150.757 160.057C157.32 155.179 162.864 149.057 167.071 142.036C171.493 134.658 174.343 126.446 175.441 117.914C176.54 109.383 175.865 100.717 173.458 92.4588C171.05 84.2009 166.963 76.5293 161.452 69.925C155.941 63.3207 149.124 57.9262 141.431 54.0797C133.737 50.2331 125.331 48.0175 116.741 47.5717C108.151 47.126 99.5615 48.4596 91.5109 51.4891C83.8502 54.3719 76.8348 58.731 70.8611 64.3149C70.3572 64.7859 70.3472 65.5777 70.8282 66.0721C71.3092 66.5665 72.0991 66.5762 72.6034 66.1056C78.3302 60.7615 85.052 56.5886 92.3907 53.827C100.119 50.9187 108.365 49.6384 116.612 50.0663C124.858 50.4943 132.928 52.6213 140.314 56.3139C147.7 60.0066 154.243 65.1853 159.534 71.5254C164.825 77.8655 168.749 85.2303 171.06 93.1579C173.371 101.086 174.019 109.405 172.964 117.595C171.909 125.785 169.173 133.669 164.929 140.752C160.898 147.478 155.59 153.344 149.307 158.022C148.753 158.434 148.622 159.213 149.022 159.775Z" fill="url(#paint1_linear_192_5692)"/>
<circle cx="150.225" cy="158.571" r="3.33833" fill="#D32B1F"/>
<defs>
<linearGradient id="paint0_linear_192_5692" x1="62.7608" y1="47.404" x2="167.918" y2="163.244" gradientUnits="userSpaceOnUse">
<stop stop-color="#D32A1E"/>
<stop offset="0.552083" stop-color="#CE2014" stop-opacity="0.503125"/>
<stop offset="0.828125" stop-color="#FD1100" stop-opacity="0.254687"/>
<stop offset="1" stop-color="#D32A1E" stop-opacity="0.1"/>
</linearGradient>
<linearGradient id="paint1_linear_192_5692" x1="152.598" y1="158.865" x2="68.6721" y2="70.7543" gradientUnits="userSpaceOnUse">
<stop stop-color="#D32A1E"/>
<stop offset="0.552083" stop-color="#CE2014" stop-opacity="0.503125"/>
<stop offset="0.828125" stop-color="#FD1100" stop-opacity="0.254687"/>
<stop offset="1" stop-color="#D32A1E" stop-opacity="0.1"/>
</linearGradient>
</defs>
</svg>
