<svg width="19" height="45" viewBox="0 0 19 45" fill="none" xmlns="http://www.w3.org/2000/svg">
<path d="M0 42.4334C0 43.4827 0.850659 44.3334 1.9 44.3334C2.94934 44.3334 3.8 43.4827 3.8 42.4334L3.8 1.90004C3.8 0.8507 2.94934 4.19617e-05 1.9 4.19617e-05C0.850659 4.19617e-05 0 0.8507 0 1.90004L0 42.4334Z" fill="url(#paint0_linear_3_3180)"/>
<path d="M15.2002 42.4334C15.2002 43.4827 16.0509 44.3334 17.1002 44.3334C18.1495 44.3334 19.0002 43.4827 19.0002 42.4334L19.0002 1.90004C19.0002 0.8507 18.1495 4.19617e-05 17.1002 4.19617e-05C16.0509 4.19617e-05 15.2002 0.8507 15.2002 1.90004L15.2002 42.4334Z" fill="url(#paint1_linear_3_3180)"/>
<defs>
<linearGradient id="paint0_linear_3_3180" x1="1.93455" y1="4.20021e-05" x2="1.93455" y2="44.3334" gradientUnits="userSpaceOnUse">
<stop stop-color="#D32A1E"/>
<stop offset="1" stop-color="#EB5E54"/>
</linearGradient>
<linearGradient id="paint1_linear_3_3180" x1="17.1347" y1="4.20021e-05" x2="17.1347" y2="44.3334" gradientUnits="userSpaceOnUse">
<stop stop-color="#D32A1E"/>
<stop offset="1" stop-color="#EB5E54"/>
</linearGradient>
</defs>
</svg>
