<svg width="22" height="18" viewBox="0 0 22 18" fill="none" xmlns="http://www.w3.org/2000/svg">
<path fill-rule="evenodd" clip-rule="evenodd" d="M21.2185 1.33568C21.542 1.07692 21.5944 0.604953 21.3357 0.281506C21.0769 -0.0419401 20.605 -0.0943811 20.2815 0.164376L16.9562 2.82464C15.279 1.31835 13.1397 2.76135e-05 10.75 2.76135e-05C8.60907 2.76135e-05 6.67327 1.05902 5.10175 2.34574C3.52166 3.63949 2.22964 5.22868 1.36144 6.43804L1.28984 6.53762C0.767181 7.26385 0.33695 7.86166 0.336944 8.75C0.336937 9.63833 0.76709 10.2361 1.28964 10.9622L1.36121 11.0617C1.90751 11.8227 2.61909 12.7305 3.46226 13.6198L0.281506 16.1644C-0.0419401 16.4231 -0.0943812 16.8951 0.164376 17.2185C0.423133 17.542 0.895102 17.5944 1.21855 17.3357L21.2185 1.33568ZM10.75 1.50003C12.5277 1.50003 14.2524 2.45932 15.7673 3.77574L13.1506 5.86909C12.5006 5.32707 11.6634 5.00003 10.75 5.00003C8.67896 5.00003 7.00003 6.67896 7.00003 8.75003C7.00003 9.36541 7.14871 9.94707 7.41192 10.46L4.63803 12.6792C3.81702 11.8246 3.11802 10.9368 2.57974 10.1869C1.95595 9.31801 1.83694 9.10854 1.83694 8.75001C1.83695 8.39149 1.956 8.18195 2.57995 7.31281C3.40922 6.15768 4.61351 4.68417 6.05203 3.50634C7.49913 2.32149 9.10426 1.50003 10.75 1.50003ZM10.75 6.50003C11.1862 6.50003 11.5933 6.62383 11.9384 6.8389L8.62436 9.4901C8.54377 9.25853 8.50003 9.00964 8.50003 8.75003C8.50003 7.50739 9.50739 6.50003 10.75 6.50003Z" fill="url(#paint0_linear_101_179)"/>
<path d="M19.1454 5.14079C18.8832 4.82006 18.4108 4.77255 18.09 5.03467C17.7693 5.29679 17.7218 5.76928 17.9839 6.09001C18.3344 6.51888 18.6481 6.93396 18.92 7.31273C19.5441 8.18194 19.6631 8.3915 19.6631 8.75002C19.6631 9.10855 19.5441 9.31809 18.9201 10.1872C18.0908 11.3424 16.8865 12.8159 15.448 13.9937C14.0009 15.1786 12.3958 16 10.75 16C9.34522 16 7.96821 15.4021 6.68756 14.4822C6.35113 14.2406 5.88252 14.3174 5.64088 14.6538C5.39923 14.9903 5.47607 15.4589 5.8125 15.7005C7.23703 16.7237 8.91761 17.5 10.75 17.5C12.891 17.5 14.8268 16.441 16.3983 15.1543C17.9784 13.8606 19.2704 12.2714 20.1386 11.062L20.2102 10.9624C20.7329 10.2362 21.1631 9.63837 21.1631 8.75002C21.1631 7.86167 20.7329 7.26382 20.2102 6.53754L20.1386 6.43796C19.8509 6.03725 19.5182 5.59696 19.1454 5.14079Z" fill="url(#paint1_linear_101_179)"/>
<path d="M14.5 8.75003C14.5 8.33581 14.1642 8.00003 13.75 8.00003C13.3358 8.00003 13 8.33581 13 8.75003C13 9.99267 11.9927 11 10.75 11C10.3358 11 10 11.3358 10 11.75C10 12.1642 10.3358 12.5 10.75 12.5C12.8211 12.5 14.5 10.8211 14.5 8.75003Z" fill="url(#paint2_linear_101_179)"/>
<defs>
<linearGradient id="paint0_linear_101_179" x1="21.5001" y1="8.90913" x2="-1.96027e-08" y2="8.90913" gradientUnits="userSpaceOnUse">
<stop stop-color="#D32A1E"/>
<stop offset="1" stop-color="#EB5E54"/>
</linearGradient>
<linearGradient id="paint1_linear_101_179" x1="21.5001" y1="8.90913" x2="-1.96027e-08" y2="8.90913" gradientUnits="userSpaceOnUse">
<stop stop-color="#D32A1E"/>
<stop offset="1" stop-color="#EB5E54"/>
</linearGradient>
<linearGradient id="paint2_linear_101_179" x1="21.5001" y1="8.90913" x2="-1.96027e-08" y2="8.90913" gradientUnits="userSpaceOnUse">
<stop stop-color="#D32A1E"/>
<stop offset="1" stop-color="#EB5E54"/>
</linearGradient>
</defs>
</svg>
