<svg width="37" height="22" viewBox="0 0 37 22" fill="none" xmlns="http://www.w3.org/2000/svg">
<g clip-path="url(#clip0_3_2871)">
<path d="M36.8052 19.9411C36.7601 19.8454 36.7185 19.7654 36.6796 19.7016C36.0372 18.5524 34.8109 17.1413 33.0002 15.4688L32.9614 15.4307L32.9422 15.4111L32.9231 15.3926H32.904C32.0819 14.6135 31.5617 14.0901 31.3438 13.8214C30.9457 13.3115 30.8557 12.7943 31.0741 12.2709C31.229 11.8752 31.8066 11.0389 32.8082 9.76161C33.3347 9.08544 33.7519 8.54305 34.0604 8.13331C36.2821 5.19689 37.2449 3.32062 36.9499 2.50283L36.8339 2.3114C36.7568 2.19609 36.5575 2.09086 36.2365 1.99514C35.9156 1.89943 35.5046 1.88431 35.0041 1.94756L29.456 1.98675C29.3276 1.97387 29.1992 1.97723 29.0703 1.9957C28.9419 2.01529 28.8586 2.03432 28.8198 2.05336C28.7809 2.07295 28.7494 2.08862 28.7235 2.10093L28.6463 2.15859C28.5822 2.19665 28.5118 2.26382 28.4346 2.3601C28.3575 2.45581 28.2928 2.5672 28.2421 2.69538C27.6385 4.24028 26.9516 5.67659 26.1808 7.00486C25.7056 7.79634 25.2687 8.48315 24.8712 9.06361C24.4732 9.64518 24.1393 10.0728 23.8696 10.3465C23.5999 10.6208 23.3556 10.8419 23.1377 11.007C22.9192 11.1738 22.752 11.2433 22.6371 11.2181C22.5212 11.1929 22.4119 11.1671 22.3095 11.1408C22.1298 11.0261 21.9846 10.8699 21.8759 10.6718C21.7667 10.4742 21.6929 10.2251 21.6541 9.92506C21.6158 9.62503 21.5927 9.36643 21.5871 9.14925C21.5803 8.93207 21.5837 8.62589 21.5967 8.23015C21.6096 7.83441 21.6158 7.56685 21.6158 7.42579C21.6158 6.94105 21.6254 6.41433 21.6451 5.84563C21.6642 5.27749 21.6805 4.82745 21.6929 4.49553C21.7059 4.16416 21.7121 3.81264 21.7121 3.44208C21.7121 3.07265 21.6896 2.78158 21.6445 2.57056C21.5995 2.3601 21.5319 2.15635 21.4424 1.95764C21.3523 1.76005 21.2206 1.60668 21.0471 1.49865C20.8737 1.39006 20.6587 1.30386 20.4019 1.24005C19.7206 1.08668 18.8541 1.00439 17.8013 0.990959C15.4123 0.96633 13.8775 1.1197 13.1968 1.45107C12.9271 1.59213 12.6828 1.783 12.4649 2.02593C12.2335 2.30692 12.2014 2.46085 12.3686 2.48492C13.1394 2.60023 13.685 2.87506 14.0059 3.30887L14.1219 3.53836C14.2114 3.70517 14.3015 3.99847 14.3916 4.4194C14.4817 4.84089 14.5391 5.3066 14.565 5.81764C14.6292 6.74962 14.6292 7.54726 14.565 8.21168C14.5008 8.87609 14.44 9.39274 14.382 9.76217C14.324 10.1327 14.2373 10.4322 14.1219 10.6622C14.0059 10.8929 13.9293 11.0334 13.8905 11.0843C13.8516 11.1352 13.8201 11.1671 13.7942 11.18C13.627 11.2433 13.4541 11.2757 13.274 11.2757C13.0938 11.2757 12.8759 11.1862 12.6186 11.007C12.3619 10.829 12.095 10.5828 11.8191 10.2699C11.5427 9.95752 11.2319 9.5198 10.8845 8.95782C10.5376 8.39639 10.1779 7.73253 9.80571 6.96624L9.49773 6.41042C9.30518 6.0533 9.04168 5.53273 8.7078 4.84984C8.37393 4.16696 8.07834 3.50646 7.8216 2.86723C7.71856 2.59967 7.56485 2.39536 7.35935 2.2543L7.26307 2.19665C7.19889 2.14571 7.09585 2.09142 6.95453 2.03432C6.81265 1.97667 6.6657 1.93525 6.51143 1.9095L1.23303 1.94756C0.693651 1.94756 0.327683 2.06959 0.135127 2.31196L0.057992 2.42671C0.019143 2.49108 0 2.59351 0 2.73345C0 2.8745 0.038849 3.04634 0.115984 3.25009C0.88677 5.05079 1.72456 6.78712 2.62991 8.45908C3.53582 10.1322 4.32181 11.4795 4.99012 12.5004C5.65788 13.5225 6.33858 14.4859 7.03223 15.3926C7.72588 16.2994 8.18475 16.8799 8.4094 17.1351C8.63405 17.3909 8.81027 17.5824 8.93921 17.71L9.4206 18.1701C9.72857 18.4763 10.1818 18.8435 10.7786 19.2711C11.376 19.6993 12.037 20.1203 12.7627 20.5345C13.4879 20.9498 14.333 21.2873 15.2958 21.5499C16.2591 21.8118 17.1966 21.917 18.1081 21.8655H20.3236C20.7735 21.8275 21.1136 21.6875 21.3444 21.4441L21.4216 21.3483C21.4728 21.2722 21.5212 21.1536 21.5663 20.9946C21.6107 20.8351 21.6338 20.6593 21.6338 20.4679C21.6203 19.9188 21.6625 19.4234 21.7588 18.9834C21.8551 18.5429 21.9643 18.211 22.0865 17.9871C22.2087 17.7643 22.346 17.5757 22.5009 17.4223C22.6552 17.2689 22.7638 17.1771 22.8286 17.1447C22.8927 17.1133 22.9445 17.0909 22.9828 17.0775C23.2908 16.9756 23.6534 17.0747 24.0712 17.3741C24.4884 17.6747 24.8802 18.0442 25.2462 18.4852C25.6122 18.9258 26.0519 19.42 26.5659 19.9697C27.0794 20.5188 27.5287 20.9269 27.9144 21.195L28.3001 21.4256C28.5568 21.5784 28.8907 21.7189 29.3017 21.8471C29.7127 21.9741 30.0725 22.0066 30.3805 21.9428L35.312 21.8655C35.8002 21.8655 36.1791 21.7861 36.4488 21.626C36.7185 21.4676 36.8789 21.2907 36.9302 21.0993C36.9814 20.9078 36.9848 20.6918 36.9398 20.4483C36.8947 20.2059 36.8497 20.0369 36.8052 19.9411Z" fill="white"/>
</g>
<defs>
<clipPath id="clip0_3_2871">
<rect width="37" height="20.9877" fill="white" transform="translate(0 0.988159)"/>
</clipPath>
</defs>
</svg>
