<svg width="35" height="25" viewBox="0 0 35 25" fill="none" xmlns="http://www.w3.org/2000/svg">
<path d="M34.0684 5.76656C33.7412 3.23487 32.2491 1.64688 29.6005 1.41232C26.5679 1.14381 20.0031 0.989258 16.9581 0.989258C10.7297 0.989258 7.94632 1.13836 5.00092 1.43717C2.19405 1.72143 0.965307 2.94394 0.482344 5.46775C0.144085 7.23635 0 8.89283 0 12.8076C0 16.3243 0.169439 18.5359 0.431636 20.3967C0.792158 22.952 2.58178 24.3878 5.20437 24.6018C8.25551 24.8509 14.3677 24.9752 17.3898 24.9752C20.3098 24.9752 26.8814 24.826 29.8033 24.5024C32.4185 24.2127 33.6621 22.8435 34.0684 20.3221C34.0684 20.3221 34.5 17.5601 34.5 12.7828C34.5 10.0626 34.2972 7.53274 34.0684 5.76656ZM13.5817 17.7347V8.01398L23.0251 12.8246L13.5817 17.7347Z" fill="white"/>
</svg>
