<svg width="640" height="735" viewBox="0 0 640 735" fill="none" xmlns="http://www.w3.org/2000/svg">
<g opacity="0.15">
<path fill-rule="evenodd" clip-rule="evenodd" d="M69.7822 137.818C71.3125 139.021 73.0435 141.182 73.629 142.62C75.0002 145.991 76.1679 163.69 75.1546 165.755C74.7293 166.623 75.5588 165.798 76.9998 163.922C78.7049 161.702 80.5091 160.326 82.1699 159.979C85.4956 159.284 85.0003 160.377 80.0048 164.76L75.9131 168.35L77.1344 174.199C78.3724 180.128 82.4484 190.425 84.5527 192.939C85.3959 193.947 85.4134 194.503 84.6182 195.015C83.183 195.94 82.8886 195.404 78.1264 183.174C75.8812 177.408 73.43 172.275 72.6788 171.767C71.9282 171.259 69.0405 171.037 66.2618 171.274C63.4832 171.512 61.7309 171.357 62.3678 170.929C64.2248 169.684 70.5624 168.019 70.7125 168.737C70.7878 169.098 71.2011 169.319 71.6304 169.23C72.0597 169.14 70.539 166.781 68.2505 163.987C64.4652 159.365 64.0118 158.391 63.2261 153.187C62.2673 146.842 61.8959 146.463 61.8171 151.746C61.7501 156.295 64.2118 162.279 67.2758 165.014C70.1291 167.562 69.9713 168.004 66.1972 168.035C63.8326 168.055 62.856 167.425 60.7722 164.536C55.5416 157.284 55.2994 146.602 60.2033 139.44C62.0981 136.673 62.3547 136.544 63.9284 137.576C65.4571 138.578 65.6845 138.538 66.3091 137.158C66.9107 135.827 67.3562 135.912 69.7822 137.818ZM63.5198 142.723C63.217 143.755 63.1598 144.56 63.3917 144.512C63.6236 144.464 64.0604 143.579 64.3632 142.547C64.6661 141.514 64.7234 140.709 64.4914 140.757C64.2594 140.806 63.8226 141.69 63.5198 142.723ZM129.168 163.886C132.269 164.969 135.818 166.47 137.052 167.22C140.455 169.291 143.586 174.689 143.782 178.826C144.065 184.767 143.066 190.81 141.473 192.803C137.922 197.248 132.07 206.568 131.473 208.728C129.907 214.402 130.665 215.045 132.724 209.789C135.679 202.247 141.254 194.711 147.188 190.235C153.576 185.417 158.3 184.986 163.97 188.701C167.276 190.868 167.944 191.768 168.587 194.926C170.65 205.061 165.055 212.511 151.383 217.832C148.025 219.14 145.797 220.275 146.431 220.358C147.065 220.44 150.408 222.958 153.858 225.953C157.309 228.947 161.983 232.482 164.246 233.806C172.603 238.696 182.99 240.172 195.249 238.212C208.786 236.048 224.512 236.634 228.369 239.446C229.286 240.114 231.402 243.134 233.072 246.157C242.228 262.729 256.025 273.96 276.536 281.54C281.964 283.545 288.512 286.239 291.087 287.526C293.662 288.814 295.903 289.839 296.067 289.804C296.232 289.77 295.529 285.289 294.504 279.845C292.83 270.934 292.424 266.523 292.652 259.673C292.721 257.61 292.572 257.705 290.532 261.016C289.326 262.974 287.558 266.119 286.606 268.004L284.873 271.432L284.626 267.518C284.331 262.855 284.809 260.799 287.049 257.098L288.727 254.324L283.053 255.509C274.641 257.265 266.648 254.371 263.942 248.589C262.951 246.471 263.032 246.286 264.91 246.392C266.038 246.455 267.778 246.342 268.777 246.14C269.936 245.906 271.413 246.672 272.853 248.255C275.165 250.795 281.952 253.129 284.979 252.424C285.888 252.213 285.11 251.841 283.211 251.578C278.161 250.88 275.399 249.563 273.534 246.961C272.318 245.266 271.28 244.743 269.742 245.05C266.68 245.661 260.135 243.996 258.657 242.23C256.594 239.765 255.99 234.73 257.318 231.06C257.997 229.185 258.439 226.071 258.3 224.141C258.061 220.794 258.185 220.606 261.002 220.048C262.625 219.725 264.87 219.581 265.99 219.726C267.784 219.959 267.969 219.708 267.547 217.607C267.284 216.297 267.473 213.411 267.968 211.195C268.463 208.978 268.641 206.079 268.365 204.754C268.088 203.427 268.624 200.306 269.557 197.819C270.49 195.331 271.105 192.584 270.923 191.715C270.662 190.465 271.016 190.174 272.613 190.324C276.557 190.695 280.125 192.029 285.164 195.016C287.971 196.681 289.604 197.477 288.791 196.787C285.995 194.412 288.118 194.321 293.121 196.603C309.705 204.167 317.609 221.105 310.559 233.975L308.695 237.376L309.103 234.515C309.949 228.582 303.461 219.162 293.928 212.48C290.696 210.214 290.1 210.272 289.996 212.864C289.952 213.967 288.699 217.505 287.211 220.727C285.723 223.949 284.514 227.768 284.525 229.215C284.543 231.739 284.563 231.751 285.015 229.543C285.274 228.277 286.838 223.865 288.489 219.738L291.493 212.236L294.797 214.823C301.317 219.928 305.28 224.934 306.822 230.01C308.178 234.472 308.137 235.166 306.258 239.647C305.146 242.303 303.249 245.499 302.044 246.748L299.852 249.021L302.834 251.224C305.975 253.545 307.373 255.915 304.794 254.548C304.018 254.136 301.766 254.261 299.791 254.824L296.198 255.848L295.463 262.153C294.497 270.437 295.493 281.955 297.666 287.635C298.597 290.067 299.761 292.091 300.254 292.134C300.747 292.176 302.438 288.891 304.011 284.834C309.834 269.822 313.869 264.078 320.619 261.197C324.328 259.613 323.569 261.337 318.33 266.396C310.199 274.245 307.317 280.517 307.45 290.071C307.589 300.017 308.473 303.087 312.497 307.6C321.057 317.198 330.49 321.644 338.672 319.936C341.696 319.304 343.892 318.26 345.59 316.646C348.424 313.952 350.639 307.901 349.968 304.685C349.526 302.568 349.695 302.595 356.892 305.783C360.949 307.581 367.97 309.964 372.494 311.079C378.895 312.657 380.935 313.551 381.689 315.107C385.632 323.256 390.517 331.371 394.123 335.766C398.694 341.335 406.53 346.955 410.869 347.777C412.67 348.118 413.812 348.994 414.358 350.453C414.804 351.644 414.733 350.246 414.199 347.346C413.354 342.746 413.486 341.617 415.231 338.526C421.133 328.077 436.348 316.839 453.53 310.24C455.718 309.4 456.448 308.721 455.968 307.975C455.057 306.561 444.446 297.114 435.944 290.148C426.385 282.316 423.199 277.801 422.582 271.212C421.619 260.923 423.915 253.735 430.769 245.571C433.449 242.379 435.321 239.14 435.806 236.855L436.579 233.217L440.26 235.371C442.285 236.556 446.502 238.581 449.63 239.872C457.459 243.102 463.611 247.681 465.722 251.853C469.14 258.605 468.376 269.485 463.231 287.285C461.554 293.088 460.382 297.794 460.626 297.743C461.421 297.577 467.026 279.053 468.365 272.164C469.25 267.613 469.398 263.521 468.825 259.459C467.857 252.589 468.492 250.121 471.812 247.854C475.209 245.536 477.173 245.894 488.759 250.944C494.472 253.433 500.397 255.715 501.926 256.013L504.706 256.555L507.001 266.119C508.519 272.451 509.084 276.372 508.671 277.723C507.603 281.221 502.764 286.274 493.357 293.716C488.371 297.66 485.184 300.42 486.275 299.85C488.459 298.708 502.913 287.442 504.143 285.923C504.599 285.359 505.978 285.08 507.521 285.239C508.955 285.387 511.563 285.448 513.316 285.375C518.75 285.148 519.151 288.255 515.344 301.092L513.277 308.061L515.417 315.473C517.451 322.516 517.479 323.003 515.99 325.281C513.781 328.66 506.329 333.145 501.123 334.228C496.166 335.259 493.614 334.579 486.011 330.199C479.411 326.397 475.83 324.917 470.752 323.89L466.551 323.041L467.836 325.05C469.741 328.029 468.875 328.281 466.901 325.322C465.007 322.485 457.774 315.114 458.015 316.269C458.1 316.676 459.725 318.654 461.624 320.665C472.922 332.625 475.353 345.562 467.921 354.161C465.507 356.953 464.887 357.194 450.704 360.859C440.95 363.38 434.91 364.578 432.781 364.415C427.348 363.997 421.63 360.861 418.391 356.521C416.767 354.345 415.536 353.055 415.657 353.655C416.54 358.048 426.386 365.038 432.159 365.37C435.524 365.564 439.414 366.96 438.839 367.769C438.653 368.03 435.885 368.182 432.689 368.104C427.455 367.976 426.625 367.679 424.338 365.112C419.707 359.911 417.792 359.815 401.827 363.98C399.163 364.676 398.207 364.361 394.265 361.491C390.697 358.895 388.925 358.22 385.804 358.269C375.893 358.425 357.407 363.916 352.112 368.276C349.242 370.64 347.745 380.163 349.658 383.885C350.457 385.439 350.82 386.963 350.468 387.297C349.768 387.962 346.969 383.002 346.324 379.95C346.099 378.884 346.272 376.723 346.708 375.149C347.146 373.576 347.112 371.481 346.633 370.495C345.804 368.783 346.283 368.465 357.197 363.463C372.636 356.386 382.008 353.192 386.589 353.445C390.008 353.634 390.124 353.57 389.243 351.969C383.309 341.173 366.473 327.031 359.72 327.168C358.063 327.201 350.61 329.146 343.158 331.488C335.705 333.831 320.083 338.665 308.441 342.229C285.536 349.243 282.565 350.686 278.426 356.81C272.821 365.102 268.542 376.218 267.457 385.303C266.695 391.697 267.562 397.53 271.078 409.662C272.738 415.386 273.439 419.061 273.086 420.186C272.471 422.148 273.091 423.343 266.776 408.033C264.562 402.665 262.995 397.708 262.989 396.046C262.962 389.877 264.398 378.613 265.71 374.69C267.516 369.284 266.867 369.078 255.494 371.435C250.547 372.461 243.403 373.344 239.62 373.399C235.837 373.453 229.398 374.252 225.311 375.175C215.539 377.382 215.002 377.047 212.987 367.487C211.362 359.779 211.808 358 213.97 363.569C215.708 368.046 217.909 370.73 221.171 372.351C223.549 373.532 224.488 373.456 231.358 371.525C237.029 369.931 240.304 369.467 244.418 369.677C260.689 370.506 268.25 366.869 270.378 357.188C272.191 348.946 282.401 341.184 294.971 338.492C303.651 336.633 306.946 334.84 309.466 330.604C311.587 327.036 311.599 326.821 309.957 321.862C309.031 319.066 307.199 315.416 305.885 313.752C300.338 306.719 286.521 296.302 269.296 286.168C263.36 282.675 255.991 277.514 252.919 274.697C243.617 266.168 242.54 265.728 234.946 267.338C230.171 268.35 227.349 269.471 224.226 271.594C219.298 274.947 208.864 285.644 202.118 294.263C196.075 301.982 195.646 302.442 194.924 301.97C194.323 301.576 199.571 293.588 206.465 284.402C212.014 277.008 217.901 272.719 231.996 265.798L238.943 262.388L233.185 256.164C230.017 252.741 226.014 248.761 224.289 247.321C219.913 243.668 211.299 241.652 202.698 242.268C182.993 243.68 179.117 243.659 173.32 242.113C167.412 240.538 144.479 228.563 139.738 224.578C138.37 223.428 136.927 222.794 136.531 223.17C136.136 223.545 140.169 226.803 145.494 230.408C157.031 238.219 159.093 240.482 160.46 246.831C162.479 256.209 156.442 266.074 147.043 268.758C142.717 269.994 141.538 269.987 138.332 268.709C133.702 266.863 129.763 261.896 127.782 255.405L126.295 250.534L123.167 254.155C116.303 262.102 103.086 265.83 96.3166 261.729C93.8285 260.221 92.197 253.702 93.1123 248.929C94.8092 240.08 105.289 229.471 114.603 227.172C115.754 226.888 114.216 226.635 111.186 226.61C103.754 226.548 96.9647 224.411 90.1842 219.997C83.7952 215.839 81.6303 212.592 79.9799 204.688L78.9125 199.576L83.0178 197.106C89.4277 193.248 100.064 191.394 106.586 192.995C113.466 194.684 115.166 195.67 116.488 198.734C117.15 200.267 116.901 197.893 115.883 192.962C114.397 185.764 114.322 183.867 115.348 179.489C116.61 174.103 121.685 162.303 122.843 162.061C123.219 161.982 126.065 162.804 129.168 163.886ZM63.2758 200.229C64.145 201.504 66.4387 203.8 68.3747 205.332C70.3098 206.864 72.0473 208.853 72.2352 209.753C72.8376 212.638 71.4495 217.524 68.7366 222.068L66.0959 226.49L73.3334 222.853C77.3445 220.837 81.5322 219.254 82.7263 219.303C85.1764 219.402 90.1077 224.099 92.9843 229.073L94.8943 232.377L92.3979 235.964C91.0238 237.937 90.0595 240.313 90.2538 241.243C91.1952 245.752 86.0026 251.122 79.3234 252.546C75.8354 253.29 74.8196 253.025 69.1548 249.89C65.6944 247.975 61.4811 245.507 59.7925 244.406C55.6956 241.732 58.6601 244.463 64.2761 248.535C68.6276 251.691 76.8647 261.432 77.4164 264.074C77.8897 266.34 74.2008 272.201 70.1129 275.678C66.8246 278.474 65.9881 278.861 65.0104 278.035C64.3295 277.46 62.7539 277.388 61.2375 277.862C55.4597 279.667 48.0441 271.823 47.6677 263.512C47.5388 260.657 47.44 260.542 46.3533 261.986C42.3567 267.3 36.1399 269.43 30.1903 267.524C26.0509 266.198 22.1524 262.459 23.8283 261.422C24.4839 261.016 24.3899 258.838 23.5423 254.766C22.0759 247.726 23.1382 243.224 26.8193 240.88L29.0902 239.434L26.2175 239.115C19.9379 238.42 16.5773 232.093 17.1425 222.027C17.294 219.329 17.2155 216.129 16.9675 214.916C16.5503 212.872 16.8425 212.606 20.954 211.295C23.3952 210.516 27.1186 208.826 29.2292 207.539C31.5819 206.105 33.9939 205.237 35.4602 205.296C38.776 205.43 42.3568 210.135 44.405 217.047C45.3094 220.101 46.824 223.628 47.7703 224.885C48.7166 226.141 49.0946 226.459 48.6105 225.59C48.1264 224.722 46.9973 221.495 46.1021 218.417L44.4734 212.822L47.0695 208.882C48.9448 206.034 51.3334 203.967 55.6803 201.426L61.6968 197.911L63.2758 200.229ZM50.6926 229.357C51.6988 230.01 51.7746 229.893 51.0662 228.785C50.5752 228.019 50.0058 227.649 49.8004 227.963C49.5947 228.276 49.996 228.904 50.6926 229.357ZM128.554 223.606C125.919 224.428 125.915 224.443 126.599 230.456C126.976 233.77 127.09 237.639 126.853 239.052C126.305 242.323 126.71 244.162 127.472 241.863C127.791 240.901 128.035 236.686 128.014 232.497L127.975 224.881L130.632 224.336C132.51 223.95 133.092 223.485 132.617 222.747C132.248 222.173 131.589 220.324 131.152 218.637C130.361 215.584 130.36 215.587 130.777 219.177C131.165 222.522 131.004 222.842 128.554 223.606ZM52.8787 235.054C53.0042 235.634 51.6407 238.117 49.8495 240.571L46.5933 245.034L49.8673 241.448C53.9661 236.961 55.8922 233.323 53.9564 233.727C53.2386 233.877 52.7542 234.475 52.8787 235.054ZM33.7455 239.47C35.5108 239.291 38.5477 238.659 40.4942 238.066C42.4408 237.473 40.9961 237.62 37.2843 238.392C33.5724 239.164 31.9801 239.649 33.7455 239.47ZM117.878 227.127C118.497 227.239 119.639 227.015 120.415 226.63C121.191 226.244 120.684 226.152 119.288 226.426C117.893 226.7 117.258 227.015 117.878 227.127ZM290.78 199.736C291.204 200.395 291.695 200.716 291.869 200.448C292.044 200.181 291.852 199.609 291.443 199.178C290.33 198.004 289.899 198.367 290.78 199.736ZM126.424 248.724C126.834 249.341 126.992 249.099 126.827 248.107C126.677 247.209 126.374 246.752 126.153 247.091C125.931 247.43 126.053 248.165 126.424 248.724ZM267.48 223.01C267.364 223.728 267.566 226.76 267.929 229.746L268.589 235.176L268.593 229.671C268.596 223.234 268.781 222.796 271.196 223.506C274.432 224.458 282.414 225.668 282.315 225.192C282.22 224.736 269.306 221.46 268.24 221.621C267.938 221.666 267.597 222.292 267.48 223.01ZM95.6402 271.254C100.839 272.74 108.234 276.762 108.549 278.275C109.068 280.758 90.7896 291.186 86.8589 290.649C85.9002 290.518 83.2183 289.081 80.8985 287.456C77.4115 285.014 76.1458 284.614 73.5943 285.146C71.0066 285.687 70.4475 285.5 70.1322 283.99C69.6166 281.521 73.6312 276.024 77.4729 273.938C82.7749 271.061 90.8132 269.872 95.6402 271.254ZM346.943 223.392L350.881 223.925L347.686 228.896L344.489 233.868L337.714 235.302C330.538 236.821 325.7 239.531 323.893 243.044C323.247 244.298 323.698 244.041 325.332 242.222C327.428 239.889 328.758 239.32 336.515 237.433L345.318 235.292L342.995 240.353C341.661 243.258 339.093 246.829 336.965 248.736C332.381 252.845 333.42 252.89 338.178 248.79C341.678 245.773 346.097 237.787 345.634 235.311C345.496 234.569 346.472 232.51 347.804 230.735L350.225 227.509L353.508 228.686C355.313 229.333 356.867 229.88 356.961 229.901C357.055 229.922 357.359 232.724 357.636 236.129C358.302 244.33 356.018 252.314 351.055 259.128C346.496 265.388 340.68 270.071 337.968 269.665C335.21 269.252 334.907 268.008 337.386 267.273C341.173 266.148 344.642 262.844 348.005 257.158C351.65 250.994 352.836 246.497 351.853 242.577C351.255 240.196 351.207 240.275 351.323 243.456C351.51 248.638 350.215 252.17 345.955 258.087C339.923 266.467 334.293 268.535 328.264 264.584C325.537 262.797 325.273 262.283 324.7 257.662C324.297 254.409 324.039 253.6 323.96 255.339C323.846 257.888 323.793 257.929 322.799 256.241C322.228 255.27 320.969 254.242 320.004 253.958C317.391 253.19 315.344 246.99 316.115 242.179C317.415 234.063 323.354 227.657 331.811 225.25C335.789 224.117 337.508 223.935 337.653 224.633C337.802 225.347 338.259 225.284 339.308 224.405C341.146 222.865 342.101 222.738 346.943 223.392ZM127.728 268.951C127.772 269.16 125.729 271.586 123.189 274.343C115.295 282.908 116.603 289.341 128.089 298.443L130.289 300.186L127.409 298.585C122.409 295.803 111.597 284.44 110.935 281.271C110.612 279.723 110.62 278.198 110.952 277.882C111.285 277.567 113.859 276.427 116.674 275.349C119.488 274.271 122.941 272.34 124.346 271.058C126.959 268.676 127.589 268.283 127.728 268.951ZM334.85 228.61C334.081 230.168 334.117 230.192 335.236 228.863C335.914 228.056 336.44 227.251 336.403 227.077C336.258 226.382 335.659 226.973 334.85 228.61ZM109.69 281.581C110.177 282.445 111.299 284.191 112.181 285.461C113.294 287.062 114.294 290.769 115.444 297.558C117.067 307.138 117.055 307.532 114.881 316.073C112.371 325.941 109.814 329.572 102.726 333.345C98.3346 335.682 95.9685 335.901 93.3872 334.209C90.3921 332.246 91.1185 329.98 98.1206 319.444C106.604 306.679 108.658 300.361 107.412 290.866C106.883 286.833 106.984 283.873 107.702 282.348C108.762 280.094 108.835 280.067 109.69 281.581ZM105.829 289.146C106.809 296.741 106.136 301.41 103.051 308.445C100.672 313.869 99.9012 314.798 95.9454 317.016C89.4263 320.67 81.9188 321.534 78.6322 319.01C77.2774 317.968 76.1159 316.853 76.0502 316.53C75.9845 316.207 77.4877 314.887 79.3903 313.594C83.2536 310.972 85.5355 307.29 87.2622 300.893C89.0977 294.094 91.0111 291.67 97.2333 288.262C100.344 286.559 103.393 284.84 104.009 284.442C104.937 283.844 105.251 284.656 105.829 289.146ZM288.456 251.439C289.084 251.553 290.033 251.355 290.565 250.999C291.095 250.644 290.581 250.551 289.421 250.793C288.262 251.035 287.827 251.326 288.456 251.439ZM320.624 255.444C323.545 257.573 322.912 258.545 319.254 257.548C317.348 257.029 315.3 256.707 314.703 256.831C314.105 256.956 313.536 256.678 313.439 256.214C313.129 254.727 318.806 254.119 320.624 255.444ZM330.485 253.536C329.883 254.131 329.77 254.539 330.234 254.442C330.698 254.345 331.57 253.779 332.172 253.184C332.774 252.588 332.887 252.18 332.423 252.277C331.959 252.374 331.087 252.94 330.485 253.536ZM182.809 286.796C183.936 288.379 185.92 290.75 187.218 292.066C189.018 293.892 189.593 295.197 189.641 297.565C189.726 301.644 188.335 301.351 184.313 296.446C182.049 293.686 180.789 291.208 180.191 288.344C179.16 283.406 180.028 282.892 182.809 286.796ZM249.166 271.917C250.902 273.055 250.113 274.421 246.733 276.127C242.582 278.223 237.1 282.182 233.177 285.919C228.169 290.688 227.569 299.082 231.749 305.879C233.052 307.997 234.263 308.737 237.127 309.167C242.042 309.906 249.881 313.86 247.997 314.649C247.245 314.963 245.765 314.965 244.706 314.654C242.407 313.977 242.409 314.029 244.826 317.553C247.219 321.041 248.415 326.847 247.379 329.934C246.623 332.181 246.562 332.078 246.203 327.955C245.827 323.647 243.223 317.218 241.616 316.635C241.158 316.469 241.673 317.97 242.761 319.972C244.902 323.91 245.31 329.101 243.884 334.235C242.993 337.444 243.077 338.195 244.207 337.122C244.732 336.622 244.904 336.734 244.656 337.416C243.865 339.603 240.145 339.487 238.125 337.214L236.189 335.034L233.168 338.785C230.278 342.375 230.064 342.488 228.231 341.413C225.462 339.789 223.166 335.35 222.865 331.035C222.639 327.793 222.378 327.302 220.917 327.366C219.258 327.439 219.244 327.378 220.081 323.575C221.153 318.702 225.667 313.807 228.672 314.257C230.703 314.562 230.701 314.596 228.442 319.396C227.108 322.232 226.841 323.292 227.798 321.961L229.428 319.692L230.502 324.481C231.092 327.114 232.491 330.465 233.61 331.928C234.73 333.391 235.243 333.878 234.752 333.011C234.261 332.145 233.044 328.497 232.048 324.904C230.49 319.283 230.396 317.872 231.374 314.773C232.526 311.121 231.541 307.84 229.017 306.923C227.664 306.432 226.142 298.851 226.516 294.462C226.904 289.902 232.853 281.534 238.983 276.926C244.058 273.111 248.016 271.164 249.166 271.917ZM175.26 293.816C182.099 295.891 188.346 302.637 186.559 306.017C186.166 306.762 184.664 308.266 183.222 309.361C180.685 311.287 180.471 311.307 176.491 309.966C171.09 308.148 170.016 308.442 174.778 310.434C177.003 311.365 179.607 311.754 181.177 311.391C183.527 310.846 184.056 311.14 185.894 314.006C187.034 315.782 189.911 318.792 192.291 320.696C196.355 323.949 196.63 324.396 196.857 328.109C197.217 334.041 195.82 339.256 192.333 344.998C189.319 349.965 183.324 356.323 182.293 355.648C181.332 355.018 173.124 338.808 172.706 336.716C172.15 333.929 173.559 327.813 176.423 320.59C178.4 315.602 178.447 315.258 176.735 318.248C174.232 322.618 171.212 332.192 171.229 335.701C171.237 337.153 171.895 339.573 172.694 341.078C173.774 343.112 173.914 344.04 173.241 344.696C171.765 346.134 168.78 346.444 167.088 345.336C165.89 344.55 165.157 344.598 164.043 345.531C161.644 347.543 157.084 348.074 154.686 346.621C150.563 344.124 149.048 337.248 152.464 336.535C154.961 336.013 157.995 333.307 162.613 327.481C167.172 321.73 170.624 318.642 173.062 318.133C173.96 317.946 175.144 316.608 175.693 315.16L176.692 312.528L175.015 314.861C174.093 316.145 172.745 317.318 172.02 317.47C169.24 318.05 164.963 321.791 161.272 326.87C156.901 332.883 153.205 335.774 150.046 335.646C144.098 335.406 143.75 330.101 149.144 321.913L152.977 316.096L150.131 316.941C147.523 317.717 147.188 317.569 146.138 315.185C145.508 313.753 144.171 311.761 143.167 310.757C141.373 308.963 141.389 308.882 144.077 306.189C151.775 298.476 168.606 291.798 175.26 293.816ZM323.731 263.347C323.904 264.173 325.322 265.955 326.883 267.308C328.443 268.66 330.867 271.562 332.267 273.757L334.815 277.748L332.468 276.365C331.178 275.604 329.14 274.709 327.94 274.375C323.935 273.261 320.247 265.835 322.372 263.161C323.235 262.076 323.473 262.108 323.731 263.347ZM192.476 300.808C192.567 301.246 192.312 301.917 191.908 302.301C191.504 302.685 191.461 304.378 191.813 306.064C192.305 308.42 193.573 310.071 197.304 313.21C208.579 322.699 212.343 333.529 206.816 340.578C204.353 343.721 202.05 344.551 202.283 342.215C202.369 341.349 202.741 338.744 203.11 336.426C204.018 330.715 202.143 327.398 193.942 320.222C185.908 313.19 184.8 311.106 187.256 307.643C188.58 305.777 188.824 304.625 188.151 303.429C187.364 302.03 187.508 301.812 189.112 301.976C190.224 302.089 190.922 301.798 190.811 301.267C190.708 300.771 191.003 300.287 191.467 300.19C191.931 300.093 192.385 300.371 192.476 300.808ZM197.321 302.933C199.075 303.22 201.677 303.241 203.104 302.98C204.53 302.72 206.539 302.888 207.567 303.355C209.344 304.161 209.3 304.308 206.683 306.302C203.435 308.777 200.653 308.872 196.527 306.649C194.924 305.785 193.441 305.341 193.232 305.662C193.021 305.982 192.892 305.403 192.943 304.375C193.05 302.235 193.05 302.235 197.321 302.933ZM168.047 309.138C168.385 309.36 169.12 309.238 169.677 308.867C170.294 308.457 170.052 308.299 169.061 308.463C168.164 308.613 167.708 308.916 168.047 309.138ZM226.464 307.602C230.615 308.746 232.185 311.957 228.926 312.637C227.75 312.883 225.324 312.726 223.535 312.289C220.801 311.622 219.535 311.8 215.596 313.409C213.02 314.461 210.762 315.234 210.58 315.126C210.399 315.018 211.693 313.623 213.454 312.026C217.908 307.988 222.364 306.472 226.464 307.602ZM734.403 204.523C737.007 205.404 742.939 206.506 747.584 206.973C758.08 208.028 760.057 208.793 761.998 212.553C767.499 223.212 762.794 229.941 753.042 225.36C738.371 218.466 731.442 219.572 709.408 232.323C696.903 239.56 695.223 241.423 694.426 248.935C693.754 255.277 691.811 261.524 686.159 275.52C680.333 289.945 679.033 294.877 677.113 309.831C675.278 324.124 674.351 328.012 671.427 333.7L669.269 337.896L663.384 339.125L657.497 340.354L660.65 334.206C662.588 330.428 664.046 325.957 664.433 322.605C665.107 316.774 663.955 302.874 662.818 303.111C662.442 303.189 659.418 305.872 656.097 309.072C648.645 316.254 635.418 326.364 627.07 331.259C623.62 333.282 619.691 335.986 618.339 337.267L615.881 339.598L611.653 336.826C606.633 333.537 606.671 333.16 612.766 325.608C619.29 317.523 626.715 312.128 640.189 305.684C659.295 296.546 662.147 293.175 666.706 274.345C669.139 264.299 670.116 261.929 675.26 253.596C680.258 245.503 681.258 243.133 682.424 236.631C684.026 227.707 685.995 223.669 690.222 220.633C691.928 219.408 700.776 215.243 709.885 211.378C718.993 207.514 727.17 204.03 728.056 203.637C728.942 203.244 731.798 203.643 734.403 204.523ZM236.422 313.138C236.455 313.299 237.488 313.975 238.717 314.642L240.95 315.854L238.947 314.29C237.064 312.82 236.281 312.463 236.422 313.138ZM417.7 281.004C423.053 282.271 427.952 285.264 436.069 292.232C439.962 295.574 445.743 300.47 448.916 303.112C452.089 305.755 454.554 308.117 454.393 308.361C454.234 308.606 452.035 309.653 449.507 310.689C446.979 311.725 440.591 315.111 435.311 318.215C426.697 323.278 424.846 324.044 417.289 325.678C407.666 327.758 403.565 327.257 394.608 322.91C388.432 319.913 386.243 317.196 383.922 309.653L382.154 303.904L386.886 301.456C389.96 299.867 393.173 297.203 396.05 293.859C405.767 282.57 405.835 282.509 409.94 281.295C412.697 280.48 415.103 280.39 417.7 281.004ZM481.644 301.818C481.982 302.04 482.716 301.918 483.274 301.547C483.89 301.137 483.649 300.979 482.658 301.144C481.761 301.293 481.305 301.596 481.644 301.818ZM208.554 360.944C208.652 361.414 208.151 361.92 207.44 362.068C206.73 362.216 201.108 366.116 194.946 370.734C182.97 379.71 177.075 383.452 174.236 383.881C172.526 384.139 172.522 384.124 174.078 383.426C174.964 383.03 181.475 378.171 188.548 372.629C200.478 363.28 208.111 358.822 208.554 360.944ZM475.557 338.028C482.499 350.803 483.672 353.972 487.899 371.362C492.396 389.865 493.154 391.262 500.616 394.832C506.005 397.412 514.591 397.528 528.634 395.21C547.321 392.125 552.827 388.305 562.913 371.435C570.105 359.403 576.908 351.341 584.843 345.444C591.094 340.798 602.49 334.609 603.533 335.292C603.89 335.526 603.742 339.144 603.205 343.332L602.23 350.946L596.657 353.997C584.734 360.526 577.752 367.11 564.993 383.855C549.8 403.796 539.59 409.771 521.295 409.429C517.266 409.354 510.362 409.394 505.951 409.518L497.933 409.745L489.012 414.813C478.744 420.646 454.425 436.799 445.49 443.72C439.221 448.577 435.834 452.396 427.108 464.446C420.742 473.234 415.542 478.068 405.343 484.675C400.905 487.55 395.898 491.345 394.218 493.106C390.473 497.033 385.104 505.49 381.513 513.123C380.033 516.266 378.449 518.823 377.991 518.806C377.532 518.789 379.683 521.479 382.769 524.783C388.661 531.094 389.058 531.769 388.213 534.031C387.879 534.924 388.107 535.766 388.84 536.35C390.605 537.757 389.409 542.097 387.348 541.758C383.551 541.132 376.543 541.786 368.071 543.555C360.993 545.033 357.842 545.293 354.059 544.711C345.45 543.387 337.946 537.978 336.746 532.231C336.52 531.146 337.109 528.191 338.057 525.664C339.004 523.138 339.77 519.996 339.759 518.681C339.738 516.297 339.762 516.285 350.739 512.87C356.789 510.988 362.977 509.46 364.49 509.477C366.337 509.495 368.501 510.595 371.07 512.818C373.176 514.641 375.058 516.014 375.254 515.869C375.45 515.724 376.85 512.959 378.366 509.723C383.445 498.884 390.456 491.233 408.862 476.443C422.104 465.803 422.554 465.36 430.156 455.42C433.259 451.362 437.56 446.312 439.713 444.198C446.08 437.947 475.566 414.733 479.755 412.673C483.888 410.641 483.861 410.776 481.281 404.757C479.835 401.386 460.929 395.5 455.312 396.673C454.153 396.915 453.637 396.603 453.776 395.745C453.926 394.809 452.779 395.296 449.617 397.507C447.214 399.186 444.663 401.078 443.948 401.709C442.761 402.757 442.535 402.322 441.362 396.729C439.865 389.583 438.076 385.789 434.616 382.418C431.838 379.711 425.62 376.86 422.23 376.74C420.864 376.692 421.434 377.059 423.717 377.697C428.736 379.1 432.581 381.629 435.546 385.479C437.564 388.1 438.352 390.306 439.811 397.419C442.514 410.597 443.732 423.56 442.589 426.984L441.608 429.921L432.43 432.123C423.684 434.222 423.071 434.254 419.411 432.797C417.299 431.955 414.725 430.516 413.693 429.598C411.832 427.942 411.855 427.867 416.048 421.452C419.174 416.671 420.816 412.83 422.329 406.769C424.211 399.222 424.267 397.936 423.025 390.775L421.674 382.987L422.265 389.523C423.597 404.25 418.52 419.57 409.175 429.019C406.979 431.24 405.852 433.525 404.945 437.596C404.263 440.647 403.053 444.043 402.254 445.142C400.81 447.127 400.78 447.126 397.271 444.903C388.342 439.249 385.005 427.144 387.489 409.416C388.267 403.867 389.156 398.328 389.465 397.106C389.99 395.024 389.965 395.002 389.075 396.754C387.758 399.346 385.642 410.873 385.339 417.106C385.2 419.953 385.58 424.642 386.182 427.527L387.277 432.771L381.774 434.55C377.698 435.868 375.123 436.21 371.85 435.868C369.419 435.614 366.897 435.751 366.244 436.172C365.357 436.743 365.099 436.503 365.22 435.227C365.31 434.287 365.807 428.676 366.324 422.759C367.487 409.452 368 407.52 371.894 401.785C374.547 397.879 374.624 397.63 372.414 400.102C370.291 402.478 369.346 402.968 367.207 402.81C364.311 402.596 358.669 401.155 358.553 400.599C358.225 399.027 362.829 388.251 365.323 384.754C368.63 380.119 371.123 378.121 374.47 377.422C376.531 376.992 376.53 377.017 374.264 385.176C373.014 389.679 372.569 392.25 373.276 390.89C373.982 389.531 375.325 385.648 376.261 382.262C378.266 374.995 381.57 370.23 386.245 367.859C393.608 364.127 405.669 364.711 409.236 368.974C410.145 370.061 412.452 371.533 414.361 372.247C417.68 373.488 418.003 373.453 421.675 371.454C424.164 370.099 426.896 369.284 429.436 369.14C434.951 368.825 448.035 371.327 452.45 373.54C459.035 376.84 461.068 383.275 457.276 388.814C456.182 390.412 455.348 392.017 455.423 392.379C455.499 392.741 456.611 391.43 457.896 389.465C459.18 387.5 460.114 385.336 459.972 384.655C459.638 383.057 459.428 383.06 466.251 384.555C469.469 385.26 474.328 386.066 477.05 386.347C479.771 386.627 483.047 387.614 484.33 388.541C487.032 390.493 487.197 389.596 484.586 387.143C481.906 384.624 480.733 379.336 481.211 371.935C481.69 364.508 480.686 360.676 476.084 352.352C473.808 348.235 473.379 346.809 473.693 344.393C473.921 342.635 473.389 339.145 472.373 335.732C471.437 332.588 470.778 329.992 470.91 329.965C471.041 329.938 473.132 333.566 475.557 338.028ZM332.275 363.279C332.822 365.899 335.18 368.614 337.328 369.097C338.415 369.34 340.856 369.859 342.753 370.249C346.444 371.008 346.913 371.661 346.003 374.766C345.684 375.855 345.428 379.537 345.436 382.949C345.442 386.36 345.106 390.381 344.689 391.884C343.682 395.51 340.836 399.427 338.918 399.827C336.634 400.304 334.029 397.207 333.02 392.811C332.007 388.408 332.471 386.88 337.352 378.548C340.006 374.016 340.286 373.194 338.536 375.063C334.836 379.012 331.04 386.457 331.105 389.633C331.158 392.211 330.668 392.887 327.16 395.081C322.219 398.17 316.521 400.365 315.697 399.495C315.357 399.138 315.793 397.162 316.664 395.105C317.535 393.048 319.357 388.601 320.712 385.222C323.721 377.716 330.335 370.848 331.086 374.447C331.217 375.072 332.284 376.138 333.458 376.816L335.593 378.049L333.051 374.87C330.194 371.294 328.82 366.137 330.04 363.567C331.099 361.332 331.848 361.236 332.275 363.279ZM329.311 371.196C329.241 371.809 327.383 373.98 325.184 376.019C321.067 379.839 317.108 381.349 313.78 380.37C311.331 379.65 311.195 378.298 313.523 377.807C314.566 377.587 317.501 375.992 320.045 374.263C325.089 370.833 329.524 369.365 329.311 371.196ZM252.83 402.252C260.633 404.155 261.841 405.492 265.416 416.189C267.231 421.616 269.649 427.112 271.181 429.289C272.962 431.822 273.882 434.063 274.01 436.189C274.116 437.921 274.429 436.586 274.708 433.221C275.4 424.826 276.642 420.752 279.853 416.345C284.904 409.412 290.836 408.079 297.581 412.359C299.566 413.618 304.01 415.967 307.456 417.579C315.307 421.252 318.261 424.65 319.649 431.611C320.806 437.409 319.765 442.392 316.377 447.275C314.251 450.341 314.159 450.382 305.196 452.108C296.624 453.758 295.713 453.756 287.427 452.043C282.624 451.051 277.002 449.375 274.934 448.32C272.867 447.265 271.075 446.563 270.953 446.758C270.456 447.556 274.133 481.39 274.858 482.676C276.506 485.604 269.071 497.141 262.873 501.269C261.631 502.096 257.26 503.775 253.159 504.999C249.057 506.224 244.773 507.688 243.64 508.253C241.583 509.277 241.573 509.263 238.407 501.109C234.376 490.723 233.553 486.592 234.593 481.978C236.062 475.462 240.514 470.11 251.924 461.146C257.746 456.57 262.234 452.878 261.897 452.939C260.337 453.224 243.276 465.8 240.534 468.686C238.838 470.47 236.381 473.784 235.075 476.05C232.381 480.722 230.428 481.513 226.71 479.438C224.535 478.225 223.551 476.573 220.522 469.054C218.542 464.136 216.251 458.95 215.433 457.531C214.062 455.152 214.115 454.657 216.119 451.219C217.315 449.166 218.848 445.953 219.526 444.077C221.652 438.187 225.148 436.683 237.172 436.483C240.92 436.421 244.104 436.192 244.246 435.973C244.492 435.597 239.909 435.46 232.752 435.63C230.148 435.693 228.811 435.036 226.133 432.386C224.289 430.559 222.727 428.816 222.663 428.512C222.379 427.149 226.071 423.283 231.369 419.399C237.006 415.266 238.499 413.246 241.175 406.137C242.799 401.824 246.297 400.658 252.83 402.252ZM401.108 381.243C398.079 387.351 393.993 391.31 387.97 393.973L384.351 395.574L388.088 394.502C393.299 393.007 398.628 388.709 401.062 384.039C402.196 381.864 404.462 377.963 406.099 375.368C409.006 370.758 409.016 370.706 406.505 373.096C405.091 374.442 402.662 378.108 401.108 381.243ZM610.863 337.272C613.725 339.121 618.98 342.404 622.541 344.569C629.899 349.042 632.559 352.134 634.175 358.096L635.304 362.26L638.446 356.955C644.251 347.155 653.849 341.466 667.729 339.599L675.617 338.537L673.961 342.008C672.566 344.932 672.477 346.357 673.401 351.056C674.925 358.814 672.648 365.433 666.214 371.945L662.84 375.36L659.642 373.829C654.242 371.246 655.008 372.363 660.638 375.282C666.257 378.195 677.574 381.592 683.314 382.087L686.754 382.384L681.289 388.625C678.283 392.057 673.549 396.582 670.768 398.678C666.289 402.055 664.843 402.674 658.124 404.094C650.497 405.707 649.089 405.621 642.073 403.106L639.219 402.083L642.211 403.766C643.857 404.692 646.534 405.657 648.16 405.911C652.378 406.569 652.451 408.739 648.331 410.946C644.118 413.203 638.943 418.191 636.406 422.44C634.585 425.493 634.656 425.452 637.58 421.76C644.313 413.258 651.79 409.104 671.124 403.122C678.4 400.871 685.47 398.58 686.834 398.03C688.962 397.171 689.537 397.331 690.873 399.152C691.729 400.319 692.989 402.962 693.673 405.022C694.753 408.278 694.672 409.312 693.052 412.901C692.026 415.174 689.866 418.487 688.252 420.264C685.204 423.619 677.974 428.611 675.377 429.153C674.307 429.376 675.383 430.482 679.174 433.054C685.218 437.153 692.187 444.462 698.348 453.164L702.595 459.161L698.727 460.57C690.084 463.718 671.483 468.082 667.704 467.848C663.67 467.598 663.573 467.487 661.033 460.175C659.274 455.112 653.611 448.035 648.371 444.348C645.668 442.446 645.187 442.251 647.018 443.799C654.695 450.29 660.616 460.252 662.642 470.087C664.59 479.54 663.122 485.165 655.291 498.281C652.175 503.5 653.661 504.108 641.976 492.836C636.391 487.448 633.79 484.242 632.249 480.843C630.187 476.296 630.18 476.168 631.909 474.437C635.644 470.695 638.356 466.37 639.857 461.755C640.715 459.114 641.325 456.577 641.211 456.116C641.098 455.655 640.53 456.963 639.947 459.023C637.054 469.261 631.225 475.411 622.804 477.111C612.329 479.226 599.756 477.656 596.558 473.834C595.521 472.596 595.9 471.85 599.33 468.372C603.523 464.12 605.176 460.617 605.781 454.702C606.318 449.451 607.47 447.054 610.996 443.858C614.41 440.763 623.158 436.572 628.649 435.4C631.546 434.783 632.183 434.277 632.643 432.235C632.944 430.897 633.064 429.746 632.91 429.677C632.756 429.608 630.988 429.27 628.98 428.926C626.264 428.461 625.328 427.888 625.326 426.683C625.319 421.666 623.135 414.673 620.364 410.792L617.423 406.674L612.302 408.303C601.639 411.696 593.196 409.522 589.702 402.486C588.844 400.756 587.1 394.947 585.828 389.578L583.515 379.814L587.116 378.093C603.27 370.37 613.067 369.505 623.03 374.924L626.951 377.057L623.839 374.8C620.285 372.223 613.411 370.122 608.564 370.131C605.704 370.137 605.072 369.748 603.855 367.231C602.22 363.849 602.315 359.206 604.336 343.923L605.659 333.91L610.863 337.272ZM377.351 396.741C377.69 396.962 378.424 396.841 378.981 396.47C379.598 396.06 379.356 395.901 378.365 396.066C377.469 396.215 377.013 396.519 377.351 396.741ZM250.079 437.206C250.307 437.335 251.538 437.695 252.813 438.006C254.999 438.538 255.023 438.515 253.22 437.599C251.652 436.802 248.71 436.434 250.079 437.206ZM274.114 441.725C274.524 442.342 274.682 442.1 274.517 441.108C274.368 440.21 274.065 439.754 273.843 440.093C273.622 440.431 273.743 441.166 274.114 441.725ZM276.011 450.037C277.589 450.639 283.773 452.163 289.753 453.424C299.015 455.377 301.37 456.254 305.659 459.349C308.711 461.551 311.53 464.461 312.813 466.736C317.979 475.896 318.464 480.974 314.914 488.739L312.819 493.323L308.417 492.365C305.034 491.63 302.113 491.769 295.801 492.967C284.741 495.065 281.74 493.849 277.588 485.585C276.066 482.558 275.413 479.416 274.254 469.537C272.3 452.879 271.994 449.041 272.613 448.987C272.904 448.962 274.433 449.434 276.011 450.037ZM652.272 372.821C652.611 373.043 653.345 372.922 653.902 372.551C654.519 372.141 654.277 371.982 653.286 372.147C652.39 372.296 651.934 372.6 652.272 372.821ZM642.148 375.01C643.005 375.054 644.332 374.776 645.1 374.394C645.868 374.012 645.167 373.977 643.543 374.316C641.92 374.655 641.291 374.968 642.148 375.01ZM632.858 380.274C631.159 382.488 631.12 382.736 632.585 382.006C634.418 381.093 637.088 377.222 635.683 377.516C635.219 377.613 633.947 378.854 632.858 380.274ZM655.195 406.929C655.005 407.454 654.281 408.002 653.585 408.147C652.889 408.292 652.475 407.982 652.664 407.458C652.854 406.934 653.579 406.386 654.275 406.24C654.97 406.095 655.385 406.405 655.195 406.929ZM669.914 429.996C670.543 430.11 671.491 429.912 672.023 429.556C672.553 429.201 672.039 429.108 670.88 429.35C669.72 429.592 669.285 429.883 669.914 429.996ZM662.752 431.44C663.091 431.662 663.825 431.541 664.382 431.17C664.999 430.76 664.757 430.601 663.766 430.766C662.87 430.915 662.414 431.218 662.752 431.44ZM657.024 433.518C657.363 433.74 658.097 433.618 658.654 433.247C659.271 432.837 659.029 432.679 658.038 432.843C657.142 432.993 656.686 433.296 657.024 433.518ZM652.983 435.243C653.322 435.465 654.056 435.343 654.613 434.972C655.23 434.562 654.988 434.404 653.997 434.568C653.101 434.718 652.645 435.021 652.983 435.243ZM417.802 491.712C421.964 493.195 424.119 495.574 425.777 500.517C426.955 504.03 426.97 505.546 425.872 509.869C423.846 517.85 414.198 528.732 404.756 533.689C400.481 535.932 400.477 535.937 404.119 534.682C408.842 533.055 413.065 529.988 418.782 524.034C423.329 519.298 423.457 519.23 430.554 517.777C439.444 515.956 443.378 516.403 447.967 519.755C453.82 524.029 460.518 535.997 458.486 538.552C457.955 539.221 454.181 541.724 450.101 544.113C443.475 547.995 441.951 548.561 435.84 549.416C432.077 549.943 427.349 550.136 425.334 549.845L421.669 549.316L424.412 552.825C430.64 560.792 432.154 574.747 427.97 585.619C426.738 588.821 425.435 591.498 425.076 591.567C423.543 591.866 415.852 590.874 412.511 589.949C401.994 587.034 393.289 575.568 389.885 560.15C388.727 554.901 388.153 553.243 388.218 555.333C388.434 562.311 381.773 574.372 374.92 579.41C370.13 582.931 361.587 584.751 357.014 583.225C348.71 580.453 347.363 564.697 354.469 553.462C355.916 551.174 357.983 548.737 359.062 548.045C362.057 546.128 382.665 542.132 386.692 542.688C389.984 543.144 390.102 543.087 390.184 541.019C390.231 539.841 390.952 538.15 391.787 537.26C393.096 535.865 393.101 535.684 391.826 535.951C389.22 536.495 388.962 534.367 390.455 524.69C393.056 507.837 396.172 499.265 401.157 495.25C405.212 491.983 413.574 490.206 417.802 491.712ZM306.761 550.408C312.301 557.246 319.51 560.769 325.352 559.494C329.046 558.688 330.016 557.925 335.596 551.437C337.756 548.927 339.822 546.81 340.186 546.733C340.552 546.657 339.618 548.659 338.112 551.181C335.548 555.474 332.86 564.071 333.337 566.45C333.61 567.808 332.518 568.012 328.854 567.285C323.924 566.307 307.318 554.292 304.861 549.924C303.391 547.315 304.477 547.591 306.761 550.408ZM305.636 564.511C307.896 564.897 312.125 565.232 315.034 565.255C318.354 565.28 321.542 565.968 323.592 567.099C325.389 568.092 327.417 568.788 328.096 568.646C330.061 568.236 329.872 569.981 327.785 571.515C326.342 572.575 324.435 572.95 319.963 573.051C316.711 573.125 312.184 573.736 309.904 574.411L305.759 575.637L310.854 574.742C313.656 574.25 318.113 573.966 320.758 574.11C323.403 574.254 325.789 574.299 326.06 574.21C327.695 573.67 327.625 574.453 325.675 578.538C324.478 581.042 323.051 584.743 322.501 586.765C321.377 590.903 317.734 594.024 310.546 597.008C304.329 599.588 300.055 603.219 298.047 607.623L296.289 611.482L293.531 609.315C291.411 607.65 290.584 606.235 289.958 603.2C288.663 596.938 291.974 585.385 296.063 581.897C297.091 581.02 297.549 580.37 297.082 580.453C296.615 580.535 292.905 583.632 288.836 587.334C284.768 591.036 281.269 593.96 281.06 593.833C280.318 593.378 292.764 573.416 296.369 569.277C301.358 563.549 301.024 563.721 305.636 564.511ZM388.46 550.919C388.87 551.536 389.028 551.294 388.863 550.302C388.714 549.404 388.41 548.948 388.189 549.286C387.967 549.625 388.089 550.36 388.46 550.919ZM417.719 549.05C418.509 549.355 419.535 549.525 419.999 549.428C420.463 549.331 420.196 549.003 419.406 548.698C418.616 548.393 417.59 548.223 417.127 548.32C416.663 548.417 416.929 548.745 417.719 549.05ZM334.391 570.636C335.268 571.301 337.606 574.283 339.586 577.262C344.693 584.946 346.288 592.522 344.295 599.633C341.956 607.981 338.37 612.326 332.874 613.474C331.167 613.83 330.788 613.595 331.017 612.32C331.874 607.526 330.929 604.651 327.585 601.874C321.698 596.984 321.012 592.867 324.55 583.676C326.869 577.649 331.125 569.776 332.182 569.555C332.521 569.485 333.515 569.971 334.391 570.636ZM301.368 577.793C300.575 578.611 300.932 578.619 302.694 577.819C305.65 576.476 306.222 575.853 304.068 576.32C303.18 576.514 301.965 577.175 301.368 577.793ZM401.167 586.215C404.048 589.612 407.225 594.088 408.228 596.162C409.863 599.545 409.942 600.366 408.994 604.162C407.822 608.861 404.048 613.981 398.353 618.602C393.506 622.535 394.741 622.383 400.001 618.4C402.214 616.723 406.11 612.558 408.657 609.146C411.506 605.329 414.728 602.102 417.025 600.765C422.74 597.441 425.856 598.432 431.209 605.278C432.676 607.153 435.987 610.118 438.57 611.866C442.923 614.814 443.19 615.175 442.247 616.827C441.688 617.806 440.004 622.234 438.506 626.667C435.438 635.746 433.827 638.418 429.723 641.237C425.77 643.955 423.558 644.242 418.33 642.72L413.809 641.404L417.01 643.349C419.39 644.795 420.358 646.022 420.783 648.126C421.636 652.35 420.045 657.817 416.508 662.814C413.475 667.099 413.142 668.082 413.946 670.377C414.149 670.955 413.047 672.299 411.497 673.364C409.23 674.922 407.827 675.296 404.325 675.276C395.675 675.227 391.682 672.909 387.858 665.713C385.797 661.835 385.637 661.064 386.106 657.248C386.887 650.893 386.334 650.545 385.195 656.674C382.584 670.725 369.736 680.258 361.068 674.578C359.086 673.279 358.067 673.063 357.561 673.838C356.575 675.345 353.736 673.395 353.153 670.81C352.412 667.52 353.069 648.582 353.969 647.304C355.871 644.601 363.79 641.054 373.876 638.384C383.972 635.712 384.087 635.659 377.487 636.707C373.738 637.301 368.198 638.273 365.175 638.866C356.214 640.625 353.599 640.344 349.508 637.185C345.828 634.343 341.946 628.796 341.227 625.351C341.015 624.336 341.468 622.238 342.234 620.689C343.325 618.484 343.398 616.782 342.572 612.824C341.527 607.819 341.544 607.753 344.473 605.187C346.098 603.764 349.826 601.235 352.757 599.567C360.201 595.332 361.636 595.735 370.488 604.546L377.513 611.539L376.488 604.315C374.826 592.611 376.682 588.865 385.669 585.778C388.923 584.659 392.38 582.949 393.351 581.977C394.322 581.004 395.299 580.17 395.522 580.123C395.747 580.076 398.286 582.817 401.167 586.215ZM398.214 632.691C398.242 632.824 400.651 634.403 403.568 636.199L408.871 639.465L403.76 635.905C399.01 632.598 398.083 632.06 398.214 632.691ZM409.266 639.246C409.299 639.406 410.332 640.082 411.56 640.749L413.794 641.962L411.791 640.397C409.908 638.928 409.125 638.57 409.266 639.246ZM386.098 649.948C386.264 650.746 386.499 650.535 386.734 649.375C386.939 648.363 386.987 646.965 386.842 646.268C386.675 645.47 386.44 645.681 386.205 646.842C386 647.854 385.952 649.252 386.098 649.948Z" fill="url(#paint0_linear_3_2783)" fill-opacity="0.25"/>
</g>
<defs>
<linearGradient id="paint0_linear_3_2783" x1="62.1535" y1="447.685" x2="780.664" y2="297.651" gradientUnits="userSpaceOnUse">
<stop stop-color="#D32A1E"/>
<stop offset="1" stop-color="#D32A1E" stop-opacity="0.8"/>
</linearGradient>
</defs>
</svg>
