<svg width="805" height="735" viewBox="0 0 805 735" fill="none" xmlns="http://www.w3.org/2000/svg">
<g opacity="0.15">
<path fill-rule="evenodd" clip-rule="evenodd" d="M739.493 163.937C737.737 164.777 735.576 166.508 734.69 167.783C732.616 170.773 727.61 187.789 728.148 190.026C728.373 190.966 727.744 189.98 726.747 187.835C725.568 185.295 724.108 183.558 722.564 182.857C719.47 181.452 719.714 182.627 723.632 187.996L726.84 192.393L724.371 197.833C721.867 203.349 715.64 212.506 713.038 214.5C711.995 215.299 711.856 215.838 712.52 216.512C713.719 217.728 714.123 217.269 721.442 206.375C724.893 201.239 728.406 196.765 729.25 196.434C730.094 196.102 732.96 196.516 735.62 197.355C738.279 198.193 740.023 198.425 739.495 197.869C737.955 196.248 732.134 193.238 731.831 193.907C731.678 194.242 731.227 194.368 730.827 194.187C730.428 194.005 732.427 192.036 735.271 189.809C739.975 186.126 740.63 185.274 742.534 180.367C744.855 174.385 745.301 174.096 744.223 179.27C743.295 183.722 739.585 189.024 735.998 191.024C732.657 192.887 732.714 193.353 736.39 194.208C738.694 194.743 739.784 194.342 742.449 191.978C749.137 186.045 751.707 175.673 748.487 167.613C747.242 164.499 747.02 164.317 745.259 164.981C743.548 165.624 743.335 165.535 743.027 164.052C742.73 162.622 742.277 162.608 739.493 163.937ZM744.533 170.092C744.603 171.166 744.483 171.964 744.267 171.866C744.051 171.768 743.818 170.81 743.748 169.736C743.678 168.662 743.798 167.864 744.014 167.962C744.23 168.06 744.463 169.018 744.533 170.092ZM675.847 176.403C672.584 176.782 668.794 177.471 667.425 177.933C663.652 179.21 659.418 183.795 658.322 187.788C656.748 193.524 656.403 199.639 657.522 201.933C660.016 207.046 663.691 217.419 663.801 219.658C664.09 225.536 663.21 225.998 662.349 220.42C661.113 212.414 657.319 203.843 652.506 198.178C647.325 192.081 642.809 190.628 636.464 193.015C632.765 194.407 631.917 195.139 630.599 198.081C626.371 207.521 630.204 216.013 642.383 224.192C645.374 226.201 647.301 227.797 646.664 227.739C646.027 227.68 642.215 229.407 638.194 231.576C634.173 233.744 628.839 236.172 626.341 236.97C617.118 239.916 606.659 239.087 595.124 234.497C582.387 229.428 566.913 226.564 562.535 228.465C561.495 228.917 558.77 231.401 556.48 233.986C543.925 248.158 528.007 256.104 506.335 259.019C500.6 259.791 493.623 260.989 490.829 261.683C488.034 262.376 485.623 262.887 485.47 262.818C485.317 262.748 486.983 258.528 489.172 253.44C492.753 245.11 494.112 240.894 495.386 234.16C495.77 232.132 495.894 232.257 497.161 235.934C497.911 238.108 498.948 241.563 499.466 243.611L500.408 247.335L501.504 243.569C502.811 239.083 502.793 236.972 501.416 232.871L500.384 229.798L505.663 232.193C513.488 235.746 521.92 234.668 525.824 229.616C527.253 227.765 527.215 227.568 525.359 227.261C524.245 227.076 522.571 226.585 521.641 226.17C520.561 225.688 518.953 226.113 517.201 227.343C514.39 229.317 507.258 230.111 504.458 228.763C503.616 228.358 504.457 228.165 506.367 228.323C511.448 228.745 514.431 228.063 516.819 225.932C518.376 224.543 519.503 224.26 520.937 224.895C523.792 226.161 530.543 225.966 532.371 224.565C534.923 222.61 536.611 217.829 536.117 213.957C535.865 211.979 536.113 208.844 536.671 206.991C537.635 203.777 537.555 203.566 534.929 202.406C533.415 201.737 531.255 201.106 530.131 201.003C528.33 200.838 528.204 200.553 529.075 198.595C529.618 197.373 530.063 194.516 530.064 192.245C530.065 189.974 530.525 187.107 531.085 185.873C531.645 184.639 531.803 181.477 531.436 178.845C531.069 176.214 531.069 173.399 531.436 172.591C531.964 171.428 531.682 171.066 530.091 170.864C526.162 170.364 522.388 170.886 516.818 172.701C513.716 173.712 511.948 174.133 512.892 173.637C516.139 171.929 514.088 171.377 508.707 172.511C490.871 176.27 479.458 191.072 483.526 205.171L484.601 208.897L484.829 206.016C485.3 200.041 493.688 192.266 504.451 187.828C508.1 186.323 508.669 186.51 508.203 189.062C508.006 190.148 508.456 193.874 509.204 197.344C509.952 200.813 510.297 204.804 509.971 206.213C509.402 208.672 509.38 208.68 509.421 206.426C509.445 205.134 508.883 200.487 508.173 196.099L506.88 188.123L503.091 189.925C495.613 193.482 490.652 197.501 488.039 202.118C485.741 206.176 485.629 206.862 486.483 211.646C486.989 214.481 488.141 218.014 489.045 219.496L490.687 222.193L487.296 223.691C483.724 225.27 481.842 227.277 484.657 226.506C485.504 226.274 487.674 226.888 489.479 227.869L492.761 229.653L492.101 235.966C491.234 244.261 487.746 255.283 484.384 260.351C482.945 262.521 481.366 264.242 480.876 264.176C480.386 264.109 479.453 260.534 478.804 256.232C476.402 240.31 473.719 233.823 467.762 229.537C464.488 227.181 464.852 229.03 468.86 235.111C475.079 244.547 476.522 251.297 474.304 260.591C471.996 270.267 470.463 273.07 465.55 276.594C455.1 284.09 444.923 286.368 437.313 282.914C434.5 281.637 432.585 280.138 431.28 278.192C429.103 274.944 428.263 268.555 429.621 265.563C430.515 263.594 430.344 263.584 422.625 265.123C418.273 265.99 410.901 266.782 406.242 266.882C399.651 267.023 397.465 267.45 396.39 268.804C390.761 275.895 384.222 282.747 379.742 286.247C374.066 290.683 365.191 294.455 360.777 294.309C358.945 294.249 357.639 294.855 356.788 296.159C356.093 297.224 356.467 295.876 357.622 293.161C359.451 288.857 359.569 287.727 358.541 284.33C355.065 272.843 342.673 258.553 327.347 248.36C325.396 247.062 324.831 246.24 325.463 245.617C326.661 244.436 339.079 237.535 348.898 232.595C359.937 227.04 364.032 223.331 366.074 217.036C369.261 207.206 368.591 199.69 363.686 190.225C361.768 186.525 360.649 182.955 360.675 180.619L360.715 176.9L356.652 178.198C354.418 178.912 349.861 179.967 346.526 180.543C338.18 181.985 331.177 185.11 328.205 188.719C323.395 194.562 321.763 205.346 322.895 223.84C323.264 229.869 323.38 234.718 323.153 234.615C322.413 234.279 320.99 214.977 321.188 207.962C321.319 203.328 322.069 199.302 323.515 195.463C325.961 188.971 325.88 186.424 323.136 183.487C320.327 180.482 318.332 180.403 305.923 182.799C299.804 183.981 293.523 184.913 291.967 184.869L289.135 184.791L284.806 193.623C281.942 199.47 280.534 203.174 280.641 204.582C280.92 208.229 284.537 214.216 292.092 223.534C296.096 228.472 298.603 231.862 297.662 231.067C295.781 229.475 284.138 215.324 283.269 213.573C282.947 212.923 281.662 212.35 280.122 212.168C278.69 211.999 276.132 211.489 274.438 211.034C269.184 209.625 268.114 212.57 269.025 225.928L269.519 233.181L265.812 239.946C262.288 246.375 262.154 246.843 263.11 249.393C264.527 253.172 270.82 259.177 275.663 261.371C280.275 263.46 282.914 263.353 291.29 260.741C298.561 258.473 302.379 257.811 307.559 257.918L311.844 258.006L310.151 259.686C307.641 262.177 308.431 262.612 311.004 260.157C313.472 257.801 322.14 252.189 321.653 253.263C321.481 253.641 319.464 255.217 317.171 256.765C303.533 265.967 298.334 278.061 303.709 288.076C305.454 291.328 306.006 291.699 319.046 298.374C328.014 302.964 333.646 305.453 335.759 305.759C341.152 306.538 347.417 304.727 351.526 301.199C353.587 299.431 355.069 298.44 354.82 299C353 303.094 341.864 307.764 336.157 306.827C332.831 306.281 328.731 306.794 329.115 307.708C329.24 308.004 331.907 308.757 335.044 309.379C340.179 310.398 341.054 310.289 343.846 308.283C349.501 304.22 351.391 304.545 366.061 312.097C368.509 313.358 369.51 313.26 373.984 311.32C378.033 309.567 379.909 309.295 382.945 310.024C392.582 312.342 409.422 321.738 413.636 327.15C415.921 330.084 415.301 339.704 412.621 342.918C411.502 344.26 410.815 345.668 411.085 346.07C411.624 346.873 415.439 342.644 416.734 339.807C417.187 338.815 417.49 336.669 417.408 335.038C417.325 333.407 417.815 331.37 418.498 330.512C419.681 329.023 419.283 328.607 409.726 321.342C396.205 311.063 387.758 305.899 383.232 305.145C379.854 304.583 379.755 304.495 380.965 303.125C389.115 293.886 408.633 283.764 415.193 285.373C416.803 285.767 423.65 289.293 430.411 293.207C437.172 297.122 451.361 305.251 461.943 311.273C482.763 323.121 485.346 325.178 488.048 332.058C491.706 341.375 493.453 353.157 492.527 362.259C491.874 368.666 489.754 374.168 483.671 385.239C480.802 390.463 479.315 393.895 479.413 395.07C479.585 397.12 478.718 398.15 488.225 384.59C491.559 379.835 494.171 375.34 494.54 373.719C495.914 367.706 496.974 356.4 496.551 352.285C495.968 346.615 496.647 346.555 507.23 351.34C511.834 353.422 518.612 355.845 522.292 356.724C525.972 357.604 532.08 359.791 535.867 361.584C544.921 365.872 545.518 365.663 549.573 356.774C552.843 349.607 552.796 347.774 549.47 352.735C546.796 356.724 544.062 358.863 540.525 359.733C537.945 360.366 537.046 360.086 530.764 356.7C525.578 353.906 522.483 352.738 518.423 352.044C502.364 349.299 495.78 344.098 495.818 334.185C495.85 325.747 487.582 315.942 475.904 310.569C467.839 306.858 465.016 304.389 463.482 299.704C462.192 295.759 462.227 295.547 464.913 291.067C466.427 288.54 469.013 285.379 470.658 284.041C477.608 278.39 493.367 271.244 512.39 265.117C518.945 263.006 527.264 259.579 530.877 257.501C541.818 251.211 542.965 251.016 550.024 254.247C554.462 256.277 556.971 257.987 559.555 260.742C563.632 265.09 571.477 277.808 576.177 287.693C580.388 296.545 580.706 297.089 581.513 296.786C582.186 296.533 578.809 287.591 574.089 277.121C570.289 268.693 565.482 263.221 553.239 253.389L547.205 248.543L554.184 243.727C558.023 241.079 562.798 238.07 564.796 237.041C569.864 234.433 578.711 234.347 586.969 236.827C605.89 242.51 609.677 243.336 615.672 243.094C621.781 242.848 646.776 236.172 652.274 233.319C653.86 232.495 655.406 232.192 655.71 232.646C656.014 233.098 651.367 235.396 645.383 237.751C632.418 242.853 629.911 244.61 627.191 250.508C623.172 259.218 626.907 270.164 635.494 274.836C639.445 276.987 640.597 277.238 644.005 276.691C648.926 275.902 653.855 271.915 657.206 266.013L659.721 261.584L661.983 265.802C666.945 275.056 679.028 281.582 686.53 279.058C689.287 278.131 692.303 272.126 692.453 267.268C692.73 258.262 684.822 245.62 676.235 241.341C675.173 240.813 676.729 240.902 679.692 241.54C686.958 243.103 694.05 242.5 701.631 239.675C708.774 237.013 711.596 234.317 714.933 226.964L717.092 222.209L713.625 218.901C708.213 213.737 698.239 209.604 691.524 209.741C684.442 209.887 682.567 210.478 680.607 213.179C679.627 214.53 680.389 212.268 682.459 207.678C685.482 200.979 685.969 199.144 685.925 194.647C685.87 189.116 683.495 176.492 682.418 176.003C682.068 175.844 679.111 176.024 675.847 176.403ZM732.208 226.262C731.081 227.317 728.341 229.056 726.118 230.128C723.894 231.2 721.764 232.762 721.384 233.599C720.166 236.283 720.454 241.354 722.108 246.381L723.719 251.273L717.451 246.143C713.977 243.299 710.236 240.84 709.06 240.626C706.648 240.188 700.81 243.694 696.916 247.919L694.33 250.727L695.983 254.772C696.892 256.998 697.314 259.526 696.922 260.392C695.018 264.586 698.912 270.961 705.119 273.81C708.36 275.298 709.409 275.261 715.622 273.44C719.417 272.327 724.068 270.839 725.956 270.133C730.538 268.419 727.049 270.436 720.679 273.183C715.743 275.312 705.577 283.018 704.461 285.476C703.504 287.584 705.824 294.109 709.053 298.395C711.651 301.842 712.383 302.402 713.517 301.81C714.308 301.398 715.861 301.672 717.237 302.465C722.481 305.489 731.431 299.455 733.614 291.427C734.364 288.668 734.485 288.578 735.23 290.224C737.969 296.283 743.571 299.72 749.793 299.16C754.122 298.77 758.743 295.973 757.334 294.595C756.783 294.056 757.351 291.951 759.067 288.163C762.036 281.613 761.983 276.988 758.903 273.896L757.003 271.988L759.876 272.305C766.156 272.998 770.818 267.558 772.465 257.612C772.906 254.947 773.682 251.841 774.189 250.712C775.043 248.807 774.816 248.485 771.09 246.307C768.878 245.013 765.614 242.55 763.835 240.834C761.853 238.92 759.689 237.546 758.245 237.283C754.98 236.69 750.458 240.499 746.949 246.797C745.399 249.58 743.151 252.69 741.953 253.71C740.755 254.729 740.316 254.957 740.979 254.215C741.641 253.473 743.448 250.57 744.993 247.763L747.805 242.659L746.133 238.247C744.925 235.058 743.045 232.519 739.359 229.09L734.255 224.345L732.208 226.262ZM738.124 257.435C736.999 257.853 736.951 257.722 737.884 256.796C738.531 256.155 739.167 255.919 739.299 256.27C739.431 256.621 738.903 257.146 738.124 257.435ZM663.4 234.814C665.791 236.191 665.792 236.207 663.811 241.925C662.719 245.077 661.763 248.827 661.685 250.258C661.505 253.57 660.708 255.276 660.467 252.866C660.365 251.858 661.048 247.691 661.985 243.608L663.686 236.184L661.212 235.072C659.464 234.285 658.998 233.704 659.622 233.088C660.107 232.608 661.155 230.949 661.95 229.398C663.389 226.591 663.389 226.594 662.198 230.006C661.089 233.186 661.175 233.533 663.4 234.814ZM734.746 262.518C734.497 263.056 735.285 265.777 736.497 268.563L738.699 273.629L736.288 269.415C733.268 264.14 732.183 260.17 733.984 260.988C734.652 261.291 734.994 261.979 734.746 262.518ZM752.452 271.006C750.769 270.446 747.943 269.166 746.173 268.162C744.403 267.159 745.781 267.617 749.234 269.182C752.688 270.746 754.136 271.567 752.452 271.006ZM673.049 240.582C672.42 240.556 671.355 240.089 670.682 239.543C670.009 238.996 670.524 239.018 671.825 239.59C673.127 240.162 673.678 240.608 673.049 240.582ZM510.307 176.08C509.749 176.63 509.2 176.836 509.088 176.537C508.976 176.238 509.288 175.721 509.782 175.39C511.125 174.488 511.466 174.936 510.307 176.08ZM659.991 259.79C659.456 260.303 659.355 260.032 659.732 259.1C660.074 258.257 660.47 257.877 660.612 258.256C660.754 258.635 660.475 259.326 659.991 259.79ZM527.96 203.882C527.916 204.608 527.057 207.523 526.05 210.357L524.22 215.511L525.418 210.139C526.822 203.857 526.737 203.389 524.225 203.554C520.859 203.776 512.805 203.213 513.006 202.77C513.199 202.346 526.516 201.97 527.522 202.36C527.806 202.471 528.003 203.156 527.96 203.882ZM685.109 288.501C679.711 288.816 671.616 291.125 670.978 292.532C669.929 294.842 685.488 309.012 689.441 309.346C690.405 309.428 693.336 308.611 695.955 307.533C699.891 305.911 701.214 305.797 703.587 306.874C705.995 307.967 706.581 307.907 707.218 306.503C708.261 304.206 705.544 297.964 702.251 295.09C697.706 291.123 690.121 288.208 685.109 288.501ZM450.332 186.895L446.373 186.554L448.405 192.104L450.439 197.654L456.737 200.533C463.408 203.583 467.537 207.285 468.532 211.108C468.888 212.473 468.505 212.124 467.308 209.991C465.772 207.256 464.599 206.411 457.442 202.875L449.318 198.863L450.48 204.309C451.147 207.435 452.873 211.481 454.533 213.807C458.108 218.817 457.084 218.635 453.338 213.595C450.581 209.885 448.014 201.127 449.006 198.812C449.303 198.118 448.8 195.895 447.888 193.873L446.23 190.196L442.77 190.627C440.867 190.864 439.231 191.058 439.135 191.058C439.038 191.058 438.13 193.726 437.116 196.988C434.674 204.846 435.158 213.135 438.513 220.87C441.594 227.974 446.247 233.815 448.981 234.011C451.763 234.21 452.33 233.063 450.072 231.804C446.623 229.879 443.959 225.897 441.92 219.613C439.71 212.802 439.534 208.154 441.35 204.544C442.453 202.351 442.483 202.439 441.675 205.518C440.36 210.533 440.853 214.263 443.717 220.968C447.772 230.463 452.815 233.711 459.561 231.172C462.613 230.024 462.983 229.581 464.552 225.196C465.656 222.11 466.084 221.376 465.781 223.091C465.336 225.603 465.378 225.655 466.716 224.225C467.487 223.402 468.939 222.674 469.943 222.608C472.661 222.429 476.013 216.826 476.312 211.963C476.816 203.759 472.42 196.21 464.694 192.014C461.059 190.039 459.421 189.486 459.127 190.135C458.825 190.8 458.393 190.638 457.562 189.551C456.105 187.647 455.201 187.315 450.332 186.895ZM654.299 279.244C654.211 279.438 655.674 282.252 657.551 285.497C663.383 295.58 660.701 301.572 647.504 307.944L644.976 309.165L648.137 308.231C653.624 306.609 666.657 297.883 667.995 294.935C668.648 293.495 668.974 292.006 668.719 291.624C668.463 291.244 666.2 289.569 663.689 287.902C661.178 286.236 658.231 283.597 657.139 282.039C655.11 279.144 654.581 278.622 654.299 279.244ZM460.993 194.629C461.403 196.317 461.363 196.332 460.562 194.791C460.076 193.855 459.739 192.956 459.813 192.793C460.106 192.147 460.562 192.854 460.993 194.629ZM669.143 295.51C668.478 296.246 667.002 297.705 665.864 298.752C664.428 300.071 662.643 303.47 660.037 309.844C656.361 318.837 656.287 319.224 656.541 328.034C656.835 338.212 658.537 342.315 664.63 347.544C668.404 350.785 670.666 351.516 673.554 350.428C676.906 349.167 676.692 346.796 672.161 334.985C666.671 320.675 666.047 314.061 669.337 305.068C670.734 301.248 671.283 298.338 670.915 296.692C670.373 294.261 670.308 294.219 669.143 295.51ZM671.257 303.736C668.642 310.933 668.279 315.636 669.752 323.174C670.889 328.987 671.438 330.063 674.814 333.091C680.377 338.081 687.515 340.565 691.273 338.819C692.823 338.099 694.2 337.264 694.335 336.963C694.469 336.663 693.291 335.046 691.717 333.369C688.519 329.966 687.097 325.874 686.81 319.255C686.504 312.219 685.166 309.435 679.839 304.751C677.175 302.409 674.575 300.065 674.061 299.543C673.286 298.756 672.803 299.48 671.257 303.736ZM501.28 227.042C500.641 227.015 499.759 226.615 499.318 226.151C498.878 225.689 499.4 225.711 500.479 226.201C501.557 226.69 501.918 227.069 501.28 227.042ZM469.013 223.923C465.698 225.362 466.104 226.449 469.891 226.275C471.864 226.185 473.933 226.318 474.488 226.57C475.045 226.822 475.66 226.675 475.856 226.243C476.484 224.86 471.077 223.026 469.013 223.923ZM459.808 219.906C460.265 220.619 460.286 221.041 459.854 220.845C459.423 220.649 458.696 219.906 458.238 219.194C457.781 218.481 457.76 218.059 458.192 218.255C458.623 218.45 459.35 219.194 459.808 219.906ZM596.65 284.625C595.205 285.923 592.751 287.804 591.197 288.804C589.041 290.193 588.195 291.34 587.63 293.641C586.657 297.603 588.078 297.621 593.075 293.713C595.887 291.514 597.658 289.372 598.867 286.707C600.952 282.113 600.217 281.422 596.65 284.625ZM535.146 255.609C533.204 256.34 533.676 257.845 536.601 260.248C540.194 263.201 544.679 268.261 547.69 272.765C551.536 278.513 550.288 286.835 544.723 292.555C542.99 294.337 541.646 294.795 538.757 294.589C533.8 294.237 525.286 296.382 526.952 297.564C527.617 298.034 529.061 298.36 530.162 298.288C532.554 298.129 532.541 298.179 529.412 301.091C526.315 303.972 523.879 309.376 524.216 312.615C524.463 314.972 524.545 314.885 525.796 310.94C527.104 306.818 531.05 301.114 532.745 300.896C533.228 300.834 532.398 302.186 530.899 303.902C527.95 307.277 526.417 312.253 526.687 317.575C526.856 320.901 526.61 321.616 525.741 320.322C525.338 319.719 525.146 319.792 525.239 320.511C525.533 322.818 529.188 323.517 531.656 321.74L534.022 320.036L536.15 324.356C538.186 328.491 538.37 328.648 540.394 327.999C543.45 327.02 546.661 323.189 547.897 319.045C548.826 315.93 549.188 315.508 550.6 315.89C552.203 316.323 552.23 316.267 552.244 312.373C552.262 307.383 548.927 301.62 545.896 301.403C543.848 301.257 543.842 301.291 544.998 306.468C545.68 309.527 545.709 310.619 545.066 309.112L543.971 306.542L541.877 310.98C540.725 313.421 538.628 316.385 537.217 317.568C535.805 318.751 535.197 319.115 535.865 318.376C536.534 317.638 538.519 314.343 540.275 311.056C543.024 305.911 543.424 304.554 543.147 301.317C542.82 297.501 544.498 294.514 547.161 294.171C548.589 293.987 551.73 286.922 552.324 282.557C552.942 278.023 548.964 268.557 543.99 262.721C539.871 257.89 536.433 255.125 535.146 255.609ZM602.484 293.124C595.357 293.655 587.787 298.873 588.792 302.562C589.013 303.375 590.15 305.171 591.318 306.554C593.372 308.988 593.577 309.054 597.754 308.616C603.422 308.021 604.406 308.543 599.324 309.446C596.949 309.869 594.323 309.679 592.87 308.982C590.696 307.937 590.115 308.108 587.695 310.503C586.195 311.987 582.73 314.296 579.991 315.634C575.315 317.921 574.949 318.297 573.917 321.871C572.27 327.581 572.493 332.975 574.641 339.34C576.498 344.846 580.959 352.36 582.113 351.926C583.188 351.522 594.739 337.496 595.604 335.546C596.755 332.948 596.716 326.672 595.499 318.998C594.659 313.698 594.689 313.352 595.707 316.644C597.194 321.455 598.05 331.458 597.267 334.878C596.942 336.294 595.771 338.511 594.662 339.805C593.164 341.554 592.825 342.429 593.338 343.216C594.464 344.942 597.309 345.897 599.203 345.185C600.544 344.68 601.249 344.887 602.132 346.041C604.033 348.529 608.367 350.043 611.024 349.148C615.593 347.612 618.574 341.234 615.396 339.791C613.074 338.737 610.704 335.433 607.47 328.739C604.278 322.131 601.584 318.364 599.316 317.334C598.481 316.955 597.617 315.391 597.398 313.859L596.998 311.072L598.124 313.715C598.745 315.169 599.803 316.608 600.478 316.915C603.064 318.088 606.42 322.673 608.912 328.436C611.864 335.259 614.84 338.887 617.95 339.452C623.807 340.518 625.306 335.417 621.83 326.248L619.361 319.734L621.954 321.181C624.329 322.507 624.688 322.436 626.233 320.339C627.161 319.08 628.902 317.427 630.1 316.667C632.243 315.308 632.245 315.226 630.21 312.01C624.383 302.802 609.417 292.609 602.484 293.124ZM464.255 230.956C463.906 231.724 462.133 233.153 460.314 234.132C458.496 235.111 455.497 237.413 453.651 239.249L450.293 242.587L452.885 241.751C454.31 241.29 456.495 240.862 457.739 240.798C461.891 240.586 467.112 234.145 465.622 231.071C465.017 229.824 464.778 229.803 464.255 230.956ZM584.156 296.187C583.971 296.594 584.074 297.305 584.384 297.768C584.695 298.23 584.366 299.892 583.655 301.46C582.66 303.651 581.062 304.986 576.735 307.234C563.659 314.031 557.62 323.776 561.473 331.863C563.191 335.468 565.256 336.781 565.54 334.451C565.645 333.587 565.851 330.964 565.998 328.621C566.359 322.85 568.914 320.023 578.484 314.811C587.86 309.704 589.396 307.912 587.757 303.997C586.872 301.887 586.885 300.709 587.803 299.689C588.878 298.496 588.784 298.252 587.183 298.061C586.073 297.929 585.456 297.492 585.68 296.998C585.889 296.537 585.707 296 585.276 295.804C584.844 295.608 584.34 295.78 584.156 296.187ZM578.964 297.202C577.189 297.098 574.645 296.551 573.31 295.984C571.975 295.418 569.978 295.144 568.873 295.375C566.963 295.773 566.973 295.926 569.091 298.444C571.721 301.569 574.414 302.269 578.927 301.001C580.68 300.508 582.224 300.399 582.358 300.758C582.493 301.116 582.746 300.579 582.921 299.565C583.284 297.454 583.283 297.454 578.964 297.202ZM606.175 309.652C605.796 309.794 605.106 309.515 604.644 309.031C604.131 308.497 604.402 308.395 605.333 308.772C606.175 309.114 606.554 309.509 606.175 309.652ZM549.505 295.391C545.204 295.601 542.97 298.391 546.002 299.767C547.096 300.263 549.497 300.641 551.339 300.605C554.152 300.551 555.349 301.001 558.841 303.431C561.125 305.022 563.16 306.269 563.361 306.203C563.561 306.138 562.604 304.493 561.234 302.55C557.769 297.637 553.752 295.184 549.505 295.391ZM76.3541 83.8361C73.6203 84.1262 67.591 83.9066 62.9557 83.3468C52.4826 82.0832 50.3865 82.3983 47.6712 85.6431C39.9743 94.8432 43.0952 102.438 53.6123 100.098C69.4353 96.5754 75.9553 99.1682 94.6717 116.425C105.293 126.219 106.526 128.404 105.663 135.908C104.933 142.244 105.464 148.765 107.923 163.657C110.456 179.006 110.647 184.104 109.254 199.116C107.922 213.465 107.977 217.461 109.589 223.65L110.777 228.216L116.252 230.701L121.728 233.187L119.994 226.499C118.928 222.388 118.482 217.707 118.837 214.351C119.453 208.514 123.614 195.201 124.671 195.681C125.021 195.84 127.387 199.118 129.928 202.967C135.631 211.603 146.33 224.359 153.407 230.959C156.332 233.687 159.575 237.183 160.615 238.729L162.504 241.54L167.236 239.759C172.852 237.647 172.898 237.271 168.6 228.569C164 219.254 157.933 212.367 146.192 203.136C129.544 190.045 127.497 186.131 127.161 166.761C126.982 156.425 126.547 153.9 123.347 144.644C120.239 135.654 119.78 133.123 120.062 126.524C120.449 117.465 119.41 113.095 115.948 109.209C114.551 107.64 106.826 101.643 98.7824 95.8817C90.7386 90.1208 83.5203 84.9346 82.741 84.3582C81.962 83.7811 79.088 83.5461 76.3541 83.8361ZM538.578 298.618C538.51 298.767 537.354 299.202 536.01 299.584L533.565 300.279L535.862 299.19C538.021 298.167 538.863 297.99 538.578 298.618ZM368.699 227.657C363.198 227.724 357.764 229.575 348.32 234.601C343.791 237.012 337.08 240.527 333.407 242.412C329.733 244.298 326.812 246.065 326.915 246.338C327.017 246.611 328.934 248.114 331.175 249.677C333.415 251.24 338.91 255.94 343.383 260.122C350.683 266.945 352.322 268.097 359.34 271.342C368.276 275.474 372.387 275.881 382.078 273.596C388.759 272.021 391.489 269.848 395.402 262.994L398.383 257.77L394.3 254.347C391.648 252.125 389.094 248.823 387.017 244.932C380.001 231.793 379.948 231.718 376.208 229.637C373.695 228.239 371.367 227.626 368.699 227.657ZM301.752 233.999C301.374 234.142 300.684 233.863 300.221 233.379C299.709 232.844 299.979 232.742 300.91 233.12C301.752 233.461 302.131 233.857 301.752 233.999ZM555.329 351.357C555.13 351.794 555.508 352.397 556.17 352.697C556.83 352.997 561.465 358.031 566.469 363.884C576.195 375.259 581.13 380.199 583.806 381.237C585.419 381.863 585.427 381.849 584.06 380.828C583.283 380.248 577.99 374.084 572.299 367.13C562.699 355.401 556.224 349.384 555.329 351.357ZM299.782 270.664C290.216 281.615 288.379 284.451 280.455 300.497C272.024 317.571 270.98 318.769 262.918 320.622C257.095 321.962 248.691 320.199 235.494 314.87C217.933 307.777 213.394 302.847 207.237 284.18C202.847 270.868 197.97 261.514 191.515 254.027C186.43 248.127 176.662 239.598 175.495 240.036C175.095 240.186 174.449 243.75 174.058 247.954L173.346 255.597L178.117 259.792C188.326 268.768 193.701 276.718 202.494 295.846C212.964 318.624 221.622 326.686 239.55 330.349C243.498 331.155 250.226 332.703 254.503 333.788L262.278 335.761L269.877 342.655C278.622 350.59 298.825 371.666 306.032 380.372C311.088 386.482 313.56 390.948 319.443 404.613C323.734 414.579 327.753 420.433 336.262 429.109C339.965 432.884 344.022 437.68 345.276 439.766C348.073 444.416 351.465 453.842 353.302 462.075C354.059 465.465 355.047 468.307 355.498 468.39C355.949 468.474 353.263 470.629 349.529 473.179C342.4 478.05 341.866 478.622 342.196 481.015C342.327 481.959 341.92 482.731 341.078 483.141C339.048 484.128 339.267 488.625 341.352 488.744C345.194 488.963 351.89 491.131 359.771 494.708C366.355 497.697 369.373 498.639 373.192 498.898C381.882 499.487 390.386 495.848 392.813 490.501C393.271 489.492 393.341 486.48 392.969 483.807C392.596 481.135 392.535 477.901 392.833 476.621C393.374 474.299 393.354 474.281 383.388 468.551C377.895 465.393 372.19 462.55 370.71 462.236C368.904 461.851 366.552 462.451 363.559 464.059C361.106 465.378 358.969 466.306 358.809 466.122C358.651 465.938 357.888 462.934 357.116 459.444C354.527 447.758 349.357 438.76 334.626 420.307C324.029 407.031 323.687 406.499 318.44 395.139C316.298 390.501 313.205 384.634 311.565 382.1C306.717 374.61 283.015 345.514 279.378 342.589C275.789 339.704 275.785 339.841 279.617 334.531C281.765 331.557 301.5 329.944 306.726 332.316C307.804 332.805 308.375 332.613 308.427 331.746C308.485 330.8 309.498 331.525 312.101 334.374C314.079 336.537 316.155 338.941 316.715 339.713C317.644 340.995 317.959 340.62 320.326 335.418C323.348 328.772 325.923 325.46 330.036 322.926C333.338 320.891 340.029 319.468 343.363 320.092C344.707 320.343 344.07 320.576 341.703 320.7C336.499 320.973 332.194 322.601 328.46 325.71C325.918 327.827 324.667 329.808 321.689 336.43C316.172 348.699 312.152 361.083 312.52 364.674L312.835 367.754L321.31 371.909C329.387 375.867 329.978 376.032 333.868 375.41C336.113 375.05 338.938 374.208 340.146 373.537C342.324 372.328 342.318 372.25 339.628 365.074C337.622 359.725 336.858 355.618 336.707 349.373C336.518 341.597 336.744 340.33 339.521 333.614L342.541 326.309L340.536 332.558C336.02 346.638 337.627 362.697 344.681 373.959C346.339 376.607 346.94 379.083 346.936 383.253C346.935 386.38 347.373 389.958 347.913 391.205C348.888 393.458 348.918 393.463 352.828 392.061C362.777 388.494 368.678 377.41 370.126 359.567C370.579 353.982 370.923 348.383 370.888 347.123C370.83 344.977 370.859 344.961 371.345 346.865C372.063 349.683 371.61 361.393 370.545 367.542C370.058 370.351 368.663 374.843 367.445 377.527L365.231 382.405L370.213 385.343C373.902 387.519 376.34 388.416 379.608 388.797C382.036 389.081 384.468 389.765 385.013 390.318C385.754 391.069 386.058 390.892 386.219 389.62C386.336 388.683 387.077 383.099 387.866 377.212C389.638 363.973 389.559 361.975 387.012 355.528C385.277 351.136 385.255 350.877 386.872 353.771C388.425 356.554 389.239 357.239 391.361 357.552C394.234 357.976 400.055 357.802 400.29 357.285C400.954 355.822 398.814 344.302 397.144 340.344C394.93 335.099 392.934 332.604 389.82 331.191C387.903 330.321 387.899 330.345 388.328 338.803C388.564 343.469 388.436 346.075 388.044 344.595C387.651 343.114 387.189 339.031 387.016 335.522C386.646 327.993 384.463 322.621 380.419 319.287C374.049 314.035 362.152 311.971 357.74 315.352C356.615 316.213 354.043 317.146 352.023 317.426C348.514 317.912 348.206 317.807 345.059 315.054C342.927 313.188 340.439 311.796 337.991 311.101C332.678 309.589 319.364 309.172 314.572 310.367C307.426 312.148 304.035 317.984 306.526 324.217C307.245 326.016 307.708 327.764 307.555 328.101C307.402 328.438 306.603 326.915 305.779 324.717C304.955 322.52 304.516 320.203 304.804 319.57C305.479 318.083 305.683 318.132 298.698 318.1C295.403 318.086 290.486 317.811 287.769 317.49C285.052 317.169 281.64 317.416 280.185 318.041C277.122 319.355 277.157 318.444 280.241 316.62C283.406 314.748 285.707 309.844 286.857 302.517C288.012 295.165 289.828 291.644 296.138 284.527C299.258 281.007 299.989 279.709 300.21 277.282C300.371 275.518 301.653 272.228 303.39 269.12C304.991 266.256 306.2 263.867 306.078 263.811C305.956 263.756 303.122 266.84 299.782 270.664ZM434.086 326.607C432.98 329.044 430.085 331.179 427.884 331.181C426.771 331.181 424.275 331.154 422.339 331.12C418.571 331.054 417.971 331.589 418.18 334.818C418.253 335.95 417.698 339.599 416.946 342.927C416.195 346.254 415.644 350.251 415.723 351.809C415.913 355.568 417.834 360.012 419.619 360.821C421.743 361.786 424.962 359.332 426.908 355.264C428.858 351.187 428.739 349.596 425.796 340.399C424.196 335.396 424.102 334.532 425.402 336.739C428.15 341.401 430.228 349.496 429.47 352.58C428.855 355.084 429.185 355.851 432.13 358.758C436.276 362.853 441.357 366.239 442.352 365.57C442.761 365.296 442.767 363.272 442.367 361.075C441.966 358.877 441.16 354.14 440.576 350.546C439.279 342.565 434.326 334.417 432.806 337.766C432.542 338.347 431.268 339.154 429.974 339.559L427.622 340.296L430.796 337.749C434.366 334.883 436.833 330.151 436.205 327.376C435.659 324.965 434.949 324.707 434.086 326.607ZM435.248 334.981C435.184 335.594 436.522 338.119 438.222 340.589C441.405 345.216 444.939 347.554 448.4 347.326C450.948 347.158 451.376 345.869 449.212 344.881C448.242 344.439 445.726 342.241 443.621 339.998C439.448 335.549 435.441 333.148 435.248 334.981ZM503.098 381.995C495.067 382.148 493.597 383.188 487.771 392.845C484.815 397.745 481.254 402.58 479.284 404.37C476.992 406.452 475.605 408.438 475.015 410.485C474.534 412.152 474.519 410.781 474.983 407.437C476.141 399.093 475.819 394.846 473.649 389.844C470.234 381.975 464.737 379.378 457.22 382.081C455.008 382.876 450.158 384.198 446.443 385.018C437.979 386.887 434.354 389.558 431.479 396.047C429.083 401.453 429.01 406.542 431.25 412.048C432.655 415.504 432.736 415.564 441.105 419.206C449.11 422.69 449.999 422.886 458.459 423.025C463.363 423.106 469.215 422.699 471.463 422.121C473.711 421.544 475.614 421.249 475.689 421.467C476 422.354 465.02 454.567 464.032 455.664C461.784 458.161 466.52 471.044 471.666 476.426C472.697 477.504 476.596 480.097 480.33 482.189C484.065 484.28 487.926 486.644 488.909 487.443C490.692 488.892 490.705 488.881 495.576 481.615C501.779 472.36 503.484 468.509 503.477 463.78C503.467 457.1 500.292 450.905 491.116 439.664C486.434 433.927 482.861 429.343 483.177 429.477C484.637 430.096 498.538 446.095 500.584 449.51C501.849 451.622 503.522 455.392 504.302 457.889C505.91 463.037 507.643 464.235 511.725 463.023C514.112 462.314 515.433 460.917 520.032 454.241C523.038 449.874 526.407 445.314 527.515 444.109C529.372 442.087 529.429 441.591 528.224 437.799C527.505 435.534 526.712 432.064 526.461 430.085C525.672 423.873 522.589 421.642 510.899 418.82C507.255 417.94 504.199 417.021 504.108 416.777C503.95 416.356 508.452 417.224 515.399 418.953C517.926 419.583 519.375 419.234 522.566 417.234C524.766 415.853 526.671 414.493 526.799 414.211C527.375 412.943 524.616 408.363 520.295 403.416C515.697 398.152 514.681 395.854 513.623 388.332C512.98 383.768 509.821 381.866 503.098 381.995ZM362.991 329.1C364.612 335.722 367.735 340.478 373.031 344.393L376.213 346.746L372.8 344.883C368.041 342.285 363.78 336.928 362.425 331.838C361.794 329.468 360.435 325.166 359.405 322.276C357.574 317.142 357.576 317.09 359.505 319.971C360.59 321.593 362.159 325.702 362.991 329.1ZM167.909 240.367C164.712 241.546 158.867 243.602 154.919 244.936C146.761 247.694 143.49 250.13 140.611 255.595L138.599 259.412L136.692 253.549C133.168 242.718 125.045 235.07 111.908 230.215L104.443 227.455L105.301 231.204C106.023 234.362 105.798 235.773 103.87 240.156C100.688 247.394 101.464 254.35 106.32 262.111L108.867 266.181L112.322 265.385C118.156 264.044 117.164 264.966 111.033 266.585C104.913 268.2 93.1268 269.042 87.4177 268.272L83.9956 267.81L87.9651 275.094C90.1483 279.1 93.7801 284.55 96.0362 287.203C99.6691 291.476 100.944 292.396 107.191 295.251C114.282 298.491 115.675 298.714 123.07 297.793L126.079 297.418L122.792 298.407C120.984 298.95 118.16 299.307 116.518 299.2C112.258 298.921 111.712 301.022 115.251 304.076C118.869 307.199 122.83 313.197 124.376 317.897C125.487 321.275 125.426 321.219 123.38 316.978C118.667 307.21 112.278 301.523 94.7174 291.462C88.1087 287.676 81.7105 283.895 80.4997 283.06C78.6108 281.758 78.0149 281.789 76.3131 283.274C75.2226 284.225 73.4154 286.529 72.2981 288.39C70.5327 291.331 70.3861 292.358 71.1833 296.214C71.6874 298.656 73.0714 302.361 74.2589 304.448C76.4998 308.388 82.4648 314.838 84.8806 315.935C85.8755 316.387 84.5843 317.23 80.3226 318.912C73.53 321.591 65.1325 327.202 57.2185 334.347L51.7642 339.272L55.2311 341.492C62.9779 346.452 80.1756 354.774 83.9148 355.371C87.9061 356.009 88.0243 355.922 92.1012 349.341C94.9236 344.785 101.995 339.116 107.915 336.663C110.967 335.397 111.48 335.312 109.355 336.422C100.445 341.079 92.4907 349.507 88.3652 358.663C84.3996 367.462 84.6024 373.271 89.3797 387.782C91.2797 393.554 89.6968 393.823 103.562 385.376C110.189 381.339 113.428 378.778 115.675 375.798C118.68 371.812 118.715 371.688 117.406 369.622C114.578 365.154 112.877 360.341 112.421 355.509C112.16 352.745 112.119 350.135 112.33 349.71C112.541 349.285 112.81 350.686 112.929 352.824C113.515 363.446 117.86 370.721 125.706 374.22C135.466 378.572 148.079 379.787 152.034 376.756C153.317 375.774 153.11 374.964 150.523 370.82C147.36 365.754 146.512 361.975 147.214 356.071C147.837 350.829 147.236 348.238 144.493 344.349C141.839 340.583 134.217 334.582 129.115 332.24C126.423 331.005 125.911 330.372 125.909 328.278C125.908 326.907 126.042 325.757 126.207 325.724C126.372 325.69 128.172 325.747 130.207 325.85C132.958 325.989 133.997 325.634 134.262 324.459C135.365 319.565 139.024 313.217 142.576 310.036L146.345 306.659L150.987 309.368C160.651 315.009 169.365 314.732 174.311 308.629C175.527 307.128 178.498 301.84 180.912 296.878L185.302 287.856L182.164 285.39C168.088 274.324 158.717 271.34 147.81 274.452L143.518 275.676L147.048 274.154C151.079 272.416 158.246 271.867 162.974 272.935C165.763 273.566 166.465 273.324 168.202 271.133C170.537 268.191 171.458 263.639 172.826 248.283L173.721 238.223L167.909 240.367ZM382.789 349.413C382.41 349.556 381.72 349.277 381.257 348.793C380.745 348.258 381.015 348.156 381.946 348.533C382.789 348.875 383.167 349.271 382.789 349.413ZM498.146 416.706C497.895 416.781 496.616 416.864 495.303 416.888C493.054 416.93 493.036 416.903 494.995 416.403C496.7 415.968 499.651 416.251 498.146 416.706ZM473.704 415.865C473.169 416.377 473.068 416.107 473.446 415.174C473.788 414.331 474.183 413.952 474.326 414.331C474.468 414.71 474.188 415.4 473.704 415.865ZM470.037 423.561C468.366 423.804 461.999 423.941 455.887 423.865C446.422 423.747 443.933 424.088 439.071 426.172C435.612 427.653 432.226 429.878 430.477 431.817C423.434 439.627 421.851 444.476 423.619 452.83L424.663 457.76L429.167 457.788C432.629 457.809 435.449 458.583 441.347 461.131C451.681 465.594 454.876 465.063 460.733 457.906C462.879 455.285 464.203 452.362 467.492 442.974C473.038 427.146 474.175 423.467 473.582 423.279C473.304 423.191 471.709 423.318 470.037 423.561ZM119.734 266.012C119.355 266.154 118.665 265.875 118.202 265.391C117.69 264.856 117.96 264.755 118.891 265.132C119.734 265.473 120.112 265.869 119.734 266.012ZM129.135 270.359C128.29 270.214 127.055 269.654 126.389 269.113C125.723 268.573 126.415 268.692 127.925 269.377C129.435 270.063 129.98 270.505 129.135 270.359ZM137.051 277.526C138.225 280.057 138.209 280.307 136.938 279.275C135.35 277.984 133.59 273.623 134.897 274.217C135.328 274.412 136.298 275.901 137.051 277.526ZM109.43 298.657C109.501 299.21 110.088 299.903 110.736 300.197C111.383 300.491 111.855 300.279 111.784 299.726C111.713 299.172 111.126 298.48 110.479 298.186C109.832 297.892 109.36 298.104 109.43 298.657ZM90.0274 317.951C89.3892 317.925 88.5065 317.524 88.0658 317.061C87.6256 316.598 88.1475 316.62 89.2263 317.11C90.3051 317.6 90.6659 317.978 90.0274 317.951ZM96.7007 320.925C96.3219 321.068 95.6319 320.788 95.1693 320.305C94.6569 319.77 94.9274 319.668 95.8586 320.045C96.7009 320.387 97.0796 320.782 96.7007 320.925ZM101.836 324.203C101.458 324.346 100.768 324.067 100.305 323.583C99.7926 323.048 100.063 322.947 100.994 323.324C101.837 323.665 102.215 324.061 101.836 324.203ZM105.403 326.77C105.024 326.912 104.334 326.633 103.871 326.149C103.359 325.615 103.63 325.513 104.561 325.89C105.403 326.232 105.782 326.627 105.403 326.77ZM322.567 433.254C318.181 433.791 315.559 435.642 312.861 440.104C310.944 443.275 310.598 444.75 310.725 449.209C310.959 457.44 317.996 470.167 326.128 477.066C329.809 480.19 329.811 480.195 326.532 478.175C322.279 475.555 318.828 471.64 314.549 464.581C311.147 458.966 311.036 458.872 304.429 455.903C296.152 452.184 292.214 451.761 287.004 454.029C280.359 456.922 271.208 467.137 272.633 470.074C273.005 470.843 276.141 474.11 279.6 477.333C285.218 482.568 286.581 483.454 292.358 485.623C295.915 486.959 300.487 488.181 302.517 488.337L306.209 488.622L302.766 491.446C294.947 497.86 290.422 511.147 292.13 522.671C292.632 526.065 293.319 528.962 293.654 529.108C295.085 529.734 302.807 530.447 306.269 530.273C317.168 529.727 328.169 520.439 334.858 506.137C337.135 501.269 338.058 499.776 337.538 501.801C335.802 508.563 339.668 521.788 345.254 528.201C349.159 532.684 357.098 536.326 361.895 535.836C370.604 534.945 375.36 519.864 370.88 507.348C369.968 504.799 368.483 501.969 367.581 501.058C365.077 498.533 345.841 490.132 341.789 489.795C338.477 489.52 338.374 489.439 338.746 487.403C338.958 486.244 338.623 484.436 338.003 483.385C337.031 481.738 337.065 481.56 338.251 482.098C340.675 483.198 341.392 481.179 342.049 471.41C343.193 454.395 342.025 445.35 338.037 440.343C334.793 436.269 327.022 432.707 322.567 433.254ZM418.103 514.791C411.203 520.252 403.398 522.115 397.976 519.595C394.547 518.001 393.767 517.045 389.74 509.495C388.18 506.573 386.626 504.056 386.288 503.902C385.948 503.748 386.422 505.905 387.341 508.695C388.904 513.445 389.649 522.422 388.664 524.639C388.101 525.905 389.122 526.341 392.857 526.433C397.881 526.556 416.71 518.459 420.063 514.733C422.067 512.508 420.947 512.54 418.103 514.791ZM416.119 528.798C413.83 528.682 409.63 528.084 406.786 527.471C403.541 526.77 400.28 526.745 398.032 527.401C396.061 527.977 393.931 528.213 393.298 527.926C391.471 527.097 391.274 528.842 392.976 530.795C394.152 532.144 395.932 532.926 400.273 534.002C403.43 534.785 407.714 536.37 409.792 537.526L413.569 539.628L408.793 537.642C406.166 536.55 401.879 535.299 399.266 534.861C396.654 534.425 394.316 533.947 394.07 533.801C392.593 532.917 392.49 533.696 393.501 538.109C394.121 540.814 394.706 544.738 394.8 546.831C394.993 551.114 397.867 554.955 404.229 559.438C409.732 563.314 413.109 567.79 414.107 572.527L414.98 576.677L418.144 575.165C420.576 574.003 421.693 572.802 422.967 569.978C425.599 564.15 424.892 552.152 421.663 547.855C420.852 546.776 420.547 546.041 420.984 546.224C421.422 546.406 424.366 550.239 427.527 554.74C430.689 559.241 433.465 562.859 433.696 562.78C434.519 562.499 426.735 540.3 424.122 535.474C420.504 528.794 420.793 529.035 416.119 528.798ZM338.265 497.441C337.731 497.953 337.629 497.682 338.007 496.75C338.349 495.907 338.745 495.528 338.887 495.907C339.029 496.286 338.749 496.976 338.265 497.441ZM310.121 489.225C309.284 489.35 308.246 489.291 307.814 489.096C307.383 488.9 307.715 488.637 308.552 488.513C309.39 488.388 310.428 488.446 310.859 488.642C311.291 488.838 310.959 489.1 310.121 489.225ZM386.721 528.494C385.72 528.95 382.787 531.35 380.204 533.825C373.542 540.207 370.33 547.252 370.721 554.626C371.18 563.284 373.731 568.308 378.843 570.628C380.43 571.349 380.852 571.202 380.908 569.907C381.118 565.042 382.668 562.443 386.538 560.464C393.351 556.978 394.92 553.11 393.476 543.369C392.529 536.98 390.097 528.368 389.113 527.921C388.798 527.778 387.721 528.036 386.721 528.494ZM417.383 542.692C417.978 543.664 417.628 543.593 416.083 542.428C413.492 540.472 413.07 539.738 415.07 540.665C415.894 541.048 416.935 541.959 417.383 542.692ZM318.154 529.108C314.601 531.794 310.523 535.467 309.092 537.272C306.757 540.216 306.5 541 306.596 544.912C306.713 549.753 309.277 555.574 313.825 561.327C317.696 566.224 316.524 565.807 312.261 560.77C310.468 558.65 307.576 553.735 305.836 549.848C303.89 545.501 301.45 541.649 299.501 539.842C294.65 535.349 291.393 535.636 284.673 541.147C282.833 542.657 278.954 544.826 276.051 545.968C271.16 547.894 270.82 548.188 271.379 550.006C271.711 551.084 272.387 555.773 272.88 560.426C273.891 569.956 274.879 572.915 278.268 576.563C281.532 580.078 283.627 580.842 289.062 580.499L293.762 580.202L290.213 581.401C287.574 582.292 286.362 583.277 285.487 585.238C283.732 589.174 284.09 594.857 286.45 600.506C288.473 605.349 288.584 606.381 287.298 608.446C286.974 608.965 287.756 610.518 289.035 611.895C290.907 613.911 292.194 614.582 295.616 615.328C304.068 617.17 308.471 615.78 313.775 609.593C316.633 606.259 316.957 605.541 317.334 601.716C317.96 595.344 318.575 595.124 318.348 601.354C317.827 615.636 328.281 627.746 337.981 624.096C340.199 623.262 341.24 623.274 341.565 624.14C342.198 625.827 345.394 624.544 346.528 622.149C347.97 619.1 351.466 600.476 350.867 599.032C349.601 595.979 342.649 590.787 333.389 585.979C324.121 581.166 324.021 581.089 330.232 583.553C333.76 584.952 338.955 587.111 341.775 588.35C350.135 592.024 352.748 592.321 357.43 590.132C361.643 588.163 366.643 583.598 368.097 580.394C368.526 579.449 368.542 577.303 368.133 575.624C367.55 573.233 367.85 571.556 369.521 567.876C371.634 563.22 371.632 563.151 369.335 560.007C368.06 558.263 364.974 554.982 362.479 552.714C356.139 546.955 354.651 547.034 344.088 553.699L335.704 558.988L338.283 552.162C342.462 541.104 341.47 537.043 333.373 532.067C330.442 530.265 327.443 527.84 326.708 526.68C325.973 525.518 325.202 524.491 324.994 524.396C324.785 524.302 321.708 526.421 318.154 529.108ZM310.883 575.106C310.826 575.23 308.131 576.244 304.892 577.36L299.003 579.388L304.768 577.031C310.126 574.842 311.149 574.519 310.883 575.106ZM298.666 579.088C298.598 579.238 297.443 579.672 296.099 580.055L293.654 580.75L295.951 579.661C298.109 578.638 298.951 578.46 298.666 579.088ZM318.936 594.594C318.599 595.336 318.416 595.079 318.441 593.895C318.462 592.863 318.72 591.488 319.015 590.84C319.352 590.098 319.535 590.355 319.51 591.539C319.489 592.571 319.231 593.946 318.936 594.594Z" fill="url(#paint0_linear_3_2785)" fill-opacity="0.25"/>
</g>
<defs>
<linearGradient id="paint0_linear_3_2785" x1="679.243" y1="467.986" x2="10.8651" y2="164.608" gradientUnits="userSpaceOnUse">
<stop stop-color="#D32A1E"/>
<stop offset="1" stop-color="#D32A1E" stop-opacity="0.8"/>
</linearGradient>
</defs>
</svg>
